<?xml version="1.0" standalone="no"?>
<!DOCTYPE svg PUBLIC "-//W3C//DTD SVG 1.1//EN" "http://www.w3.org/Graphics/SVG/1.1/DTD/svg11.dtd" >
<svg>
<metadata>
Created by FontForge 20090914 at Fri Feb 10 21:25:28 2012
 By www-data
Copyright (c) Fontype Freebies, 2004. All rights reserved.
</metadata>
<defs>
<font id="PlaytimeWithHotToddies" horiz-adv-x="548" >
  <font-face 
    font-family="Playtime With Hot Toddies"
    font-weight="400"
    font-stretch="normal"
    units-per-em="1000"
    panose-1="2 0 6 6 2 0 0 2 0 4"
    ascent="800"
    descent="-200"
    x-height="412.504"
    cap-height="698.001"
    bbox="-108.362 -293.663 1033.3 944"
    underline-thickness="50"
    underline-position="-50"
    unicode-range="U+000D-U+2122"
  />
<missing-glyph horiz-adv-x="500" 
d="M62 0v944h376v-944h-376zM125 62h250v819h-250v-819z" />
    <glyph glyph-name=".notdef" horiz-adv-x="500" 
d="M62 0v944h376v-944h-376zM125 62h250v819h-250v-819z" />
    <glyph glyph-name="dotlessi" unicode="&#xd;" horiz-adv-x="198" 
d="M59 331c0 6 0.333008 14.166 1 24.499s1.33398 17.5 2.00098 21.5c4 0 11.167 0.666992 21.5 2s17.5 1.33301 21.5 0c6.66699 -0.666992 13.334 -2 20.001 -4s12.667 -3.33301 18 -4c1.33301 -6 2.33301 -17.833 3 -35.5s1 -38.167 1 -61.5
s-0.166992 -48.166 -0.5 -74.499s-0.833008 -51.333 -1.5 -75s-1.33398 -44.334 -2.00098 -62.001s-1.33398 -29.5 -2.00098 -35.5s-5.16699 -10.167 -13.5 -12.5s-17.5 -3.66602 -27.5 -3.99902s-19.667 0 -29 1s-15.333 1.5 -18 1.5c0 6 0.166992 17.167 0.5 33.5
s0.833008 35.5 1.5 57.5s1.16699 45.167 1.5 69.5s0.833008 47.333 1.5 69s1 40.5 1 56.5v32z" />
    <glyph glyph-name="space" unicode=" " horiz-adv-x="269" 
 />
    <glyph glyph-name="space" unicode="&#xa0;" horiz-adv-x="269" 
 />
    <glyph glyph-name="exclam" unicode="!" horiz-adv-x="238" 
d="M91 13c-12.667 6.66699 -21.1689 15.667 -25.502 27s-5.16602 22.833 -2.49902 34.5s8.16699 22 16.5 31s18.833 14.5 31.5 16.5c18 2.66699 32.5 -0.5 43.5 -9.5s17.667 -20 20 -33s0.333008 -26.333 -6 -40s-18.166 -24.167 -35.499 -31.5
c-9.33301 -4 -17.333 -5 -24 -3s-12.667 4.66699 -18 8zM145.998 246c0 -6 -0.500977 -14.1689 -1.50098 -24.502s-1.83301 -17.166 -2.5 -20.499c-4 0 -8.83301 -0.5 -14.5 -1.5s-10.5 -0.833008 -14.5 0.5c-6.66699 0.666992 -10.667 1.66699 -12 3s-5 2.33301 -11 3
c-1.33301 6 -2.83301 21.333 -4.5 46s-3.33398 54 -5.00098 88s-3.16699 70.333 -4.5 109s-2.33301 75 -3 109s-1.16699 63.333 -1.5 88s-0.166016 40 0.500977 46s6 10.833 16 14.5s21 6 33 7s22.833 0.833008 32.5 -0.5s14.834 -4 15.501 -8c0 -6 -0.5 -20.667 -1.5 -44
s-2.5 -51.166 -4.5 -83.499s-3.83301 -66.833 -5.5 -103.5s-3.5 -71 -5.5 -103s-3.5 -59.5 -4.5 -82.5s-1.5 -37.167 -1.5 -42.5z" />
    <glyph glyph-name="quotedbl" unicode="&#x22;" horiz-adv-x="350" 
d="M161 726l-1.00195 -1.00098c0 -23.333 -1 -47.333 -3 -72s-3.66699 -52.667 -5 -84c-4 -1.33301 -9 -1.66602 -15 -0.999023s-10.667 1.66699 -14 3c-8 -2.66699 -14 -3 -18 -1s-9.66699 3.66699 -17 5c-1.33301 10.667 -2.66602 24.5 -3.99902 41.5
s-2.16602 34.5 -2.49902 52.5s0.166992 35.167 1.5 51.5s4 29.166 8 38.499c13.333 1.33301 25.333 1.83301 36 1.5s21 -3.16602 31 -8.49902zM297.998 725.999l-1.00195 -1.00098c-0.666992 -23.333 -1.83398 -47.333 -3.50098 -72s-3.16699 -52.667 -4.5 -84
c-4 -1.33301 -9.16699 -1.66602 -15.5 -0.999023s-11.166 1.66699 -14.499 3c-7.33301 -2.66699 -13 -3 -17 -1s-9.66699 3.66699 -17 5c-1.33301 10.667 -2.66602 24.5 -3.99902 41.5s-2.16602 34.5 -2.49902 52.5s0 35.167 1 51.5s3.5 29.166 7.5 38.499
c13.333 1.33301 25.333 1.83301 36 1.5s21 -3.16602 31 -8.49902z" />
    <glyph glyph-name="numbersign" unicode="#" 
d="M297 247l7 42.999c2.66699 16 5.66699 32.667 9 50c-12 -0.666992 -24 -1 -36 -1h-36l-8 -46c-2.66699 -15.333 -5.66699 -30.666 -9 -45.999h73v0zM421 537.999c0.666992 -5.33301 -0.674805 -18.9893 -4.00781 -40.9893s-7.66602 -49 -12.999 -81
c19.333 -0.666992 37 -1.16699 53 -1.5s27.667 -1.16602 35 -2.49902c2 -2.66699 3 -7.5 3 -14.5s-0.666992 -14.333 -2 -22s-3 -14.334 -5 -20.001s-3.33301 -8.83398 -4 -9.50098c-4.66699 -1.33301 -15.334 -2.33301 -32.001 -3s-36.667 -1.33398 -60 -2.00098
c-3.33301 -16 -6.33301 -32 -9 -48s-5.66699 -31.667 -9 -47c19.333 -0.666992 36.666 -1.16699 51.999 -1.5s26.666 -1.16602 33.999 -2.49902c2 -2.66699 3 -7.5 3 -14.5s-0.5 -14.333 -1.5 -22s-2.5 -14.334 -4.5 -20.001s-3.33301 -8.83398 -4 -9.50098
c-4.66699 -1.33301 -15.5 -2.33301 -32.5 -3s-37.167 -1.33398 -60.5 -2.00098c-5.33301 -28 -9.66602 -52 -12.999 -72s-5.33301 -33 -6 -39c-9.33301 -7.33301 -18.166 -11.666 -26.499 -12.999s-20.833 -1.33301 -37.5 0c-3.33301 2 -5.16602 7.5 -5.49902 16.5
s0 19.5 1 31.5s2.66699 24.667 5 38l6.5 37c-12.667 -0.666992 -25.167 -1 -37.5 -1h-36.5c-5.33301 -28 -9.66602 -51.667 -12.999 -71s-5.33301 -32 -6 -38c-9.33301 -7.33301 -18.166 -11.666 -26.499 -12.999s-20.833 -1.33301 -37.5 0
c-3.33301 2 -5.16602 7.33301 -5.49902 16s0 19 1 31s2.66699 24.667 5 38l6.5 37h-80c-5.33301 7.33301 -7.83301 15.166 -7.5 23.499s2.5 21.166 6.5 38.499c2.66699 3.33301 7.5 6 14.5 8s15 3.5 24 4.5s18.333 1.66699 28 2s18.834 0.5 27.501 0.5l7 43
c2.66699 16 5.66699 32.667 9 50h-78c-5.33301 7.33301 -7.83301 15.166 -7.5 23.499s2.83301 21.166 7.5 38.499c2.66699 3.33301 7.33398 6 14.001 8s14.5 3.5 23.5 4.5s18.333 1.66699 28 2s18.834 0.5 27.501 0.5l14.5 71.5c4.33301 21 8.16602 35.833 11.499 44.5
c3.33301 2.66699 8.5 4.66699 15.5 6s14.333 2.16602 22 2.49902s14.334 0.166016 20.001 -0.500977s8.83398 -1.33398 9.50098 -2.00098c0.666992 -5.33301 -0.666016 -18.833 -3.99902 -40.5l-13 -80.5h74l14.5 71c4.33301 20.667 8.16602 35.334 11.499 44.001
c3.33301 2.66699 8.5 4.66699 15.5 6s14.333 2.16602 22 2.49902s14.5 0.166016 20.5 -0.500977s9.33301 -1.33398 10 -2.00098h-1z" />
    <glyph glyph-name="dollar" unicode="$" horiz-adv-x="593" 
d="M352 114c-1.33301 -10.667 -2.49609 -24.502 -3.49609 -41.502l-3.5 -59.5c-3.33301 -1.33301 -8.16602 -1.66602 -14.499 -0.999023s-11.166 1.66699 -14.499 3c-7.33301 -2.66699 -13 -3 -17 -1s-10 3.66699 -18 5c-0.666992 4 -1.16699 9.66699 -1.5 17
s-0.833008 14.833 -1.5 22.5s-1.16699 15.167 -1.5 22.5s-0.5 13.333 -0.5 18h-33c-23.333 1.33301 -45.333 6.83301 -66 16.5s-40.667 21.5 -60 35.5c2 7.33301 3.66699 15.833 5 25.5s3 19.334 5 29.001s4.5 19.167 7.5 28.5s7.16699 17.333 12.5 24l15 -15
c4.66699 -6 10.667 -12.167 18 -18.5s15.166 -12.166 23.499 -17.499s16.666 -9.66602 24.999 -12.999s15.833 -5 22.5 -5c41.333 -1.33301 74.166 4.83398 98.499 18.501s36.166 31.5 35.499 53.5c-0.666992 9.33301 -4.83398 17.166 -12.501 23.499
s-14.167 11.166 -19.5 14.499c-12 6.66699 -25.333 12.167 -40 16.5l-44 12.5c-14.667 4 -29.167 8.83301 -43.5 14.5s-26.833 13.5 -37.5 23.5s-19.334 22.833 -26.001 38.5s-10 35.5 -10 59.5c0 21.333 4 40.833 12 58.5s18.833 33.5 32.5 47.5s29.167 26.167 46.5 36.5
s35.666 18.5 54.999 24.5c-0.666992 6.66699 -1 14.667 -1 24s0.333008 18.666 1 27.999s1.66699 18.166 3 26.499s3.33301 15.5 6 21.5c13.333 1.33301 25.166 2 35.499 2s20.5 -2.66699 30.5 -8l4 -25l-1 -1c0 -8 -0.166992 -18 -0.5 -30s-0.833008 -20.333 -1.5 -25
c24 1.33301 45 -1.33398 63 -8.00098c4 -1.33301 9 -3.16602 15 -5.49902s10.667 -4.83301 14 -7.5c2.66699 -8.66699 2.33398 -16.167 -0.999023 -22.5s-5.66602 -13.833 -6.99902 -22.5c-1.33301 -1.33301 -2.33301 -4.16602 -3 -8.49902l-2 -13.5
c-0.666992 -4.66699 -1.16699 -9 -1.5 -13s-1.16602 -6 -2.49902 -6c-6.66699 -1.33301 -13.667 -0.833008 -21 1.5s-14.333 3.83301 -21 4.5c-14.667 1.33301 -30.5 1.83301 -47.5 1.5s-33.5 -3 -49.5 -8s-30.5 -12.833 -43.5 -23.5s-22.5 -25.334 -28.5 -44.001l-1 -3
c0.666992 -8 3.16699 -15.5 7.5 -22.5s9.5 -13 15.5 -18s12.5 -9.16699 19.5 -12.5s13.5 -5.33301 19.5 -6c14.667 -2 29.667 -5 45 -9s29.666 -8.5 42.999 -13.5s25.5 -10.167 36.5 -15.5s19.5 -11 25.5 -17c10.667 -10 17.167 -19.667 19.5 -29
s4.83301 -21.666 7.5 -36.999c4 -24 3.16699 -45.5 -2.5 -64.5s-14.5 -35.5 -26.5 -49.5s-26.333 -25.667 -43 -35s-34 -17 -52 -23z" />
    <glyph glyph-name="percent" unicode="%" horiz-adv-x="705" 
d="M498 718c18 4.66699 35.668 5.33594 53.001 2.00293s29 -11 35 -23c-54 -83.333 -101.833 -169.333 -143.5 -258l-128.5 -267l-18.5 -36.5l-20 -40l-23.5 -47.5l-29 -60c-4 0.666992 -10.333 1.5 -19 2.5s-17.5 2.16699 -26.5 3.5s-17.333 3.16602 -25 5.49902
s-12.5 5.16602 -14.5 8.49902c4 10 11.333 27 22 51l38.5 86l50 109l57 119.5l58.5 118.5c19.333 38.667 37.666 73.667 54.999 105s32.833 57.666 46.5 78.999s24.5 35.333 32.5 42zM550.001 391.002c14 1.33301 28.3311 0.166016 42.998 -3.50098
s28.334 -11.167 41.001 -22.5c20 -17.333 35 -39 45 -65s15.667 -53 17 -81s-1.66699 -56 -9 -84s-18.166 -52.833 -32.499 -74.5s-31.833 -39 -52.5 -52s-44 -18.5 -70 -16.5c-9.33301 0.666992 -19.666 3.33398 -30.999 8.00098c-32 14 -56.167 36.5 -72.5 67.5
s-25 64.5 -26 100.5s5.33301 71.5 19 106.5s34.167 63.167 61.5 84.5c5.33301 4.66699 11.166 9.16699 17.499 13.5s12.5 7.83301 18.5 10.5c12 5.33301 22.333 8 31 8zM625.999 217.002c0 29.333 -6.16797 53.168 -18.501 71.501s-26.5 28.666 -42.5 30.999
s-32.167 -4.5 -48.5 -20.5s-28.5 -43 -36.5 -81c-1.33301 -5.33301 -2.5 -11 -3.5 -17s-1.5 -12.333 -1.5 -19c0 -11.333 0.833008 -23 2.5 -35s4.16699 -23 7.5 -33c7.33301 -19.333 18.833 -31.5 34.5 -36.5s31.334 -3.16699 47.001 5.5s29.5 24.167 41.5 46.5
s18 51.5 18 87.5zM156.998 715.004c14 1.33301 28.167 0.166016 42.5 -3.50098s27.833 -11.167 40.5 -22.5c20 -18 35 -39.833 45 -65.5s15.667 -52.667 17 -81s-1.66699 -56.5 -9 -84.5s-18.166 -52.833 -32.499 -74.5s-31.833 -39 -52.5 -52s-44 -18.5 -70 -16.5
c-5.33301 0.666992 -10.5 1.83398 -15.5 3.50098s-10.167 3.5 -15.5 5.5c-32 14 -56.167 36.5 -72.5 67.5s-25 64.5 -26 100.5s5.33301 71.5 19 106.5s34.167 63.167 61.5 84.5c5.33301 4.66699 11.166 9 17.499 13s12.833 7.66699 19.5 11c10.667 5.33301 21 8 31 8z
M231.998 541.004c0 29.333 -6 53.167 -18 71.5s-26.167 28.666 -42.5 30.999s-32.5 -4.5 -48.5 -20.5s-28 -43 -36 -81c-1.33301 -5.33301 -2.5 -11.166 -3.5 -17.499s-1.5 -12.5 -1.5 -18.5c0 -11.333 0.666992 -23 2 -35s3.66602 -23 6.99902 -33
c7.33301 -19.333 18.833 -31.5 34.5 -36.5s31.334 -3.16699 47.001 5.5s29.5 24.167 41.5 46.5s18 51.5 18 87.5z" />
    <glyph glyph-name="ampersand" unicode="&#x26;" horiz-adv-x="700" 
d="M285 611c-4.66699 -4 -9.33594 -7.16992 -14.0029 -9.50293s-9 -6.16602 -13 -11.499c-6.66699 -8 -11.167 -17.5 -13.5 -28.5s-2.83301 -22 -1.5 -33s4.5 -21.5 9.5 -31.5s12.167 -18 21.5 -24c22 8.66699 43 20 63 34c10.667 7.33301 20.5 16.333 29.5 27
s13.5 22.334 13.5 35.001c0 19.333 -7.16699 33 -21.5 41s-31.166 10.667 -50.499 8c-3.33301 -0.666992 -7.16602 -1.66699 -11.499 -3s-8.16602 -2.66602 -11.499 -3.99902zM484.998 93.9971c-20 -16 -41.332 -30.4971 -63.999 -43.4971s-46.167 -23.5 -70.5 -31.5
s-49 -13.333 -74 -16s-49.167 -1.33398 -72.5 3.99902c-9.33301 2 -20.666 5.66699 -33.999 11s-23.666 11.666 -30.999 18.999c-4 0.666992 -8.16699 2.83398 -12.5 6.50098s-8.83301 7.83398 -13.5 12.501s-8.83398 9.5 -12.501 14.5s-6.83398 9.5 -9.50098 13.5
c-16.667 26 -25 55 -25 87c0 26 2 48.833 6 68.5s9.83301 37.5 17.5 53.5s17.167 31.167 28.5 45.5s24.333 29.166 39 44.499c6.66699 7.33301 15.5 16.5 26.5 27.5s19.167 18.833 24.5 23.5c-2.66699 6.66699 -5 11.334 -7 14.001c-6.66699 8.66699 -12.5 16.667 -17.5 24
s-9.16699 16 -12.5 26c-7.33301 18.667 -10.666 36.667 -9.99902 54c0.666992 16 2.66699 31 6 45s9 25.667 17 35c16.667 20 36.5 34.667 59.5 44s46.833 14 71.5 14s49 -4.33301 73 -13s46 -21 66 -37c5.33301 -4.66699 9.66602 -10.667 12.999 -18s6 -14.833 8 -22.5
s3.33301 -14.667 4 -21s0.666992 -10.5 0 -12.5c-3.33301 -17.333 -9 -34 -17 -50s-19.667 -28.667 -35 -38l-1 -1l-21 -13.5l-25 -15.5l-26 -16c-8.66699 -5.33301 -16.334 -10.333 -23.001 -15l32.5 -41.5l50.5 -62l62.5 -74l67.5 -77c22.667 -25 45 -48.333 67 -70
s42 -39.834 60 -54.501c-1.33301 -4 -5.5 -7.83301 -12.5 -11.5s-14.833 -7.33398 -23.5 -11.001s-17.167 -6.83398 -25.5 -9.50098s-14.166 -4.66699 -17.499 -6c-20.667 14.667 -39.834 30.167 -57.501 46.5zM257.999 366
c-13.333 -12.667 -23.999 -24.3359 -31.999 -35.0029l-18 -24c-7.33301 -9.33301 -14.666 -21.666 -21.999 -36.999s-13.166 -31.5 -17.499 -48.5s-6.66602 -34 -6.99902 -51s3.16699 -31.5 10.5 -43.5c9.33301 -16 21.166 -27.667 35.499 -35
s29.666 -11.166 45.999 -11.499s33.166 1.83398 50.499 6.50098s33.833 10.834 49.5 18.501s30 16.167 43 25.5s23.167 18.333 30.5 27c-3.33301 3.33301 -5 5.16602 -5 5.49902s2 -1.16699 6 -4.5l-49.5 59c-11.667 14 -20.834 24.667 -27.501 32l-15.5 17.5l-14 16.5
c-5.66699 6.66699 -13.167 16.167 -22.5 28.5z" />
    <glyph glyph-name="quotesingle" unicode="'" horiz-adv-x="196" 
d="M161 726l-1.00195 -1.00098c0 -23.333 -1 -47.333 -3 -72s-3.66699 -52.667 -5 -84c-4 -1.33301 -9 -1.66602 -15 -0.999023s-10.667 1.66699 -14 3c-8 -2.66699 -14 -3 -18 -1s-9.66699 3.66699 -17 5c-1.33301 10.667 -2.66602 24.5 -3.99902 41.5
s-2.16602 34.5 -2.49902 52.5s0.166992 35.167 1.5 51.5s4 29.166 8 38.499c13.333 1.33301 25.333 1.83301 36 1.5s21 -3.16602 31 -8.49902z" />
    <glyph glyph-name="parenleft" unicode="(" horiz-adv-x="317" 
d="M313 770c-0.666992 -3.33301 -3.66895 -8.16797 -9.00195 -14.501s-11.333 -13 -18 -20s-13.334 -13.667 -20.001 -20s-11.334 -11.166 -14.001 -14.499c-12 -13.333 -23.5 -28.666 -34.5 -45.999s-21.167 -35.5 -30.5 -54.5s-17.166 -38.333 -23.499 -58
s-10.833 -38.167 -13.5 -55.5c-3.33301 -21.333 -5.5 -42.833 -6.5 -64.5s-1.5 -43.167 -1.5 -64.5c0 -30 4 -61.667 12 -95s18.833 -66.166 32.5 -98.499s29.5 -63 47.5 -92s36.667 -53.833 56 -74.5c3.33301 -8.66699 3.5 -16.5 0.5 -23.5s-7.5 -13 -13.5 -18
s-13 -8.83301 -21 -11.5s-15.667 -4 -23 -4c-4 1.33301 -8.33301 3.5 -13 6.5s-9 6.16699 -13 9.5c-4.66699 3.33301 -9 7 -13 11c-11.333 7.33301 -21.166 16.666 -29.499 27.999s-15.833 23 -22.5 35l-22.5 42c-8.33301 16 -16.166 32.5 -23.499 49.5s-14 33.833 -20 50.5
s-10 31.334 -12 44.001l-12 77c-2 13.333 -3.83301 26.333 -5.5 39s-2.5 25.667 -2.5 39l-1 1c0.666992 43.333 5.16699 88.166 13.5 134.499s22.5 88.833 42.5 127.5c7.33301 14 16.833 29.167 28.5 45.5s24.334 32.666 38.001 48.999s27.667 31.666 42 45.999
s27.5 26.5 39.5 36.5c5.33301 2.66699 12 2.83398 20 0.500977s15.5 -6 22.5 -11s12.833 -10.5 17.5 -16.5s6.66699 -11 6 -15z" />
    <glyph glyph-name="parenright" unicode=")" horiz-adv-x="317" 
d="M44 -14c0.666992 3.33301 3.66699 8.16895 9 14.502s11.5 12.833 18.5 19.5l20 19.5c6.33301 6.33301 10.833 11.166 13.5 14.499c12 12.667 23.667 27.834 35 45.501s21.5 36 30.5 55s16.667 38.333 23 58s10.5 38.167 12.5 55.5c6 42.667 9 85.667 9 129
c0 30 -4 61.667 -12 95s-18.833 66.166 -32.5 98.499s-29.5 63 -47.5 92s-36.667 53.833 -56 74.5c-3.33301 8.66699 -3.66602 16.5 -0.999023 23.5s7.16699 13 13.5 18s13.5 8.83301 21.5 11.5s15.667 4 23 4c4 -1.33301 8.16699 -3.5 12.5 -6.5s8.5 -6.16699 12.5 -9.5
l13 -11c11.333 -8 21.333 -17.5 30 -28.5s16.334 -22.5 23.001 -34.5l22.5 -42c8.33301 -16 16.166 -32.5 23.499 -49.5s14 -33.833 20 -50.5s10 -31.334 12 -44.001l12 -77c2 -13.333 3.66699 -26.333 5 -39s2 -25.334 2 -38.001l1 -1c0 -44 -4.16699 -89.167 -12.5 -135.5
s-22.5 -88.833 -42.5 -127.5c-7.33301 -14 -16.833 -29.167 -28.5 -45.5s-24.334 -32.666 -38.001 -48.999s-27.667 -31.666 -42 -45.999s-27.5 -26.5 -39.5 -36.5c-5.33301 -2.66699 -12 -2.83398 -20 -0.500977s-15.5 6 -22.5 11s-13 10.667 -18 17
s-6.83301 11.5 -5.5 15.5z" />
    <glyph glyph-name="asterisk" unicode="*" horiz-adv-x="334" 
d="M197 695c0 -6.66699 -0.171875 -14.501 -0.504883 -23.501s-0.833008 -20.833 -1.5 -35.5c19.333 11.333 35.833 20.333 49.5 27s24.167 10.667 31.5 12c2.66699 -3.33301 5.33398 -7 8.00098 -11s5 -8 7 -12c3.33301 -8 5 -15.667 5 -23l-16 -14h-1h-1l-24.5 -14
l-37.5 -21l47.5 -30.5c13.667 -9 25.5 -16.5 35.5 -22.5c-0.666992 -2 -1.5 -3.66699 -2.5 -5s-2.16699 -2.66602 -3.5 -3.99902l-4 -3c-1.33301 -6 -3 -10 -5 -12s-4.66699 -5 -8 -9c-2 -1.33301 -3.66699 -3 -5 -5c-7.33301 3.33301 -17.666 8.5 -30.999 15.5l-48 26.5
c-1.33301 -20 -2.16602 -37.5 -2.49902 -52.5s-0.833008 -28.167 -1.5 -39.5c-2 -0.666992 -5 -0.333984 -9 0.999023l-5 2c-7.33301 -1.33301 -13 -1.66602 -17 -0.999023l-6 2c-2 0.666992 -4.66699 1.66699 -8 3c-1.33301 8 -2.16602 19.667 -2.49902 35
s-1.16602 34 -2.49902 56l-45 -24l-33 -18c-1.33301 1.33301 -2.66602 4.33301 -3.99902 9l-1 5c-3.33301 3.33301 -5.33301 6 -6 8s-1.66699 4 -3 6c-0.666992 2.66699 -1 5 -1 7s-0.666992 4.66699 -2 8c5.33301 4.66699 13.333 10.5 24 17.5l39 25.5
c-35.333 22.667 -57.333 39 -66 49c3.33301 9.33301 7.33301 17.666 12 24.999c4 6 9.33301 11.333 16 16l20 -8v1l1 -2l-1 1v-1c6 -3.33301 12.833 -7.5 20.5 -12.5l28.5 -18.5c1.33301 46 4 76.667 8 92c4.66699 0.666992 9.16699 1.16699 13.5 1.5s8.83301 0.5 13.5 0.5
c7.33301 -1.33301 14.666 -3.66602 21.999 -6.99902l3 -22v-1v0z" />
    <glyph glyph-name="plus" unicode="+" 
d="M308 518c0.666992 -3.33301 1.16699 -10.499 1.5 -21.499s0.5 -24.667 0.5 -41s-0.333008 -34.666 -1 -54.999l-2 -63.5c18 0 36.167 -0.166992 54.5 -0.5s35.5 -0.666016 51.5 -0.999023s30.333 -0.833008 43 -1.5s22 -1.33398 28 -2.00098
c2.66699 -2.66699 4.66699 -8 6 -16s2 -16.333 2 -25s-0.333008 -16.5 -1 -23.5s-1.33398 -10.833 -2.00098 -11.5c-3.33301 -1.33301 -10.666 -2.33301 -21.999 -3s-25.333 -1.16699 -42 -1.5s-35.334 -0.666016 -56.001 -0.999023s-42.334 -0.5 -65.001 -0.5
c-1.33301 -40.667 -2.66602 -77 -3.99902 -109s-2.33301 -52.333 -3 -61c-7.33301 -7.33301 -17 -11.5 -29 -12.5s-26.667 -1.16699 -44 -0.5c-4 2.66699 -6.83301 10.5 -8.5 23.5s-2.5 27.167 -2.5 42.5s0.5 30 1.5 44s1.5 24 1.5 30v42h-165
c-7.33301 7.33301 -11.5 16.833 -12.5 28.5s-0.833008 26.167 0.5 43.5c2.66699 4.66699 10.334 8 23.001 10s26.667 3.33301 42 4s30 1 44 1h30c4.66699 0 10.5 0.166992 17.5 0.5s15.167 0.5 24.5 0.5c0.666992 18 1.5 36.167 2.5 54.5s2 35.333 3 51s2 29.667 3 42
s2.16699 21.5 3.5 27.5c2.66699 2.66699 8 4.66699 16 6s16.333 2.16602 25 2.49902s16.5 0.166016 23.5 -0.500977s10.833 -1.33398 11.5 -2.00098z" />
    <glyph glyph-name="comma" unicode="," horiz-adv-x="244" 
d="M26 -64c7.33301 7.33301 14.1689 19.6689 20.502 37.002s12 35.666 17 54.999l14.5 54c4.66699 16.667 9 28 13 34c5.33301 4 12.333 6.16699 21 6.5s17 -0.333984 25 -2.00098s15.333 -3.66699 22 -6s10.667 -4.16602 12 -5.49902
c5.33301 -14 4.66602 -30.333 -2.00098 -49s-15.5 -37.334 -26.5 -56.001s-22.667 -35.667 -35 -51s-21.5 -26.333 -27.5 -33c-6.66699 1.33301 -12 1.33301 -16 0s-9.66699 -0.333008 -17 3c-4.66699 2 -10.334 3.66699 -17.001 5s-8 4 -4 8z" />
    <glyph glyph-name="hyphen" unicode="-" horiz-adv-x="392" 
d="M344 285c-4.66699 -1.33301 -14.334 -2.66895 -29.001 -4.00195s-31.667 -2.33301 -51 -3s-40 -1.33398 -62 -2.00098s-43 -1.16699 -63 -1.5s-37.833 -0.666016 -53.5 -0.999023s-27.167 -0.5 -34.5 -0.5c-7.33301 7.33301 -11.5 17 -12.5 29s-0.833008 26.667 0.5 44
c2.66699 4.66699 10.334 8 23.001 10s26.667 3.16699 42 3.5s30 0.5 44 0.5h30c11.333 0 24 0.333008 38 1l43 2c14.667 0.666992 28.834 0.833984 42.501 0.500977s26.167 -1.16602 37.5 -2.49902c2.66699 -2.66699 4.66699 -8 6 -16s2 -16.333 2 -25
s-0.333008 -16.5 -1 -23.5s-1.33398 -10.833 -2.00098 -11.5z" />
    <glyph glyph-name="period" unicode="." horiz-adv-x="244" 
d="M91 13c-12.667 6.66699 -21.1689 15.667 -25.502 27s-5.16602 22.833 -2.49902 34.5s8.16699 22 16.5 31s18.833 14.5 31.5 16.5c18 2.66699 32.5 -0.5 43.5 -9.5s17.667 -20 20 -33s0.333008 -26.333 -6 -40s-18.166 -24.167 -35.499 -31.5
c-9.33301 -4 -17.333 -5 -24 -3s-12.667 4.66699 -18 8z" />
    <glyph glyph-name="slash" unicode="/" horiz-adv-x="460" 
d="M360 718c18 4.66699 35.666 5.33594 52.999 2.00293s29 -11 35 -23c-54 -83.333 -101.833 -169.333 -143.5 -258l-128.5 -267l-18.5 -36.5l-20.5 -40l-24 -47.5l-29 -60c-4 0.666992 -10.167 1.5 -18.5 2.5s-17.166 2.16699 -26.499 3.5s-17.666 3.16602 -24.999 5.49902
s-12 5.16602 -14 8.49902c4 10 11.333 27 22 51l38.5 86l50 109l57 119.5l58.5 118.5c19.333 38.667 37.666 73.667 54.999 105s32.833 57.666 46.5 78.999s24.5 35.333 32.5 42z" />
    <glyph glyph-name="zero" unicode="0" horiz-adv-x="524" 
d="M302 682c4 0.666992 9.50293 0.503906 16.5029 -0.496094s14.333 -2.66699 22 -5s15 -4.83301 22 -7.5s12.167 -5.33398 15.5 -8.00098c20 -17.333 37.667 -36.833 53 -58.5s27.666 -45.834 36.999 -72.501c4 -11.333 7.66699 -24.333 11 -39
s6.16602 -29.667 8.49902 -45s4 -30.5 5 -45.5s1.5 -28.833 1.5 -41.5c0 -42.667 -5.33301 -86.167 -16 -130.5s-26.5 -84.5 -47.5 -120.5s-47 -65.5 -78 -88.5s-66.5 -34.5 -106.5 -34.5c-22.667 0 -45 3.33301 -67 10s-42.667 17 -62 31
c-18.667 13.333 -33.167 27.5 -43.5 42.5s-20.833 33.167 -31.5 54.5l-1 1c-6.66699 12 -12 26.167 -16 42.5s-7.16699 33.166 -9.5 50.499s-4 34.666 -5 51.999s-1.5 32.666 -1.5 45.999c-0.666992 28 1.5 57.833 6.5 89.5s12.833 62.167 23.5 91.5s24.167 56.5 40.5 81.5
s35.5 44.833 57.5 59.5c7.33301 6 17.666 12.5 30.999 19.5s27.833 13 43.5 18s31.5 8.33301 47.5 10s30.333 0.833984 43 -2.49902zM259.003 589.004c-26 -1.33301 -48.667 -9.49902 -68 -24.499s-35.5 -34.5 -48.5 -58.5s-23.167 -51 -30.5 -81s-12 -60 -14 -90
s-1.33301 -59.667 2 -89s11.333 -57 24 -83c12 -26 29.667 -44.167 53 -54.5s47 -13.833 71 -10.5c28 4 50.5 13.333 67.5 28s32.5 36.334 46.5 65.001c10.667 21.333 19 46 25 74s9.5 56.833 10.5 86.5s-0.833008 59 -5.5 88s-12.5 54.667 -23.5 77
s-25.5 40.166 -43.5 53.499s-40 19.666 -66 18.999z" />
    <glyph glyph-name="one" unicode="1" horiz-adv-x="295" 
d="M269 672c-5.33301 -33.333 -9.66797 -63.168 -13.001 -89.501s-5.83301 -50.833 -7.5 -73.5s-2.66699 -44.167 -3 -64.5s-0.333008 -41.333 0 -63s0.666016 -45 0.999023 -70s0.833008 -53.167 1.5 -84.5l2 -213c-3.33301 -2.66699 -7.33301 -5 -12 -7
c-4 -1.33301 -8.66699 -2.66602 -14 -3.99902s-11.666 -1.33301 -18.999 0c-2 0 -5.83301 0.5 -11.5 1.5l-19 3.5c-7 1.33301 -13.5 2.83301 -19.5 4.5s-10 2.5 -12 2.5c-2 15.333 -3.5 33.333 -4.5 54s-1.5 42 -1.5 64s0.166992 43.5 0.5 64.5s0.833008 39.5 1.5 55.5h1
c1.33301 14.667 2.16602 27.834 2.49902 39.501s0.333008 23 0 34l-1 34c-0.333008 11.667 -0.166016 24.834 0.500977 39.501c0.666992 20 1.83398 42.833 3.50098 68.5s2.83398 49.167 3.50098 70.5c-16 -9.33301 -31.333 -17.666 -46 -24.999l-35 -18
c-9.33301 4 -17 11.167 -23 21.5s-12.333 23.166 -19 38.499c0.666992 5.33301 3 10.5 7 15.5s8.83301 9.66699 14.5 14s11.5 8.16602 17.5 11.499s11.667 6.33301 17 9l66 36c25.333 14 48.666 24.667 69.999 32c9.33301 2.66699 19.5 3.16699 30.5 1.5
s17.833 -2.83398 20.5 -3.50098z" />
    <glyph glyph-name="two" unicode="2" horiz-adv-x="549" 
d="M34 101c22.667 21.333 46.499 41.1641 71.499 59.4971s49.167 38.166 72.5 59.499l69 64c26 24.667 50.667 50.667 74 78s43.166 55.5 59.499 84.5s24.5 57.167 24.5 84.5c0 8.66699 -2 16.667 -6 24c-7.33301 14 -17.833 23.167 -31.5 27.5s-27.834 6.5 -42.501 6.5v-1
c-8.66699 0 -21.167 -0.666992 -37.5 -2s-35.333 -5.5 -57 -12.5s-45.667 -17.667 -72 -32s-53.833 -34.5 -82.5 -60.5c-3.33301 2 -6.83301 5.16699 -10.5 9.5s-7.33398 9 -11.001 14l-10.5 15c-3.33301 5 -6 8.83301 -8 11.5c0 8 2.16699 16 6.5 24
s9.83301 15.667 16.5 23s13.667 14 21 20l20 17c5.33301 4.66699 10.833 9.16699 16.5 13.5s11.5 8.5 17.5 12.5c20 14 44 25.5 72 34.5s56.667 14.167 86 15.5s57.5 -1.83398 84.5 -9.50098s49.5 -21.167 67.5 -40.5c12 -13.333 20.833 -27.166 26.5 -41.499
s10.834 -29.833 15.501 -46.5c8.66699 -31.333 9.33398 -61.833 2.00098 -91.5s-19.333 -57.667 -36 -84s-36 -51.166 -58 -74.499s-43.667 -44 -65 -62c-25.333 -21.333 -49.666 -43.333 -72.999 -66s-45.666 -46.334 -66.999 -71.001c11.333 0 22.333 0.5 33 1.5
s21.667 1.5 33 1.5c32 0 66.833 -0.833008 104.5 -2.5s72.5 0.166016 104.5 5.49902c6.66699 -3.33301 9.33398 -7.5 8.00098 -12.5s-0.333008 -10.833 3 -17.5c0 -7.33301 0.5 -14.666 1.5 -21.999s1.5 -14.5 1.5 -21.5s-0.833008 -13.667 -2.5 -20
s-5.5 -11.833 -11.5 -16.5c-14 -1.33301 -28.667 -1.83301 -44 -1.5s-30 0.833008 -44 1.5c-17.333 0.666992 -36.5 1.33398 -57.5 2.00098s-40.5 1.66699 -58.5 3c-5.33301 0.666992 -11 0.333984 -17 -0.999023s-11.667 -1.66602 -17 -0.999023
c-14.667 1.33301 -30.667 1.83301 -48 1.5s-34.833 -0.833008 -52.5 -1.5l-52 -2c-17 -0.666992 -32.5 -1 -46.5 -1c-9.33301 26.667 -12.333 47.334 -9 62.001s8.66602 27.667 15.999 39z" />
    <glyph glyph-name="three" unicode="3" horiz-adv-x="565" 
d="M390 320c-1.33301 0.666992 -2.33496 1.33008 -3.00195 1.99707s-1.66699 1 -3 1c-8.66699 7.33301 -19.834 13 -33.501 17s-28.167 6.5 -43.5 7.5s-30.333 1 -45 0s-27 -2.5 -37 -4.5c-2 -0.666992 -5.83301 -1 -11.5 -1h-17.5h-17.5h-11.5
c-1.33301 0 -2 4.16699 -2 12.5s0.333008 17.5 1 27.5s1.16699 19.333 1.5 28s-0.166992 13.667 -1.5 15c2.66699 0.666992 6.16699 1.16699 10.5 1.5s9 0.5 14 0.5h14.5c4.66699 0 8.33398 0.333008 11.001 1c14.667 4 33.5 9.5 56.5 16.5s45.333 15.5 67 25.5
s40.167 21.833 55.5 35.5s23 29.167 23 46.5c0 10.667 -3.33301 19.334 -10 26.001s-14.667 12 -24 16c-15.333 6 -32.166 9.5 -50.499 10.5s-35.166 -0.166992 -50.499 -3.5c-4 -1.33301 -9 -2.33301 -15 -3s-12.167 -1.5 -18.5 -2.5s-12.333 -2 -18 -3
s-9.83398 -2.16699 -12.501 -3.5c-7.33301 -2.66699 -13.833 -5.16699 -19.5 -7.5l-16.5 -7l-16.5 -7c-5.66699 -2.33301 -12.167 -5.16602 -19.5 -8.49902l-24 -10.5l-26 -11.5c-8 -3.33301 -14.333 -1.16602 -19 6.50098s-8.33398 17 -11.001 28s-4.5 21.667 -5.5 32
s-1.16699 16.5 -0.5 18.5c10 6.66699 22 13.5 36 20.5s28.167 13.667 42.5 20s27.833 11.833 40.5 16.5s22.667 8 30 10c15.333 4.66699 31 8.16699 47 10.5s32.667 2.83301 50 1.5l1 1c19.333 -2 38.5 -5 57.5 -9s36.5 -10.167 52.5 -18.5s30.5 -19.166 43.5 -32.499
s23.167 -29.666 30.5 -48.999c6.66699 -16.667 10.167 -31.334 10.5 -44.001s-1.5 -27 -5.5 -43c-3.33301 -12.667 -9.16602 -24.334 -17.499 -35.001s-17.833 -20.167 -28.5 -28.5s-22 -16 -34 -23s-23.333 -13.167 -34 -18.5c20.667 -6 38.667 -12.833 54 -20.5
s28.833 -16.5 40.5 -26.5s21.167 -21.667 28.5 -35s13.333 -29 18 -47c5.33301 -69.333 -8.83398 -127.5 -42.501 -174.5s-85.167 -78.167 -154.5 -93.5c-20.667 -4 -40 -5.66699 -58 -5c-6.66699 0 -13.167 0.333008 -19.5 1l-19.5 2
c-17.333 1.33301 -38.166 6.5 -62.499 15.5s-47.833 18.5 -70.5 28.5c-26.667 12 -53.667 25 -81 39c0 1.33301 0.333008 4.33301 1 9s1.33398 9.66699 2.00098 15s1.33398 10.166 2.00098 14.499s1.33398 7.16602 2.00098 8.49902c4 12 8 20.833 12 26.5s8 12.167 12 19.5
c4 -1.33301 11.5 -5.16602 22.5 -11.499l38 -21.5c14.333 -8 29.166 -15.667 44.499 -23s29.666 -12.666 42.999 -15.999c28 -10.667 55.167 -14.667 81.5 -12s50 9.66699 71 21s38.833 25.833 53.5 43.5s24.5 36.167 29.5 55.5s4.5 38.333 -1.5 57s-19 35 -39 49z" />
    <glyph glyph-name="four" unicode="4" horiz-adv-x="553" 
d="M348 243c0.666992 8 0.999023 15.667 0.999023 23v19h1c4 58 6 116.667 6 176c0 14 0.5 28.167 1.5 42.5s1.83301 28.833 2.5 43.5c-17.333 -26.667 -35.666 -53.5 -54.999 -80.5l-56.5 -79.5l-51.5 -74.5c-16 -23.667 -29.333 -45.5 -40 -65.5
c0.666992 -2 4.16699 -3.66699 10.5 -5s13.5 -2.5 21.5 -3.5s15.5 -1.5 22.5 -1.5h12.5c15.333 1.33301 34 2.33301 56 3s44.667 1.66699 68 3zM455.999 701c-2.66699 -75.333 -3.99805 -150.166 -3.99805 -224.499s-0.666992 -149.166 -2 -224.499
c8.66699 1.33301 18.167 2.5 28.5 3.5s20.833 1.16699 31.5 0.5c6 0 10.5 -2 13.5 -6s5 -8.83301 6 -14.5s1.16699 -11.667 0.5 -18s-1.66699 -11.833 -3 -16.5l-10 -38l-69 -3l-1 -22l-5 -137c-2 -2 -4.33301 -4 -7 -6c-2.66699 -1.33301 -6 -2.5 -10 -3.5
s-9.66699 -0.833008 -17 0.5c-2 -0.666992 -6 -0.333984 -12 0.999023s-12.333 2.83301 -19 4.5s-13 3.16699 -19 4.5s-10 2 -12 2c-3.33301 16.667 -4.83301 38.667 -4.5 66s1.16602 55.666 2.49902 84.999l-57 -2c-21.333 -0.666992 -41.833 -1 -61.5 -1h-60.5l-127 1
c-4.66699 2.66699 -8.33398 7 -11.001 13c-2 4.66699 -3.16699 11 -3.5 19s2.16699 18.333 7.5 31l7.5 15.5c2.33301 5 5.16602 9.83301 8.49902 14.5c12.667 20 26.834 40.833 42.501 62.5l47.5 65.5l48 65.5l46 61.5c14 18 26.333 34.667 37 50l31.5 45.5l32.5 48l40 58.5
c8.66699 2.66699 17.667 4.16699 27 4.5s18 0 26 -1s14.833 -2.16699 20.5 -3.5s9.16699 -2 10.5 -2z" />
    <glyph glyph-name="five" unicode="5" horiz-adv-x="525" 
d="M461 108c-6.66699 -13.333 -15.1709 -25.3232 -25.5039 -35.9902s-21.5 -20.334 -33.5 -29.001c-15.333 -11.333 -33.166 -22.166 -53.499 -32.499s-40.166 -17.166 -59.499 -20.499c-14 -2.66699 -30.833 -3.83398 -50.5 -3.50098s-39.667 2.16602 -60 5.49902
s-40 8.16602 -59 14.499s-34.5 14.5 -46.5 24.5l-30.5 27c-10.333 9.33301 -19.166 19.666 -26.499 30.999c-2 2.66699 -1.66699 6.33398 1 11.001s6 9.16699 10 13.5s8 8.16602 12 11.499s6.66699 5 8 5c3.33301 4 6 7.5 8 10.5s4 5.16699 6 6.5s4.66699 2.33301 8 3
s8 0.666992 14 0c10.667 -11.333 22 -20.333 34 -27s23.5 -11.834 34.5 -15.501s20.833 -6.16699 29.5 -7.5s15 -2 19 -2h31c15.333 0 31.166 1.83301 47.499 5.5s31.166 9.5 44.499 17.5c19.333 11.333 36.333 27.666 51 48.999s22 43.666 22 66.999
c0 12 -1.66699 23.667 -5 35s-9.66602 22 -18.999 32c-11.333 12 -27.166 20.667 -47.499 26s-37.833 8.66602 -52.5 9.99902v-1c-24 1.33301 -49.667 -1.16699 -77 -7.5s-51.666 -13.833 -72.999 -22.5c-1.33301 -0.666992 -4.66602 -1 -9.99902 -1
s-9.66602 -0.666992 -12.999 -2c-8 -2 -15.5 3.33301 -22.5 16s-9.83301 26.667 -8.5 42c3.33301 57.333 5.33301 105.833 6 145.5s1.5 72.167 2.5 97.5s3 44.166 6 56.499s8.5 19.5 16.5 21.5c27.333 -2.66699 57.5 -3 90.5 -1s62.833 3.33301 89.5 4
c10 0 21.333 0.166992 34 0.5s25.667 0.5 39 0.5s26.333 -0.333008 39 -1s24 -1.33398 34 -2.00098c8 -4.66699 13.5 -9.16699 16.5 -13.5s4.83301 -8.83301 5.5 -13.5s0.666992 -9.16699 0 -13.5s-1 -8.83301 -1 -13.5c0.666992 -14 0 -24.5 -2 -31.5s-4 -11.833 -6 -14.5
c-2.66699 -2.66699 -5.66699 -3.66699 -9 -3h-26.5c-13 0 -28.333 0.166992 -46 0.5s-36.167 0.5 -55.5 0.5s-37.5 -0.166992 -54.5 -0.5s-31.667 -0.833008 -44 -1.5s-20.166 -1.66699 -23.499 -3c-2.66699 -1.33301 -4 -3.83301 -4 -7.5s-0.333008 -7.16699 -1 -10.5
c-3.33301 -21.333 -5.33301 -45 -6 -71s-1.33398 -49.667 -2.00098 -71l5 -7c22.667 6.66699 45.667 11.5 69 14.5s46.333 2.83301 69 -0.5s44.667 -10.333 66 -21s41 -26.334 59 -47.001c16.667 -18.667 29.5 -38.667 38.5 -60s13.5 -44.333 13.5 -69
c2.66699 -10 3.16699 -21.5 1.5 -34.5s-4.33398 -25.333 -8.00098 -37s-7.33398 -22.167 -11.001 -31.5s-6.16699 -15.333 -7.5 -18z" />
    <glyph glyph-name="six" unicode="6" horiz-adv-x="562" 
d="M262 583c-12.667 -12 -23.6709 -22.8291 -33.0039 -32.4961s-17.333 -19.667 -24 -30s-12.334 -21.666 -17.001 -33.999s-9 -27.166 -13 -44.499c0.666992 0 0.833984 -1.66699 0.500977 -5s-0.5 -6.83301 -0.5 -10.5s-0.166992 -7 -0.5 -10
s-0.166016 -4.16699 0.500977 -3.5c8.66699 9.33301 18.667 17.5 30 24.5s22.666 13.167 33.999 18.5c14.667 7.33301 32.334 12.666 53.001 15.999s42 3.66602 64 0.999023s43.667 -8.66699 65 -18s40.166 -22.833 56.499 -40.5s29.166 -39.834 38.499 -66.501
s13.333 -59 12 -97c-2 -44 -10.5 -82.833 -25.5 -116.5s-34.167 -61.834 -57.5 -84.501s-49.5 -39.834 -78.5 -51.501s-58.5 -17.334 -88.5 -17.001s-59.333 6.5 -88 18.5s-54.167 30.167 -76.5 54.5s-40.166 54.833 -53.499 91.5s-20 79.667 -20 129l1 1
c0 38.667 3.5 77.167 10.5 115.5s17.833 74.666 32.5 108.999s34 66 58 95s53 53.5 87 73.5c4.66699 2.66699 11.834 6 21.501 10s19.834 7.83301 30.501 11.5s21 6.83398 31 9.50098l23 6c9.33301 2 19.833 3.5 31.5 4.5s22.834 1.66699 33.501 2s20.334 0.333008 29.001 0
s15 -0.833008 19 -1.5c8.66699 0 15.167 -3.66699 19.5 -11s7 -15.5 8 -24.5s0.5 -17.5 -1.5 -25.5s-5 -13.333 -9 -16c-44 -0.666992 -83.333 -4.5 -118 -11.5s-63 -20.167 -85 -39.5zM429.996 289.004c0 22 -5.66504 40.666 -16.998 55.999s-25.833 27 -43.5 35
s-37.167 12.167 -58.5 12.5s-42 -3.16699 -62 -10.5s-38 -19 -54 -35s-27.667 -36 -35 -60c-4 -13.333 -6.83301 -28 -8.5 -44s-1.83398 -30.667 -0.500977 -44c2 -18.667 6.16699 -35.834 12.5 -51.501s15.166 -28.5 26.499 -38.5s24.833 -17 40.5 -21
s33.5 -3.66699 53.5 1l27.5 6c9 2 17.833 5.66699 26.5 11c14.667 8.66699 27.667 20 39 34s21 29.333 29 46s14 33.834 18 51.501s6 34.834 6 51.501z" />
    <glyph glyph-name="seven" unicode="7" horiz-adv-x="524" 
d="M150 8c0 20.667 3.99707 46.3311 11.9971 76.998s18.667 63.834 32 99.501s28.333 72.667 45 111l50 110.5l48 98c15.333 30 28.666 55 39.999 75c-0.666992 2 -4.16699 3.66699 -10.5 5s-13.5 2.33301 -21.5 3s-15.5 1.16699 -22.5 1.5s-11.167 0.5 -12.5 0.5
c-28 -2 -55 -3.16699 -81 -3.5s-53 -2.16602 -81 -5.49902c-13.333 -1.33301 -24.5 -2.83301 -33.5 -4.5s-20.167 -2.16699 -33.5 -1.5c-6 0 -10.5 2 -13.5 6s-4.83301 8.83301 -5.5 14.5s-0.666992 11.5 0 17.5s1.33398 11.667 2.00098 17
c1.33301 11.333 2.5 19.666 3.5 24.999s2.16699 9 3.5 11c1.33301 2.66699 2.33301 3.33398 3 2.00098l173 6c20.667 0.666992 41 1 61 1h61l127 -1c4.66699 -3.33301 8.33398 -7.66602 11.001 -12.999c2 -5.33301 3.16699 -11.833 3.5 -19.5s-2.16699 -17.834 -7.5 -30.501
l-7.5 -15.5c-2.33301 -5 -5.16602 -9.83301 -8.49902 -14.5c-26 -40 -48.833 -80.333 -68.5 -121l-60.5 -126c-19.333 -41.333 -35.666 -81.166 -48.999 -119.499l-42 -122.5c-1.33301 -2.66699 -3.33301 -8.5 -6 -17.5s-5.66699 -18.5 -9 -28.5l-9.5 -28
c-3 -8.66699 -5.16699 -14.334 -6.5 -17.001c-6 -4.66699 -13.833 -7.5 -23.5 -8.5s-19.167 -1 -28.5 0s-17.333 3 -24 6s-10 6.5 -10 10.5z" />
    <glyph glyph-name="eight" unicode="8" horiz-adv-x="583" 
d="M492 568c8.66699 -20 12.166 -36.4971 10.499 -49.4971s-3.16699 -25.833 -4.5 -38.5c-0.666992 -7.33301 -4.66699 -15.833 -12 -25.5s-16 -19.5 -26 -29.5s-20 -19.333 -30 -28s-18 -15.334 -24 -20.001c1.33301 -2.66699 9.66602 -7.5 24.999 -14.5
s31.833 -17.5 49.5 -31.5s33.834 -32.667 48.501 -56s22 -52.666 22 -87.999c0 -3.33301 -0.333008 -6.83301 -1 -10.5s-1 -7.16699 -1 -10.5l-1 -1c-2 -30.667 -11.5 -58.334 -28.5 -83.001s-38 -45.5 -63 -62.5s-52.5 -29.833 -82.5 -38.5s-59 -12.334 -87 -11.001v-1
c-12 0.666992 -25 2 -39 4s-28.167 4.66699 -42.5 8s-28.166 7.66602 -41.499 12.999s-25 11.333 -35 18c-5.33301 3.33301 -10.166 7 -14.499 11s-9.16602 7.66699 -14.499 11c-10.667 7.33301 -19.667 15.666 -27 24.999c-6.66699 8.66699 -12.334 18 -17.001 28
s-8.66699 20 -12 30c-15.333 47.333 -16.166 89.166 -2.49902 125.499s37.5 69.833 71.5 100.5c5.33301 5.33301 11.333 10.5 18 15.5s13.334 8.83301 20.001 11.5c-8.66699 7.33301 -16.834 16.5 -24.501 27.5l-21.5 30.5c-19.333 28.667 -28.833 57.334 -28.5 86.001
s7.66602 55 21.999 79s34 44.5 59 61.5s52.167 28.167 81.5 33.5l33 6.5c11.333 2.33301 22.666 2.83301 33.999 1.5c35.333 -4 64.333 -10.833 87 -20.5s40.834 -20.667 54.501 -33s23.667 -25.166 30 -38.499s11.166 -25.333 14.499 -36zM383.999 587.003
c-10.667 9.33301 -22.333 15.999 -35 19.999s-26 6.33301 -40 7l-1 -1c-25.333 2 -49.833 -2.66699 -73.5 -14s-41.834 -26.166 -54.501 -44.499s-17.667 -38.333 -15 -60s17.667 -42.167 45 -61.5c15.333 -6 28 -8.83301 38 -8.5s23.333 1.16602 40 2.49902
c11.333 0.666992 24 4 38 10s27.167 13.5 39.5 22.5s22.833 19.333 31.5 31s13.334 23.834 14.001 36.501c0 4 -0.5 9 -1.5 15s-2.66699 12 -5 18s-5.33301 11.5 -9 16.5s-7.5 8.5 -11.5 10.5zM453 195.002c0 18.667 -5.5 35.3311 -16.5 49.998s-24.667 27 -41 37
s-34 17.833 -53 23.5s-36.5 8.83398 -52.5 9.50098c-22 1.33301 -40.333 -2.16699 -55 -10.5s-30 -19.166 -46 -32.499c-14 -11.333 -24.667 -24.833 -32 -40.5s-12 -32.5 -14 -50.5c-3.33301 -28 2 -51.167 16 -69.5s32.5 -31.833 55.5 -40.5s48.333 -12.5 76 -11.5
s53.5 6.66699 77.5 17s44.167 25.333 60.5 45s24.5 44.167 24.5 73.5z" />
    <glyph glyph-name="nine" unicode="9" horiz-adv-x="562" 
d="M306 109c12.667 11.333 23.668 22.168 33.001 32.501s17.333 21.333 24 33s12.334 24.167 17.001 37.5s9 28.333 13 45c-0.666992 0 -1 1.5 -1 4.5s0.166992 6.33301 0.5 10s0.5 7 0.5 10v4.5c-9.33301 -9.33301 -19.5 -17.333 -30.5 -24s-22.167 -12.667 -33.5 -18
c-14.667 -7.33301 -32.334 -12.5 -53.001 -15.5s-41.834 -3.33301 -63.501 -1s-43.167 8 -64.5 17s-40.166 22 -56.499 39s-29.333 38.667 -39 65s-13.5 57.833 -11.5 94.5c2.66699 58 16.5 106.667 41.5 146s55.5 68.833 91.5 88.5s74.667 29.5 116 29.5
s79.5 -10.5 114.5 -31.5s64.167 -52.667 87.5 -95s35 -95.833 35 -160.5l-1 -1c0 -38 -3.5 -76.167 -10.5 -114.5s-17.833 -75 -32.5 -110s-34 -67.167 -58 -96.5s-53 -53.666 -87 -72.999c-4.66699 -2.66699 -11.834 -5.83398 -21.501 -9.50098s-19.667 -7.16699 -30 -10.5
l-30 -9.5c-9.66699 -3 -17.167 -4.83301 -22.5 -5.5c-9.33301 -2 -19.833 -3.5 -31.5 -4.5s-23 -1.83301 -34 -2.5s-20.833 -1 -29.5 -1s-15 0.666992 -19 2c-8 0.666992 -14.167 4.5 -18.5 11.5s-7 14.833 -8 23.5s-0.5 17 1.5 25s5 13.333 9 16
c43.333 0.666992 82.5 4.16699 117.5 10.5s63.167 19.166 84.5 38.499zM139.001 410.002c2.66699 -22 10.5029 -39.999 23.5029 -53.999s28.667 -24.333 47 -31s38.166 -9.66699 59.499 -9s41.5 5.33398 60.5 14.001s35.5 21.167 49.5 37.5s23 36.5 27 60.5
c2.66699 13.333 4 27.666 4 42.999s-1.66699 29.666 -5 42.999c-4 18 -10.167 34.5 -18.5 49.5s-18.833 27.167 -31.5 36.5s-27 15.5 -43 18.5s-33.667 1.5 -53 -4.5l-27.5 -8c-9 -2.66699 -17.167 -6.66699 -24.5 -12c-13.333 -9.33301 -24.833 -21.166 -34.5 -35.499
s-17.334 -29.833 -23.001 -46.5s-9.33398 -33.834 -11.001 -51.501s-1.5 -34.5 0.5 -50.5z" />
    <glyph glyph-name="colon" unicode=":" horiz-adv-x="244" 
d="M91 13c-12.667 6.66699 -21.1689 15.667 -25.502 27s-5.16602 22.833 -2.49902 34.5s8.16699 22 16.5 31s18.833 14.5 31.5 16.5c18 2.66699 32.5 -0.5 43.5 -9.5s17.667 -20 20 -33s0.333008 -26.333 -6 -40s-18.166 -24.167 -35.499 -31.5
c-9.33301 -4 -17.333 -5 -24 -3s-12.667 4.66699 -18 8zM95.998 296c-12.667 6.66699 -21.1689 15.832 -25.502 27.499s-5.16602 23.334 -2.49902 35.001s8.16699 22 16.5 31s18.833 14.5 31.5 16.5c18 2.66699 32.5 -0.333008 43.5 -9s17.667 -19.667 20 -33
s0.333008 -27 -6 -41s-18.166 -24.667 -35.499 -32c-9.33301 -4 -17.333 -5 -24 -3s-12.667 4.66699 -18 8z" />
    <glyph glyph-name="semicolon" unicode=";" horiz-adv-x="244" 
d="M26 -64c7.33301 7.33301 14.1689 19.6689 20.502 37.002s12 35.666 17 54.999l14.5 54c4.66699 16.667 9 28 13 34c5.33301 4 12.333 6.16699 21 6.5s17 -0.333984 25 -2.00098s15.333 -3.66699 22 -6s10.667 -4.16602 12 -5.49902
c5.33301 -14 4.66602 -30.333 -2.00098 -49s-15.5 -37.334 -26.5 -56.001s-22.667 -35.667 -35 -51s-21.5 -26.333 -27.5 -33c-6.66699 1.33301 -12 1.33301 -16 0s-9.66699 -0.333008 -17 3c-4.66699 2 -10.334 3.66699 -17.001 5s-8 4 -4 8zM106.003 296.003
c-12.667 6.66699 -21.1689 15.832 -25.502 27.499s-5.16602 23.334 -2.49902 35.001s8.16699 22 16.5 31s18.833 14.5 31.5 16.5c18 2.66699 32.5 -0.333008 43.5 -9s17.667 -19.667 20 -33s0.333008 -27 -6 -41s-18.166 -24.667 -35.499 -32c-9.33301 -4 -17.333 -5 -24 -3
s-12.667 4.66699 -18 8z" />
    <glyph glyph-name="less" unicode="&#x3c;" 
d="M505 57c0 -12 -2.66504 -24.002 -7.99805 -36.002c-24 12 -48.5 23.5 -73.5 34.5l-74.5 33.5c-38 17.333 -75 35.666 -111 54.999l-110 57c-13.333 6.66699 -26.5 12.834 -39.5 18.501s-26.167 11.834 -39.5 18.501c0 14.667 -0.5 30 -1.5 46s0.166992 31 3.5 45
l218.5 104.5l218.5 104.5c8 4 16.333 4.33301 25 1c-1.33301 -12 -2 -25.333 -2 -40s-0.666992 -27.667 -2 -39c-7.33301 -3.33301 -13.833 -6.83301 -19.5 -10.5s-13.167 -8.16699 -22.5 -13.5c-6 -4 -14 -8.33301 -24 -13l-31 -14l-31 -13.5
c-10 -4.33301 -18.333 -8.16602 -25 -11.499c-36.667 -16.667 -70.834 -33.5 -102.501 -50.5s-65.834 -33.5 -102.501 -49.5c50.667 -25.333 102 -49 154 -71s103 -45.667 153 -71l29.5 -15.5c5.66699 -3 9.66699 -5.16699 12 -6.5l7 -4c2.33301 -1.33301 7.5 -4 15.5 -8
l-17 -51v0z" />
    <glyph glyph-name="equal" unicode="=" 
d="M489 336c-4.66699 -1.33301 -17.832 -2.50098 -39.499 -3.50098s-47.5 -1.66699 -77.5 -2s-62.333 -0.666016 -97 -0.999023s-67.334 -0.5 -98.001 -0.5h-80.5h-45.5c-7.33301 7.33301 -11.5 16.833 -12.5 28.5s-0.833008 26.167 0.5 43.5
c2.66699 4.66699 10.334 8 23.001 10s26.667 3.33301 42 4s30 1 44 1h30c7.33301 0 19 0.166992 35 0.5s34.167 0.5 54.5 0.5h64c22.333 0 43.5 -0.166992 63.5 -0.5s38 -1 54 -2s27.667 -1.83301 35 -2.5c2.66699 -2.66699 4.66699 -8 6 -16s2 -16.333 2 -25
s-0.333008 -16.5 -1 -23.5s-1.33398 -10.833 -2.00098 -11.5zM489.002 175.999c-4.66699 -1.33301 -17.832 -2.50098 -39.499 -3.50098s-47.5 -1.66699 -77.5 -2s-62.333 -0.666016 -97 -0.999023s-67.334 -0.5 -98.001 -0.5h-80.5h-45.5
c-7.33301 7.33301 -11.5 16.833 -12.5 28.5s-0.833008 26.167 0.5 43.5c2.66699 4.66699 10.334 8 23.001 10s26.667 3.33301 42 4s30 1 44 1h30c7.33301 0 19 0.166992 35 0.5s34.167 0.5 54.5 0.5h64c22.333 0 43.5 -0.166992 63.5 -0.5s38 -1 54 -2
s27.667 -1.83301 35 -2.5c2.66699 -2.66699 4.66699 -8 6 -16s2 -16.333 2 -25s-0.333008 -16.5 -1 -23.5s-1.33398 -10.833 -2.00098 -11.5z" />
    <glyph glyph-name="greater" unicode="&#x3e;" 
d="M66 57l-17 51.002c8 4 13.167 6.66699 15.5 8l7 4c2.33301 1.33301 6.33301 3.5 12 6.5l29.5 15.5c50 25.333 101 49 153 71s103.333 45.667 154 71c-36.667 16 -70.834 32.5 -102.501 49.5s-65.834 33.833 -102.501 50.5c-6.66699 3.33301 -15.167 7.16602 -25.5 11.499
l-31.5 13.5l-31 14c-10 4.66699 -18 9 -24 13c-9.33301 5.33301 -16.666 9.83301 -21.999 13.5s-11.666 7.16699 -18.999 10.5c-1.33301 11.333 -2 24.333 -2 39s-0.666992 28 -2 40c8.66699 3.33301 17 3 25 -1l218.5 -104.5l218.5 -104.5c3.33301 -14 4.5 -29 3.5 -45
s-1.5 -31.333 -1.5 -46c-13.333 -6.66699 -26.5 -12.834 -39.5 -18.501s-26.167 -11.834 -39.5 -18.501l-110 -57c-36 -19.333 -73 -37.666 -111 -54.999l-74.5 -33.5c-25 -11 -49.5 -22.5 -73.5 -34.5c-5.33301 12 -8 24 -8 36z" />
    <glyph glyph-name="question" unicode="?" horiz-adv-x="483" 
d="M229 206c-2 -4.66699 -7.32715 -7.83203 -15.9941 -9.49902s-18.167 -2 -28.5 -1s-20 3.83301 -29 8.5s-15.167 11.334 -18.5 20.001c-4 10.667 -6.33301 23.334 -7 38.001s0.166016 29.334 2.49902 44.001s6 28.667 11 42s10.833 24 17.5 32
c8 10 18.167 19.833 30.5 29.5s25.333 19 39 28l40.5 26.5l37 24c10 6.66699 20.5 15.334 31.5 26.001s19.167 22 24.5 34s6.33301 24 3 36s-14 23 -32 33c-13.333 7.33301 -26.666 11.666 -39.999 12.999s-27.333 1.33301 -42 0
c-30.667 -3.33301 -58.334 -9.83301 -83.001 -19.5s-47.334 -25.834 -68.001 -48.501c-5.33301 -5.33301 -10 -11.5 -14 -18.5s-8.66699 -13.167 -14 -18.5c-4 -1.33301 -8.5 1 -13.5 7s-9.83301 13.167 -14.5 21.5s-8.66699 16.666 -12 24.999s-6 14.166 -8 17.499
c12.667 22.667 29.167 42.167 49.5 58.5s42.666 29.5 66.999 39.5s50 17 77 21s53.5 5 79.5 3c20.667 -1.33301 42.167 -6.33301 64.5 -15s39.833 -21.667 52.5 -39c11.333 -15.333 20.166 -29.833 26.499 -43.5s9.83301 -29.834 10.5 -48.501
c1.33301 -25.333 -2.83398 -47.833 -12.501 -67.5s-22 -37.167 -37 -52.5s-31.667 -29 -50 -41l-52.5 -34.5c-16.667 -11 -31.334 -21.833 -44.001 -32.5s-21 -22 -25 -34c-1.33301 -4 -2.33301 -10.667 -3 -20s-1 -19.5 -1 -30.5s0.166992 -21.5 0.5 -31.5
s0.5 -17.333 0.5 -22zM159.006 14.002c-13.333 6.66699 -22.002 15.668 -26.002 27.001s-4.66699 22.833 -2 34.5s8.16699 22 16.5 31s18.833 14.5 31.5 16.5c18 2.66699 32.5 -0.5 43.5 -9.5s17.667 -20.167 20 -33.5s0.333008 -26.833 -6 -40.5
s-18.166 -24.167 -35.499 -31.5c-10 -4 -18.167 -4.83301 -24.5 -2.5s-12.166 5.16602 -17.499 8.49902z" />
    <glyph glyph-name="at" unicode="@" horiz-adv-x="741" 
d="M431 158c0 -0.666992 -0.162109 -0.834961 -0.495117 -0.501953s-0.5 0.833008 -0.5 1.5c-5.33301 -1.33301 -9.66602 -2.5 -12.999 -3.5l-10.5 -3c-3.66699 -1 -7.66699 -2.16699 -12 -3.5s-10.166 -2.66602 -17.499 -3.99902c-8 -1.33301 -16.333 -2.83301 -25 -4.5
s-17.334 -2.5 -26.001 -2.5c-2 0 -3.33301 -0.333008 -4 -1c-20 0.666992 -38.833 3 -56.5 7s-33.5 12.667 -47.5 26c-18 16 -26 36.333 -24 61v5l1 10c1.33301 14.667 7.16602 27.834 17.499 39.501s23 21.667 38 30s31.167 15.166 48.5 20.499s33.333 9 48 11
c15.333 2 30.666 2.83301 45.999 2.5s31.666 0.5 48.999 2.5c0 7.33301 0.333008 13.666 1 18.999s1 10.666 1 15.999c1.33301 10.667 1 21 -1 31c-3.33301 14.667 -10.333 25.167 -21 31.5s-22.834 9.83301 -36.501 10.5s-27.334 -0.833008 -41.001 -4.5
s-25.5 -8.16699 -35.5 -13.5c-11.333 -6.66699 -21.333 -14 -30 -22s-17 -16.333 -25 -25c-1.33301 1.33301 -3.16602 3 -5.49902 5s-4.83301 4.33301 -7.5 7c-2 1.33301 -4 2.83301 -6 4.5s-3.66699 3.16699 -5 4.5l-3 3c14 26.667 33.333 48.667 58 66
s50.5 28.5 77.5 33.5s53 3.5 78 -4.5s45.167 -24.333 60.5 -49c9.33301 -15.333 15.166 -34 17.499 -56s2.83301 -44.833 1.5 -68.5s-3.83301 -47.167 -7.5 -70.5l-9.5 -61c-1.33301 -6 -1 -10.333 1 -13s4 -4.33398 6 -5.00098c16 4.66699 29.5 10.167 40.5 16.5
s20.5 12.833 28.5 19.5c36 27.333 58 70 66 128c0.666992 3.33301 1 6.83301 1 10.5s0.333008 7.16699 1 10.5l1 16c1.33301 17.333 -0.333984 34.333 -5.00098 51s-11.667 32.667 -21 48c-5.33301 10 -11.333 19.5 -18 28.5s-14.334 17.5 -23.001 25.5l-13 9.5l-13 9.5
c-21.333 13.333 -44.833 23.333 -70.5 30s-53.5 10.334 -83.5 11.001c-86 2 -158 -26.333 -216 -85c-56 -56 -88 -127.667 -96 -215c-7.33301 -82.667 8 -150.667 46 -204c41.333 -57.333 102 -87 182 -89c4.66699 0 13.667 0.666992 27 2s28.166 3.16602 44.499 5.49902
s32.166 5 47.499 8s27.333 6.16699 36 9.5l38 15c14.667 6 29.334 12.833 44.001 20.5s28.334 15.5 41.001 23.5s22.667 16 30 24c14 -3.33301 23 -11.666 27 -24.999c-7.33301 -12.667 -17.833 -24.334 -31.5 -35.001s-28.5 -20.667 -44.5 -30s-32.333 -17.666 -49 -24.999
l-45 -20c-8.66699 -4 -20.667 -7.33301 -36 -10s-31 -4.83398 -47 -6.50098s-30.833 -3 -44.5 -4s-23.5 -1.83301 -29.5 -2.5c-3.33301 0 -6.5 -0.166992 -9.5 -0.5s-5.5 -0.5 -7.5 -0.5c-98.667 2 -174 36 -226 102c-49.333 62.667 -69.666 143.334 -60.999 242.001
c10 106 50.667 190.667 122 254c71.333 64.667 159 96 263 94c44 -1.33301 84.167 -7.83301 120.5 -19.5s71.5 -30.834 105.5 -57.501c1.33301 -1.33301 2.33301 -2.16602 3 -2.49902s1.66699 -1.16602 3 -2.49902c55.333 -48 79.333 -112.333 72 -193
c-8 -88 -41 -153.667 -99 -197l-16 -12c-4.66699 -3.33301 -9.66699 -6.66602 -15 -9.99902s-11.333 -6.66602 -18 -9.99902s-15 -7 -25 -11c-10 -4.66699 -20 -8.66699 -30 -12s-19.833 -5 -29.5 -5s-18.5 2.83301 -26.5 8.5s-14.667 15.167 -20 28.5zM421.005 303.999
c-2.66699 0 -4.66602 0.332031 -5.99902 0.999023c-17.333 0.666992 -32.333 -0.5 -45 -3.5s-27.334 -6.83301 -44.001 -11.5l-5 -1l-6 -3c-7.33301 -3.33301 -16.333 -8.5 -27 -15.5s-17 -15.833 -19 -26.5c-1.33301 -6 -1 -11.667 1 -17
c2.66699 -9.33301 12.334 -15.833 29.001 -19.5s34.667 -5.16699 54 -4.5s37.166 3.16699 53.499 7.5s25.166 9.83301 26.499 16.5c2.66699 10 4.5 21.5 5.5 34.5s2.16699 25.167 3.5 36.5c-2 2 -4.16699 3.33301 -6.5 4s-5.16602 1.33398 -8.49902 2.00098h-6z" />
    <glyph glyph-name="A" unicode="A" horiz-adv-x="595" 
d="M522 0l-7.50293 0.00195312c-3 0 -5.16699 0.666992 -6.5 2c-1.33301 0 -2.66602 0.5 -3.99902 1.5s-2.66602 1.83301 -3.99902 2.5c-8.66699 6.66699 -17 17.667 -25 33s-15.5 31.666 -22.5 48.999s-13.333 34.5 -19 51.5s-10.5 30.833 -14.5 41.5
c-2 4.66699 -4.33301 9.66699 -7 15l-38 -1c-10 -0.666992 -21.333 -0.166992 -34 1.5s-24 1.83398 -34 0.500977c-25.333 -3.33301 -48.666 -4.33301 -69.999 -3l-63 4l-15.5 -46c-6.33301 -18.667 -13.166 -37.667 -20.499 -57s-14.833 -37.833 -22.5 -55.5
s-14.834 -31.5 -21.501 -41.5h-15.5h-19.5c-6.66699 0 -13.167 0.166992 -19.5 0.5s-11.5 1.16602 -15.5 2.49902c-2.66699 4 -5 6.5 -7 7.5l-5 2.5c-1.33301 0.666992 -2.33301 1.5 -3 2.5s-1 3.16699 -1 6.5c0 2 0.333008 4.66699 1 8s1.5 7 2.5 11
s1.83301 7.66699 2.5 11s0.666992 5.66602 0 6.99902c2 10 4.66699 20.667 8 32s6.66602 22 9.99902 32c3.33301 13.333 7.5 26.666 12.5 39.999l15.5 40l27.5 70l27.5 70l52 129.5c17.333 43 35.666 85.5 54.999 127.5c6.66699 14.667 14.334 27.667 23.001 39
c5.33301 7.33301 11.333 13.833 18 19.5s12.667 11.834 18 18.501c4.66699 1.33301 8.83398 3.16602 12.501 5.49902s7.16699 5.16602 10.5 8.49902l11 2h-1c13.333 0 24.5 -1.83301 33.5 -5.5s16.5 -8 22.5 -13s10.833 -10.167 14.5 -15.5
s6.83398 -9.66602 9.50098 -12.999c8 -27.333 15.333 -54.5 22 -81.5s14 -54.5 22 -82.5c14.667 -52 30.167 -103.167 46.5 -153.5s33.833 -100.833 52.5 -151.5l25.5 -69c8.33301 -22.667 17.166 -45 26.499 -67l-20 -17c-1.33301 -0.666992 -4.16602 -2 -8.49902 -4
l-14.5 -6.5c-5.33301 -2.33301 -10.333 -4.66602 -15 -6.99902s-7.33398 -3.83301 -8.00098 -4.5zM383.997 296.002l-9.49707 39.5l-6.5 26.5c-2 8 -4.33301 16.833 -7 26.5l-11 39.5l-20 68c-2.66699 8.66699 -5.5 19.167 -8.5 31.5s-6.16699 23.166 -9.5 32.499
c-10.667 -22.667 -20.334 -44.667 -29.001 -66l-25 -63.5c-8 -21 -15.667 -42.333 -23 -64l-23 -68.5c5.33301 -1.33301 9 -2.33301 11 -3c6.66699 -1.33301 17.167 -2.66602 31.5 -3.99902s29.666 -2.5 45.999 -3.5s32.166 -1.5 47.499 -1.5s27 0.666992 35 2z" />
    <glyph glyph-name="B" unicode="B" horiz-adv-x="602" 
d="M80 21c-3.33301 41.333 -4.83594 82.668 -4.50293 124.001s1.16602 82.666 2.49902 123.999c0 4 0.333008 8 1 12s1 8 1 12v38c0 23.333 1.16699 46.833 3.5 70.5s3.5 47.167 3.5 70.5c0 1.33301 -0.166992 6.5 -0.5 15.5s-0.666016 19.833 -0.999023 32.5
s-0.666016 26.167 -0.999023 40.5s-0.666016 27.666 -0.999023 39.999s-0.666016 23 -0.999023 32s-0.5 14.167 -0.5 15.5c1.33301 7.33301 3 13.166 5 17.499s6.66699 7.83301 14 10.5c31.333 10.667 62.5 17.834 93.5 21.501s62.833 5.5 95.5 5.5
c3.33301 0 6.33301 -0.333008 9 -1s5.66699 -1 9 -1c16.667 -2 33 -4.5 49 -7.5s32 -6.83301 48 -11.5c7.33301 -2 14.333 -4.66699 21 -8l20 -10l22 -10c7.33301 -3.33301 14.333 -7 21 -11c10 -6 21 -15.333 33 -28s20.667 -24.334 26 -35.001
c4 -9.33301 6.66699 -19.166 8 -29.499s2 -20.166 2 -29.499c0 -16 -2.33301 -30 -7 -42s-12.334 -24.333 -23.001 -37c-14 -17.333 -30.167 -32.333 -48.5 -45l-53.5 -38v-1c14.667 -6 29.667 -12.667 45 -20s29.166 -15.833 41.499 -25.5s23 -21 32 -34
s15.167 -28.167 18.5 -45.5l2 -12l2 -12c0.666992 -2.66699 0.833984 -5.5 0.500977 -8.5s-0.833008 -5.83301 -1.5 -8.5c-1.33301 -17.333 -5.33301 -35 -12 -53s-16.334 -33.667 -29.001 -47c-28 -30.667 -60 -53 -96 -67s-74 -23.667 -114 -29
c-17.333 -2 -34.666 -3.5 -51.999 -4.5s-34.666 -0.833008 -51.999 0.5l-32.5 2.5c-13 1 -26 2.5 -39 4.5s-25 4.66699 -36 8s-18.833 8 -23.5 14zM183.997 280.002c-1.33301 -13.333 -1.83398 -26.666 -1.50098 -39.999s0.5 -26.666 0.5 -39.999
c0 -17.333 -0.166992 -35 -0.5 -53s-0.5 -35.667 -0.5 -53c4 -1.33301 9.66699 -2.5 17 -3.5s15 -1.83301 23 -2.5s15.833 -1.16699 23.5 -1.5s13.834 -0.5 18.501 -0.5c10.667 0 21.667 0.166992 33 0.5s22.333 1.16602 33 2.49902c19.333 3.33301 39.5 10.666 60.5 21.999
s37.5 24.666 49.5 39.999c21.333 26 29 52 23 78s-24.667 45.667 -56 59c-10.667 4.66699 -21.5 8.33398 -32.5 11.001s-22.167 4 -33.5 4h-26c-8 0 -18.167 -0.166992 -30.5 -0.5s-25 -1.33301 -38 -3s-25.167 -4 -36.5 -7s-20 -7.16699 -26 -12.5zM278.996 383.002
c2.66699 0 7.83203 1.50195 15.499 4.50195s15.834 6.66699 24.501 11l24.5 12l15.5 7.5c11.333 5.33301 23.5 12.333 36.5 21s24.167 17.334 33.5 26.001c22.667 21.333 31.5 43.5 26.5 66.5s-20.833 41.167 -47.5 54.5c-22 11.333 -42.333 17.666 -61 18.999s-40 2 -64 2
c-4 0 -9.16699 -0.333008 -15.5 -1s-12.833 -1.5 -19.5 -2.5s-13 -2.16699 -19 -3.5s-10.667 -3 -14 -5c-4 -2 -7.5 -4.66699 -10.5 -8l-9.5 -11c-2.66699 -23.333 -4.16699 -50 -4.5 -80s-0.5 -56.667 -0.5 -80c0 -1.33301 0.166992 -3 0.5 -5s0.5 -3.66699 0.5 -5
c-0.666992 -8.66699 1 -16.834 5 -24.501s12.667 -10.834 26 -9.50098c7.33301 -1.33301 16.5 -1 27.5 1s20.167 5.66699 27.5 11z" />
    <glyph glyph-name="C" unicode="C" horiz-adv-x="636" 
d="M525 492c-13.333 26.667 -30.0039 48.8408 -50.0039 66.5078s-45 28.834 -75 33.501c-41.333 6.66699 -77.166 0.166992 -107.499 -19.5s-55.5 -46.5 -75.5 -80.5l-27 -48c-8.66699 -16 -16 -32.667 -22 -50c-8 -23.333 -13.5 -49.333 -16.5 -78s-2 -56.834 3 -84.501
s14.5 -52.834 28.5 -75.501s34 -40 60 -52c31.333 -14 64.833 -19 100.5 -15s67.5 15 95.5 33c6.66699 4 15.334 10.167 26.001 18.5s21.167 17.333 31.5 27s19.666 19.5 27.999 29.5s14.166 18.667 17.499 26c12 -1.33301 22.833 -7 32.5 -17s19.167 -18.333 28.5 -25
c-0.666992 -8 -1.5 -14.667 -2.5 -20s-4.16699 -11 -9.5 -17c-2.66699 -8.66699 -7 -17.334 -13 -26.001s-12.667 -17 -20 -25s-15 -15.5 -23 -22.5s-15.667 -13.167 -23 -18.5c-30 -21.333 -62.167 -37.5 -96.5 -48.5s-69 -16.333 -104 -16s-69 7 -102 20
s-62.5 33.5 -88.5 61.5c-9.33301 9.33301 -16.833 18.666 -22.5 27.999s-11.167 19.666 -16.5 30.999l-10.5 21.5c-4.33301 9 -8.16602 18.5 -11.499 28.5s-6 19.5 -8 28.5s-2.33301 16.167 -1 21.5c-2 6 -3.66699 13.833 -5 23.5s-2.33301 18.167 -3 25.5
c-2 32.667 0.5 67.5 7.5 104.5s18.167 73 33.5 108s34.333 67.167 57 96.5s48.334 53 77.001 71c20 12.667 39.333 23.667 58 33s37.5 16.166 56.5 20.499s38.5 6.16602 58.5 5.49902s42 -4.66699 66 -12c13.333 -4 25.333 -7.83301 36 -11.5s21.667 -9.83398 33 -18.501
c17.333 -13.333 32.333 -29.833 45 -49.5s19 -40.5 19 -62.5c-5.33301 -4.66699 -10.666 -10.334 -15.999 -17.001l-16 -20c-5.33301 -6.66699 -10.666 -13 -15.999 -19s-11 -10.667 -17 -14z" />
    <glyph glyph-name="D" unicode="D" horiz-adv-x="672" 
d="M105 670c18.667 7.33301 36.3369 13.498 53.0039 18.498s33.167 9 49.5 12s33.166 5 50.499 6s36 1.5 56 1.5c30 0 60 -2.5 90 -7.5s58.667 -13.833 86 -26.5c26 -12 48.667 -28.5 68 -49.5s35.166 -44.333 47.499 -70s21 -52.834 26 -81.501s6.16699 -56.667 3.5 -84
c-4 -44 -14.167 -84.833 -30.5 -122.5s-38.5 -73.5 -66.5 -107.5c-25.333 -30 -53.833 -56.5 -85.5 -79.5s-66.167 -40.833 -103.5 -53.5c-28.667 -10 -56.834 -16.5 -84.501 -19.5s-56.5 -0.833008 -86.5 6.5c-1.33301 2.66699 -5.66602 4.33398 -12.999 5.00098
s-12 2 -14 4c-8 0 -14 0.5 -18 1.5s-7.5 2.5 -10.5 4.5s-6.16699 4.33301 -9.5 7s-8.66602 5.66699 -15.999 9c-8 19.333 -13.5 44.333 -16.5 75s-4.66699 62.667 -5 96s0.333984 66 2.00098 98s3.5 59 5.5 81c-0.666992 9.33301 -0.833984 22.333 -0.500977 39
s0.666016 34.834 0.999023 54.501s1.16602 39.834 2.49902 60.501s2.83301 39.667 4.5 57s3.66699 32 6 44s5.16602 19 8.49902 21zM538.003 435.998c0 42 -6.50098 75.166 -19.501 99.499s-30.833 42.333 -53.5 54s-49.167 18.167 -79.5 19.5
s-62.833 -0.333984 -97.5 -5.00098c-2 0 -7 -0.5 -15 -1.5s-16.667 -2 -26 -3s-17.833 -2.16699 -25.5 -3.5s-12.167 -2.33301 -13.5 -3c-2.66699 -2 -5 -4.33301 -7 -7c-4 -6 -7.33301 -17.5 -10 -34.5s-4.5 -37 -5.5 -60s-1.66699 -47.667 -2 -74
s-0.166016 -51.5 0.500977 -75.5s1.33398 -45.833 2.00098 -65.5s1.33398 -34.167 2.00098 -43.5c1.33301 -17.333 2.83301 -34.666 4.5 -51.999s3.16699 -34.666 4.5 -51.999c21.333 -12 44.666 -16.333 69.999 -13s50.166 11 74.499 23s47 26.667 68 44s38.167 34 51.5 50
c22 28 39.833 59.833 53.5 95.5s21.167 71.5 22.5 107.5h1v0z" />
    <glyph glyph-name="E" unicode="E" horiz-adv-x="507" 
d="M422 697c2.66699 0 7 -0.491211 13 -1.49121s12 -2.16699 18 -3.5s11.833 -2.83301 17.5 -4.5s10.167 -2.83398 13.5 -3.50098c0.666992 -6.66699 1.16699 -13 1.5 -19s0.5 -12 0.5 -18c-0.666992 -4 -0.666992 -7.83301 0 -11.5s1.16699 -7.33398 1.5 -11.001
s-0.166992 -7.33398 -1.5 -11.001s-4.33301 -7.16699 -9 -10.5c-1.33301 -0.666992 -5.16602 -1 -11.499 -1h-20.5c-7.33301 0 -14.166 -0.166992 -20.499 -0.5s-9.83301 -1.16602 -10.5 -2.49902c-16 -2 -32.167 -3.66699 -48.5 -5s-32.5 -3 -48.5 -5
c-20.667 -2 -41.334 -3.16699 -62.001 -3.5s-41.334 -2.5 -62.001 -6.5c-2.66699 -8 -4.66699 -20 -6 -36s-2.5 -33.167 -3.5 -51.5s-1.66699 -36 -2 -53s-0.5 -30.167 -0.5 -39.5c4 -4 12 -6.33301 24 -7s26 -0.333984 42 0.999023s33.167 3 51.5 5s35.833 3.5 52.5 4.5
s31.5 1.16699 44.5 0.5s22.167 -3 27.5 -7c2.66699 -3.33301 4.83398 -8.5 6.50098 -15.5s2.66699 -14.167 3 -21.5s0 -14.5 -1 -21.5s-2.5 -12.167 -4.5 -15.5c-8 -1.33301 -22.833 -2.33301 -44.5 -3l-67 -2c-23 -0.666992 -44.167 -2 -63.5 -4s-31 -5.33301 -35 -10
l-46 -3c0.666992 -10 1.33398 -23.833 2.00098 -41.5s1.16699 -36 1.5 -55l1 -55c0.333008 -17.667 0.833008 -31.5 1.5 -41.5c13.333 0.666992 33.5 3.16699 60.5 7.5s55 7.83301 84 10.5s55.833 3.5 80.5 2.5s41.667 -5.83301 51 -14.5c0 -5.33301 1 -9.33301 3 -12
s3.66699 -7.66699 5 -15c1.33301 -8.66699 2 -15.667 2 -21s-3.33301 -12.333 -10 -21c-5.33301 -2.66699 -15.833 -5.33398 -31.5 -8.00098s-33.834 -5.33398 -54.501 -8.00098s-42.834 -5.33398 -66.501 -8.00098s-46.5 -4.83398 -68.5 -6.50098s-41.833 -3 -59.5 -4
s-30.5 -1.5 -38.5 -1.5c-8.66699 0 -17 1.16699 -25 3.5s-15 6.5 -21 12.5c0 7.33301 -1.16699 13.833 -3.5 19.5s-3.83301 12.167 -4.5 19.5c-1.33301 7.33301 -2 15 -2 23s-0.666992 15.667 -2 23c-4 16 -6.16699 36 -6.5 60s0.166992 49 1.5 75s2.83301 51.667 4.5 77
s2.16699 47.333 1.5 66c0 4.66699 0.333008 14.167 1 28.5s1.5 31.166 2.5 50.499s2 40 3 62s1.83301 42.5 2.5 61.5s1 35.5 1 49.5s-0.666992 23 -2 27c58 11.333 114 19.166 168 23.499s110.333 6.83301 169 7.5z" />
    <glyph glyph-name="F" unicode="F" horiz-adv-x="479" 
d="M73 641c0.666992 6 2.66504 10.1621 5.99805 12.4951l11 7.5c2.66699 0 5 0.5 7 1.5s4.33301 1.83301 7 2.5c30.667 8.66699 59.167 14.334 85.5 17.001s55.5 4 87.5 4l1 1c5.33301 0 10.666 0.333008 15.999 1s10.666 1 15.999 1c2.66699 0 10.167 0.5 22.5 1.5
s26 1.5 41 1.5s29.333 -1.16699 43 -3.5s22.5 -6.5 26.5 -12.5c1.33301 -6.66699 2.83301 -11.167 4.5 -13.5s2.5 -6.16602 2.5 -11.499c0 -9.33301 0.666992 -17 2 -23s1.66602 -15.333 0.999023 -28c-9.33301 -2.66699 -19 -4.16699 -29 -4.5s-19.667 -0.833008 -29 -1.5
c-33.333 -3.33301 -66.166 -5.66602 -98.499 -6.99902s-64.5 -5.66602 -96.5 -12.999c-2 -1.33301 -3.66699 -8.33301 -5 -21s-2.5 -26.834 -3.5 -42.501s-1.83301 -30.667 -2.5 -45s-1 -23.5 -1 -27.5c0 -2 -0.166992 -5 -0.5 -9s-0.5 -8.16699 -0.5 -12.5
s0.5 -8.33301 1.5 -12s2.5 -5.5 4.5 -5.5c12.667 -1.33301 26 -1.83301 40 -1.5s28.167 1.16602 42.5 2.49902l42.5 4c14 1.33301 27.667 2 41 2l1 1c8.66699 0 17 -0.166992 25 -0.5s16 -2.16602 24 -5.49902c2.66699 -6.66699 4.33398 -12 5.00098 -16
s0.833984 -7.5 0.500977 -10.5s-1 -6 -2 -9s-1.5 -6.83301 -1.5 -11.5c0 -4 -1 -9 -3 -15s-3 -10.667 -3 -14c-3.33301 -3.33301 -10.666 -5.5 -21.999 -6.5s-24.5 -1.66699 -39.5 -2s-30.833 -0.5 -47.5 -0.5s-32.334 -0.333008 -47.001 -1s-27.167 -2.16699 -37.5 -4.5
s-16.833 -5.83301 -19.5 -10.5c-0.666992 -10 -1.33398 -19.333 -2.00098 -28c-0.666992 -7.33301 -1.16699 -15 -1.5 -23s-0.5 -14.667 -0.5 -20c-1.33301 -18 -2.33301 -37.167 -3 -57.5s-1.5 -40.833 -2.5 -61.5s-2.33301 -40.5 -4 -59.5s-4.16699 -35.833 -7.5 -50.5
c0 -2 -2.5 -3.16699 -7.5 -3.5s-10.5 -0.666016 -16.5 -0.999023s-11.5 -0.666016 -16.5 -0.999023s-7.83301 -1.5 -8.5 -3.5c-4.66699 0.666992 -8.5 0.666992 -11.5 0s-5.83301 -1.16699 -8.5 -1.5s-5.66699 0 -9 1s-7.66602 4.16699 -12.999 9.5
c-0.666992 11.333 -1.33398 24.833 -2.00098 40.5s-1.16699 31.834 -1.5 48.501l-1 48c-0.333008 15.333 -0.5 28.666 -0.5 39.999c0 10 0.5 21 1.5 33l3 36.5c1 12.333 1.66699 24.333 2 36s-0.166992 22.167 -1.5 31.5c-0.666992 2.66699 -1 10.667 -1 24
s-0.166992 29.333 -0.5 48s-0.666016 38.667 -0.999023 60s-0.666016 41.333 -0.999023 60s-0.5 34.667 -0.5 48v24c0 10.667 -0.666992 21.167 -2 31.5s-1.66602 20.833 -0.999023 31.5z" />
    <glyph glyph-name="G" unicode="G" horiz-adv-x="688" 
d="M405 376c5.33301 0.666992 14.6621 1.49902 27.9951 2.49902s28.333 2 45 3s34.334 1.66699 53.001 2s35.834 0.666016 51.501 0.999023s29.167 0.333008 40.5 0s18.333 -1.16602 21 -2.49902c2 -10.667 2.5 -25.667 1.5 -45s-3.83301 -40.333 -8.5 -63
s-10.5 -45.5 -17.5 -68.5s-15.5 -42.833 -25.5 -59.5c-15.333 -26.667 -33.666 -48.334 -54.999 -65.001s-42 -29.667 -62 -39s-37.167 -15.666 -51.5 -18.999s-21.833 -5 -22.5 -5l-13.5 -4c-4.33301 -1.33301 -9.16602 -2.33301 -14.499 -3
c-9.33301 -1.33301 -19.666 -2 -30.999 -2s-21.666 0.666992 -30.999 2c-34 3.33301 -66.333 12.5 -97 27.5s-57.667 34.833 -81 59.5c-12.667 13.333 -23.5 27 -32.5 41l-28.5 44c-10 14.667 -17.167 34.667 -21.5 60s-6.33301 51.833 -6 79.5s2.66602 54.667 6.99902 81
s10.166 47.833 17.499 64.5c16.667 38 37.834 73.333 63.501 106s55 60.334 88 83.001s68.667 39.167 107 49.5s78.5 12.5 120.5 6.5c13.333 -2 27.333 -4.66699 42 -8s28.334 -7.66602 41.001 -12.999c6.66699 -3.33301 15.667 -7.5 27 -12.5s22.333 -11.167 33 -18.5
s19.667 -15.5 27 -24.5s10.333 -18.5 9 -28.5c-0.666992 -3.33301 -2.16699 -7 -4.5 -11s-4.83301 -6.66699 -7.5 -8c-1.33301 -6.66699 -6 -11.334 -14 -14.001s-15 -5.66699 -21 -9c-3.33301 -2 -6.33301 -4 -9 -6s-5.66699 -3.66699 -9 -5c-28 22 -58 36.833 -90 44.5
s-63.333 9 -94 4s-60 -16.333 -88 -34s-52 -40.834 -72 -69.501c-13.333 -18 -23.833 -38.333 -31.5 -61s-14.5 -44.667 -20.5 -66c-5.33301 -19.333 -9.16602 -38 -11.499 -56s-2.5 -37 -0.5 -57c1.33301 -18.667 7.33301 -36 18 -52l32 -46
c10.667 -15.333 23.5 -26.833 38.5 -34.5s31.167 -13.167 48.5 -16.5c16.667 -3.33301 34 -5.33301 52 -6s35.667 0.5 53 3.5s33.833 8.33301 49.5 16s29.5 18.167 41.5 31.5c6.66699 8 12.667 17.333 18 28s10 22 14 34s7.16699 24 9.5 36s3.83301 23 4.5 33
c-9.33301 3.33301 -23.333 4.33301 -42 3s-37.834 -3 -57.501 -5s-38.334 -3.66699 -56.001 -5s-30.167 0 -37.5 4c-3.33301 2 -5.5 7 -6.5 15s-1.33301 16.833 -1 26.5s1 18.834 2 27.501s1.83301 14.667 2.5 18c10.667 6 21.5 7.83301 32.5 5.5s22.167 -2.5 33.5 -0.5z
" />
    <glyph glyph-name="H" unicode="H" horiz-adv-x="621" 
d="M119 656c0.666992 1.33301 1.16602 3.66406 1.49902 6.99707l1 10c0.333008 3.33301 0.833008 6.33301 1.5 9s1.66699 4.33398 3 5.00098c2.66699 2.66699 6 2.5 10 -0.5s7.33301 -2.83301 10 0.5c8 1.33301 19 1.33301 33 0s25.333 -2 34 -2
c2 -12.667 2.5 -22.834 1.5 -30.501s-2.16699 -17.834 -3.5 -30.501l-3 -33c-1.33301 -14.667 -2.66602 -30.834 -3.99902 -48.501s-2.5 -36 -3.5 -55s-1.66699 -36.667 -2 -53s0 -30.5 1 -42.5s3.16699 -19.667 6.5 -23c6 -1.33301 14.167 -1.83301 24.5 -1.5
s21.166 1 32.499 2s22.5 2.16699 33.5 3.5s19.833 2 26.5 2c6 0 15 0.333008 27 1s24.333 1.66699 37 3s24.5 2.83301 35.5 4.5s18.5 3.83398 22.5 6.50098c2.66699 2 4.66699 5.33301 6 10c1.33301 5.33301 2 11.166 2 17.499v17.5
c1.33301 46 3.16602 92.167 5.49902 138.5s6.5 92.166 12.5 137.499c0.666992 2.66699 1.83398 4.33398 3.50098 5.00098s3.5 1 5.5 1s4.16699 0.333008 6.5 1s4.16602 2.33398 5.49902 5.00098c2.66699 0 8 0.5 16 1.5s16.5 2.33301 25.5 4s17.667 2.83398 26 3.50098
s14.166 0.666992 17.499 0c4.66699 -3.33301 5.83398 -8 3.50098 -14s-2.83301 -11.667 -1.5 -17c-4.66699 -28 -8.33398 -55.833 -11.001 -83.5s-4.66699 -55.5 -6 -83.5c-0.666992 -8.66699 -1.83398 -17 -3.50098 -25s-2.83398 -16.333 -3.50098 -25
c-3.33301 -45.333 -5 -91 -5 -137s-0.333008 -92 -1 -138c-0.666992 -15.333 -1 -31 -1 -47v-48c0 -12 0.333008 -24.167 1 -36.5s0.333984 -24.5 -0.999023 -36.5c-5.33301 -2.66699 -10.5 -4.83398 -15.5 -6.50098s-10.167 -3.5 -15.5 -5.5
c-15.333 -3.33301 -27.166 -5.33301 -35.499 -6s-17.166 -0.666992 -26.499 0c-4 14.667 -6.83301 30.334 -8.5 47.001s-2.5 33.5 -2.5 50.5s0.333008 33.833 1 50.5s1 32.667 1 48c0 9.33301 0.333008 18.666 1 27.999s0.333984 18.666 -0.999023 27.999
c0 6.66699 -2.33301 12.334 -7 17.001c-36 -2.66699 -74.167 -5.66699 -114.5 -9s-77.833 -8.66602 -112.5 -15.999c-4.66699 -1.33301 -7.83398 -4 -9.50098 -8s-2.5 -8 -2.5 -12c0 -23.333 -0.5 -46.166 -1.5 -68.499s-1.5 -45.166 -1.5 -68.499
c0 -9.33301 0.333008 -18.333 1 -27s1 -17.667 1 -27v-30.5c0 -9 -0.666992 -17.5 -2 -25.5c-3.33301 0 -8.16602 0.333008 -14.499 1l-19 2c-6.33301 0.666992 -12 1.33398 -17 2.00098l-7.5 1c-9.33301 0 -17.5 -0.166992 -24.5 -0.5s-15.5 1.5 -25.5 5.5
c-2.66699 40.667 -3.5 81 -2.5 121s1.83301 80 2.5 120c0.666992 18 1.33398 39.333 2.00098 64s1.5 50.667 2.5 78s2.33301 54.833 4 82.5s3.5 53.5 5.5 77.5s4.33301 45 7 63s5.66699 31 9 39z" />
    <glyph glyph-name="I" unicode="I" horiz-adv-x="263" 
d="M77 19c-3.33301 15.333 -4.99902 34.1709 -4.99902 56.5039s0.5 45.5 1.5 69.5s2.16699 47.167 3.5 69.5s2 41.5 2 57.5h1c4 58 6 116.667 6 176c0 21.333 1 42.666 3 63.999s3 42.666 3 63.999v56.5c0 19.667 2 38.167 6 55.5c10 7.33301 18.5 10.666 25.5 9.99902
s16.833 -1.66699 29.5 -3c0.666992 -1.33301 3 -2.33301 7 -3s8.5 -1.33398 13.5 -2.00098s9.66699 -1 14 -1s7.16602 -0.333008 8.49902 -1c-3.33301 -94.667 -4.83301 -188.5 -4.5 -281.5s-1.16699 -186.833 -4.5 -281.5l-4 -109c-3.33301 -2 -7.33301 -4 -12 -6
c-4 -1.33301 -8.66699 -2.5 -14 -3.5s-11.333 -0.833008 -18 0.5c-2 0 -6 0.5 -12 1.5s-12.333 2.33301 -19 4s-13 3.16699 -19 4.5s-10 2 -12 2z" />
    <glyph glyph-name="J" unicode="J" horiz-adv-x="444" 
d="M286 514c0 3.33301 -0.166016 9.66211 -0.499023 18.9951s-0.833008 20.166 -1.5 32.499s-1 25.166 -1 38.499s0.166992 26 0.5 38s1.33301 22.167 3 30.5s3.83398 13.5 6.50098 15.5c4.66699 3.33301 11.167 5.5 19.5 6.5s16.833 1.33301 25.5 1s17 -1.33301 25 -3
s14.667 -3.5 20 -5.5c1.33301 -9.33301 3.5 -19.166 6.5 -29.499s4.5 -20.166 4.5 -29.499v-100c0 -32.667 -0.333008 -66 -1 -100c0 -5.33301 -0.5 -10.333 -1.5 -15s-1.5 -9.66699 -1.5 -15c0 -20 -0.333008 -44.333 -1 -73s-2.83398 -58.5 -6.50098 -89.5
s-9.5 -61.667 -17.5 -92s-19.167 -57 -33.5 -80s-32.5 -41 -54.5 -54s-49 -17.833 -81 -14.5c-16 2 -30 4.5 -42 7.5s-23.333 7.33301 -34 13s-21.334 13 -32.001 22s-22.334 20.5 -35.001 34.5c-8 6 -14.167 17.167 -18.5 33.5s-7.33301 33.5 -9 51.5s-1.5 34.833 0.5 50.5
s5.66699 26.167 11 31.5c6.66699 2 15 2.33301 25 1s19.667 -3.16602 29 -5.49902s17.5 -4.66602 24.5 -6.99902s11.167 -3.5 12.5 -3.5c-2.66699 -16.667 -3.66699 -32 -3 -46c0.666992 -12.667 2.33398 -25 5.00098 -37s8.66699 -21 18 -27
c26 -24 47.5 -32.167 64.5 -24.5s30.667 24.834 41 51.501s17.833 59.334 22.5 98.001s7.66699 76.834 9 114.501s1.83301 71.5 1.5 101.5s-0.5 49.667 -0.5 59z" />
    <glyph glyph-name="K" unicode="K" horiz-adv-x="588" 
d="M550 679c-2.66699 -7.33301 -10.332 -19.6699 -22.999 -37.0029l-44.5 -59l-54 -69l-52.5 -66.5c-16 -20.333 -29 -37.666 -39 -51.999s-14.667 -22.5 -14 -24.5l2 -5c2.66699 -6 8.66699 -15.333 18 -28s19.5 -25.667 30.5 -39l32.5 -38l24 -27
c12.667 -14 26.5 -28.5 41.5 -43.5l44 -46c14.333 -15.667 27.666 -31.667 39.999 -48s22.166 -32.833 29.499 -49.5c-1.33301 -4 -4.66602 -8.33301 -9.99902 -13s-11.5 -9.16699 -18.5 -13.5s-13.833 -8.33301 -20.5 -12s-12 -6.16699 -16 -7.5
c-3.33301 0 -7.66602 0.166992 -12.999 0.5s-8.66602 1.83301 -9.99902 4.5c-2.66699 4 -5 8 -7 12s-4.66699 7.66699 -8 11c-4 5.33301 -11.833 14.833 -23.5 28.5l-41 47l-50.5 55.5l-50.5 52.5c-15.667 15.667 -29.667 28.834 -42 39.501s-20.833 16 -25.5 16
c-10.667 -7.33301 -21.334 -18.333 -32.001 -33s-20.667 -27.667 -30 -39v-48l-7 -125c-4 -2.66699 -8 -5 -12 -7c-4 -1.33301 -8.5 -2.5 -13.5 -3.5s-11.167 -0.833008 -18.5 0.5c-2 -0.666992 -6 -0.333984 -12 0.999023s-12.333 2.83301 -19 4.5s-13 3.33398 -19 5.00098
s-10 2.5 -12 2.5c-3.33301 15.333 -4.83301 35 -4.5 59s1.16602 49 2.49902 75s2.83301 51 4.5 75s2.5 44 2.5 60l1 1c4 58 6 116.333 6 175c0 21.333 1 42.666 3 63.999s3 42.666 3 63.999v57c0 19.333 2 38 6 56c10 6.66699 18.5 9.83398 25.5 9.50098
s16.833 -1.5 29.5 -3.5c0.666992 -1.33301 3 -2.33301 7 -3s8.5 -1.16699 13.5 -1.5s9.66699 -0.5 14 -0.5s7.16602 -0.333008 8.49902 -1c-2 -59.333 -3.66699 -118.333 -5 -177s-2.33301 -117.667 -3 -177c9.33301 14 19.5 27.333 30.5 40s21.167 25.667 30.5 39
l25.5 36.5l36.5 51l42.5 56.5c15 19.333 29.667 37.333 44 54s27.833 31.334 40.5 44.001s23.334 21.334 32.001 26.001c6.66699 2.66699 15 3.66699 25 3s19.333 -2.5 28 -5.5s15.667 -6.66699 21 -11s7.33301 -8.5 6 -12.5z" />
    <glyph glyph-name="L" unicode="L" horiz-adv-x="441" 
d="M68 176c0.666992 60.667 3.66309 121.002 8.99609 181.002l16 181c2 19.333 3.66699 38.166 5 56.499s4 36.833 8 55.5c0 8 -0.166992 13.5 -0.5 16.5s-0.333008 5 0 6s0.833008 1.66699 1.5 2s1.66699 1.83301 3 4.5c0.666992 0 5.83398 -0.166992 15.501 -0.5
s20 -0.666016 31 -0.999023s21.167 -0.666016 30.5 -0.999023s14.666 -0.5 15.999 -0.5c6.66699 -6 9 -14.667 7 -26s-3.33301 -21.333 -4 -30c-0.666992 -13.333 -2.16699 -34.333 -4.5 -63s-5.16602 -60.834 -8.49902 -96.501s-6.33301 -73.167 -9 -112.5
s-4.66699 -76.333 -6 -111s-1.33301 -65.167 0 -91.5s4.66602 -44.5 9.99902 -54.5c16.667 0 34.5 0.666992 53.5 2l57 4c19 1.33301 37.667 2.16602 56 2.49902s35.5 -0.833984 51.5 -3.50098l4 -5c5.33301 -2.66699 9.33301 -8.83398 12 -18.501s4 -19.834 4 -30.501
s-1.5 -20.334 -4.5 -29.001s-7.83301 -13 -14.5 -13c-5.33301 -0.666992 -10.333 -0.666992 -15 0s-9.66699 1.33398 -15 2.00098c-19.333 -3.33301 -39.666 -5.16602 -60.999 -5.49902s-42 -1.16602 -62 -2.49902c-11.333 -0.666992 -23.833 -1 -37.5 -1
s-27.5 0.166992 -41.5 0.5s-28 0.5 -42 0.5s-26.333 -0.333008 -37 -1c-1.33301 1.33301 -3.66602 2.16602 -6.99902 2.49902s-6.83301 0.5 -10.5 0.5s-7 0.166992 -10 0.5s-4.83301 1.5 -5.5 3.5c0 4.66699 0.333008 15.5 1 32.5s1.33398 35.333 2.00098 55
s1.33398 37.834 2.00098 54.501s1 27.667 1 33z" />
    <glyph glyph-name="M" unicode="M" horiz-adv-x="784" 
d="M239 642c2 -7.33301 4.00391 -15.3359 6.00391 -24.0029s4.33301 -16.667 7 -24l29.5 -84c8.33301 -24.667 18.833 -52.334 31.5 -83.001l34.5 -88.5l36.5 -87.5c1.33301 -2 2.66602 -5.33301 3.99902 -10s3 -9.66699 5 -15c2 -6 4.33301 -12.333 7 -19
c2 7.33301 4.33301 14.333 7 21c2 5.33301 3.83301 10.5 5.5 15.5s3.16699 8.16699 4.5 9.5l45.5 113l46.5 112l33 73.5l32 73.5c6 13.333 10.667 25 14 35s8.66602 21.667 15.999 35c6 4 14.167 6.16699 24.5 6.5s20.666 -0.833984 30.999 -3.50098
s19.833 -6.33398 28.5 -11.001s14 -10 16 -16c4 -2 5.33301 -6.33301 4 -13c0 -2.66699 -0.166992 -5.5 -0.5 -8.5s-0.166016 -5.83301 0.500977 -8.5c-0.666992 -14 -1.33398 -25.667 -2.00098 -35s-1.16699 -18.166 -1.5 -26.499s-0.5 -17.333 -0.5 -27
s0.333008 -21.5 1 -35.5c0 -4 0.166992 -10.333 0.5 -19s0.5 -17.667 0.5 -27s0.166992 -18.5 0.5 -27.5s0.5 -15.5 0.5 -19.5c2 -45.333 5.33301 -91.166 10 -137.499s8.66699 -92.5 12 -138.5l3.5 -41l3.5 -41c1.33301 -11.333 3 -23 5 -35s3 -24 3 -36
c-4.66699 -2 -9.33398 -3.66699 -14.001 -5s-9.66699 -2.66602 -15 -3.99902c-14 -2.66699 -25.167 -4 -33.5 -4s-16.833 0.666992 -25.5 2c-11.333 28.667 -17.666 58.334 -18.999 89.001s-3.66602 61 -6.99902 91c-0.666992 4.66699 -1.5 15.834 -2.5 33.501
s-2.16699 36.834 -3.5 57.501c-1.33301 20 -2.5 38.833 -3.5 56.5s-2.16699 29.167 -3.5 34.5c0.666992 6 0.666992 12 0 18s-1.33398 11.667 -2.00098 17c-1.33301 12 -2 28.333 -2 49s-0.666992 39.667 -2 57c-3.33301 -6.66699 -5.5 -12.5 -6.5 -17.5
s-2.16699 -10.167 -3.5 -15.5s-2 -9.66602 -2 -12.999l-3 -9c-16 -47.333 -33.167 -91.666 -51.5 -132.999l-57.5 -132c-1.33301 -2 -4 -8.16699 -8 -18.5s-8.66699 -21.5 -14 -33.5c-5.33301 -11.333 -10 -21.666 -14 -30.999s-7 -15 -9 -17
c-1.33301 -0.666992 -3.16602 -1 -5.49902 -1s-5.16602 -0.666992 -8.49902 -2c-4 -0.666992 -8.33301 -1.16699 -13 -1.5s-9.33398 -1.16602 -14.001 -2.49902l-24.5 -3.5c-7 -1 -11.167 -0.833008 -12.5 0.5c-4 4.66699 -8.33301 11.667 -13 21
s-9.33398 19.333 -14.001 30c-5.33301 11.333 -9.83301 21.833 -13.5 31.5s-6.83398 17.167 -9.50098 22.5c-5.33301 10 -12.333 26.667 -21 50l-28 78l-29.5 87l-29.5 86c-1.33301 -22 -2.83301 -45 -4.5 -69s-3.16699 -46.667 -4.5 -68l-3.5 -56
c-1 -16 -1.5 -27.333 -1.5 -34c-0.666992 -22.667 -2 -45.334 -4 -68.001s-3.66699 -45.667 -5 -69c-0.666992 -9.33301 -0.833984 -18.5 -0.500977 -27.5s0.5 -18.167 0.5 -27.5c-0.666992 -5.33301 -1 -10.5 -1 -15.5v-14.5c-0.666992 -4 -1.16699 -8 -1.5 -12
s-0.833008 -7.66699 -1.5 -11c-3.33301 0 -7.83301 0.333008 -13.5 1l-17.5 2l-17 2c-2.66699 0.666992 -5.33398 1 -8.00098 1c-9.33301 0 -17.166 -0.166992 -23.499 -0.5s-14.166 1.16699 -23.499 4.5c-1.33301 40.667 -0.5 81 2.5 121s5.5 80.333 7.5 121
c0.666992 17.333 1.83398 38.666 3.50098 63.999s3.66699 52.166 6 80.499s4.83301 57.166 7.5 86.499s5.5 57 8.5 83s6.16699 49.167 9.5 69.5s6.66602 35.833 9.99902 46.5c4.66699 3.33301 11.667 5.5 21 6.5s18.833 1.33301 28.5 1s18.5 -1 26.5 -2
s13.333 -1.83301 16 -2.5c4 -3.33301 7.16699 -8 9.5 -14s4.5 -12.667 6.5 -20z" />
    <glyph glyph-name="N" unicode="N" horiz-adv-x="605" 
d="M446 26c-10.667 12 -22.002 28.333 -34.002 49s-23.833 42.5 -35.5 65.5l-33.5 66.5c-10.667 21.333 -20 39 -28 53l-31 54l-28.5 48l-25.5 44c-6.66699 10.667 -13 23.667 -19 39s-11.667 28.666 -17 39.999c-0.666992 -21.333 -1.16699 -44 -1.5 -68l-1 -69
c-0.333008 -22 -0.5 -41.667 -0.5 -59v-39c0.666992 -23.333 0.333984 -46.166 -0.999023 -68.499s-2 -45.166 -2 -68.499c0 -9.33301 0.333008 -18.333 1 -27s1 -17.667 1 -27v-30.5c0 -9 -0.666992 -17.5 -2 -25.5c-3.33301 0 -8.16602 0.333008 -14.499 1l-19 2
c-6.33301 0.666992 -12 1.33398 -17 2.00098l-7.5 1c-9.33301 0 -17.5 -0.166992 -24.5 -0.5s-15.5 1.5 -25.5 5.5c-2.66699 40.667 -3.5 81 -2.5 121s1.83301 80 2.5 120c0 18 0.5 39.333 1.5 64s2 50.667 3 78s2.33301 54.833 4 82.5s3.5 53.5 5.5 77.5s4.33301 45 7 63
s5.66699 31 9 39v3l2 2c2.66699 2.66699 6 2.5 10 -0.5s7 -3.16699 9 -0.5c8.66699 1.33301 20 1.5 34 0.5s25.333 -1.5 34 -1.5l118 -207.5l120 -205.5c0.666992 8.66699 1.16699 18.667 1.5 30l1 32.5c0.333008 10.333 0.5 19.666 0.5 27.999s-0.333008 14.166 -1 17.499
c0.666992 0.666992 1.33398 3.16699 2.00098 7.5s1 9.16602 1 14.499v15v9c1.33301 5.33301 2 11.166 2 17.499v17.5c1.33301 46 3.16602 92.167 5.49902 138.5s6.5 92.166 12.5 137.499c0.666992 2.66699 1.83398 4.33398 3.50098 5.00098s3.5 1 5.5 1
s4.16699 0.333008 6.5 1s4.16602 2.33398 5.49902 5.00098c2.66699 0 8 0.5 16 1.5s16.5 2.33301 25.5 4s17.667 2.83398 26 3.50098s14.166 0.666992 17.499 0c4.66699 -3.33301 5.83398 -8 3.50098 -14s-2.83301 -11.667 -1.5 -17
c-4.66699 -28 -8.33398 -55.833 -11.001 -83.5s-4.66699 -55.5 -6 -83.5c-0.666992 -8.66699 -1.83398 -17 -3.50098 -25s-2.83398 -16.333 -3.50098 -25c-3.33301 -45.333 -5 -91 -5 -137s-0.333008 -92 -1 -138c-0.666992 -15.333 -1 -31 -1 -47v-48
c0 -12 0.333008 -24.167 1 -36.5s0.333984 -24.5 -0.999023 -36.5c-10.667 -5.33301 -21 -9.33301 -31 -12c-15.333 -4 -26.666 -6.33301 -33.999 -7s-15.666 -0.666992 -24.999 0v2c-2 0 -3 -0.333008 -3 -1z" />
    <glyph glyph-name="O" unicode="O" horiz-adv-x="682" 
d="M406 709c4.66699 0.666992 11.502 0.50293 20.502 -0.49707s18.333 -2.66699 28 -5s18.667 -4.83301 27 -7.5s14.5 -5.33398 18.5 -8.00098c25.333 -17.333 47 -37.5 65 -60.5s33.333 -48.5 46 -76.5c5.33301 -12 10 -25.5 14 -40.5s7.33301 -30.5 10 -46.5
s4.66699 -31.833 6 -47.5s2 -29.834 2 -42.501c0 -44 -6.66699 -88.833 -20 -134.5s-32.833 -87.334 -58.5 -125.001s-57.667 -68.334 -96 -92.001s-82.5 -35.5 -132.5 -35.5c-28 0 -55.333 3.33301 -82 10s-52 17.334 -76 32.001c-11.333 6.66699 -21.333 13.667 -30 21
s-16.5 15 -23.5 23s-13.667 16.5 -20 25.5s-12.833 19.167 -19.5 30.5l-1 2c-8 12 -14.333 26.333 -19 43s-8.5 34.167 -11.5 52.5s-5.16699 36.333 -6.5 54s-2.33301 33.5 -3 47.5c-0.666992 29.333 2.16602 60.166 8.49902 92.499s16.166 63.833 29.499 94.5
s30 58.834 50 84.501s43.333 46.5 70 62.5c10 6 23.333 12.5 40 19.5s34.5 13.167 53.5 18.5s38.167 9 57.5 11s37 1.33301 53 -2zM353.002 620.003c-33.333 -1.33301 -62.167 -10.001 -86.5 -26.001s-44.666 -36.833 -60.999 -62.5s-29.166 -54.5 -38.499 -86.5
s-15 -64 -17 -96c-2.66699 -32 -1.83398 -63.5 2.49902 -94.5s14.5 -60.5 30.5 -88.5c15.333 -27.333 37.5 -46.666 66.5 -57.999s58.833 -15 89.5 -11c34.667 4 62.834 13.833 84.501 29.5s41.167 38.5 58.5 68.5c12.667 22.667 23 49 31 79s12.667 61 14 93
s-0.833984 63.333 -6.50098 94s-15.5 58 -29.5 82s-32.333 43 -55 57s-50.334 20.667 -83.001 20z" />
    <glyph glyph-name="P" unicode="P" horiz-adv-x="547" 
d="M91 6c-1.33301 19.333 -2.33789 43.4971 -3.00488 72.4971s-1 59.833 -1 92.5s-0.166992 65.334 -0.5 98.001s-0.5 62.667 -0.5 90l-1 171c0 -2.66699 -0.166992 -0.5 -0.5 6.5s-0.666016 16.667 -0.999023 29s-0.166016 26.166 0.500977 41.499s1.66699 29.833 3 43.5
s3.5 25.334 6.5 35.001s6.83301 15.5 11.5 17.5c6.66699 3.33301 11.834 5.33301 15.501 6s9.5 1 17.5 1c9.33301 0 19.333 1.16699 30 3.5s20.667 3.5 30 3.5s18.833 0.5 28.5 1.5s19.167 1.16699 28.5 0.5c15.333 -0.666992 31.166 -1.66699 47.499 -3
s31.5 -2.66602 45.5 -3.99902c23.333 -2.66699 44.666 -10.167 63.999 -22.5s36.666 -26.5 51.999 -42.5c16 -16.667 29.5 -35 40.5 -55s18.167 -41.667 21.5 -65c0 -2.66699 0.333008 -5 1 -7s1.33398 -4.33301 2.00098 -7c0.666992 -2 0.833984 -5 0.500977 -9
s-0.666016 -8.33301 -0.999023 -13s-0.833008 -9.33398 -1.5 -14.001s-1 -8 -1 -10c-2 -19.333 -7.5 -37.833 -16.5 -55.5s-20.167 -34 -33.5 -49s-28.166 -28.5 -44.499 -40.5s-32.833 -22 -49.5 -30c-21.333 -10 -42.333 -17.167 -63 -21.5s-39.667 -7.16602 -57 -8.49902
s-32.5 -1.83301 -45.5 -1.5s-22.5 0.166016 -28.5 -0.500977c-0.666992 0 -1 -4.66699 -1 -14s0.166992 -21.166 0.5 -35.499s0.833008 -30 1.5 -47s1.16699 -33.167 1.5 -48.5s0.833008 -28.666 1.5 -39.999s1.33398 -18.333 2.00098 -21
c0 -1.33301 0.166992 -4.33301 0.5 -9s0.5 -9.5 0.5 -14.5s-0.166992 -9.66699 -0.5 -14s-0.833008 -6.83301 -1.5 -7.5c-1.33301 -6 -6.33301 -10.333 -15 -13s-18.667 -4 -30 -4s-22.5 1.33301 -33.5 4s-18.833 6 -23.5 10zM247.995 624.997
c-9.33301 0 -18.834 -0.830078 -28.501 -2.49707s-19.167 -3.83398 -28.5 -6.50098c-4 -10.667 -6.5 -22 -7.5 -34s-1.5 -24.333 -1.5 -37s0.166992 -25.334 0.5 -38.001s0.5 -24.667 0.5 -36v-66v-9.5v-14v-15.5c0 -5.33301 0.333008 -10 1 -14
c25.333 -3.33301 48.333 -3.83301 69 -1.5s39.334 6.66602 56.001 12.999s31.834 14.166 45.501 23.499s26.5 19 38.5 29c21.333 18.667 34.166 40.334 38.499 65.001s2 47.667 -7 69s-24.167 39.5 -45.5 54.5s-47 22.5 -77 22.5h-26c-8.66699 0 -17.667 -0.333008 -27 -1z
" />
    <glyph glyph-name="Q" unicode="Q" horiz-adv-x="682" 
d="M404 115l-58.501 65.998c-16.333 18.667 -27.166 30.667 -32.499 36c0.666992 10.667 5 20.167 13 28.5s18.667 17.833 32 28.5c4.66699 0.666992 11.5 -2.83301 20.5 -10.5s18.667 -17 29 -28s20.666 -22.667 30.999 -35l26.5 -31.5
c6.66699 8.66699 12.334 17.334 17.001 26.001c12.667 22.667 23 49 31 79s12.667 61 14 93s-0.833984 63.333 -6.50098 94s-15.5 58 -29.5 82s-32.333 43 -55 57s-50.334 20.667 -83.001 20c-33.333 -1.33301 -62.166 -10 -86.499 -26s-44.666 -36.833 -60.999 -62.5
s-29.166 -54.5 -38.499 -86.5s-15 -64 -17 -96c-2.66699 -32 -1.83398 -63.5 2.49902 -94.5s14.5 -60.5 30.5 -88.5c15.333 -27.333 37.5 -46.666 66.5 -57.999s58.833 -15 89.5 -11c24 2.66699 45.667 8.66699 65 18zM613.999 -112.002
c-3.33301 2 -9.16211 7.16797 -17.4951 15.501l-30.5 32l-40 44l-46 50.5c-20.667 -13.333 -42.834 -23.833 -66.501 -31.5s-49.5 -11.5 -77.5 -11.5s-55.333 3.33301 -82 10s-52 17.334 -76 32.001c-11.333 6.66699 -21.333 13.667 -30 21s-16.5 15 -23.5 23
s-13.667 16.5 -20 25.5s-12.833 19.167 -19.5 30.5l-1 2c-8 12 -14.333 26.333 -19 43s-8.5 34.167 -11.5 52.5s-5.16699 36.333 -6.5 54s-2.33301 33.5 -3 47.5c-0.666992 29.333 2.16602 60.166 8.49902 92.499s16.166 63.833 29.499 94.5s30 58.834 50 84.501
s43.333 46.5 70 62.5c10 6 23.333 12.5 40 19.5s34.5 13.167 53.5 18.5s38.167 9 57.5 11s37 1.33301 53 -2c4.66699 0.666992 11.5 0.5 20.5 -0.5s18.333 -2.66699 28 -5s18.667 -4.83301 27 -7.5s14.5 -5.33398 18.5 -8.00098c25.333 -17.333 47 -37.5 65 -60.5
s33.333 -48.5 46 -76.5c5.33301 -12 10 -25.5 14 -40.5s7.33301 -30.5 10 -46.5s4.66699 -31.833 6 -47.5s2 -29.834 2 -42.501c0 -25.333 -2.16699 -50.833 -6.5 -76.5s-10.833 -51 -19.5 -76s-19.167 -49 -31.5 -72s-26.833 -44.167 -43.5 -63.5l38.5 -41.5l36.5 -41
l30.5 -35.5c9 -10.667 15.5 -19 19.5 -25c0 -4 -2.5 -9.16699 -7.5 -15.5s-10.833 -12.5 -17.5 -18.5s-12.834 -11 -18.501 -15s-8.83398 -6 -9.50098 -6z" />
    <glyph glyph-name="R" unicode="R" horiz-adv-x="588" 
d="M485 0l-27.499 28.999l-24.5 26.5l-24.5 28l-28.5 32.5c-10.667 12 -22 25.833 -34 41.5l-35.5 46c-11.667 15 -22.667 28.5 -33 40.5s-19.5 20.667 -27.5 26c-14 -1.33301 -26 -1.83301 -36 -1.5s-17.667 0.166016 -23 -0.500977c-0.666992 0 -1 -5 -1 -15
s0.166992 -22.833 0.5 -38.5s0.666016 -32.667 0.999023 -51s0.833008 -35.833 1.5 -52.5s1.16699 -31 1.5 -43s0.833008 -19.667 1.5 -23c0 -1.33301 0.166992 -4.33301 0.5 -9s0.5 -9.5 0.5 -14.5s-0.166992 -9.66699 -0.5 -14s-0.833008 -6.83301 -1.5 -7.5
c-1.33301 -6 -6.33301 -10.333 -15 -13s-18.667 -4 -30 -4s-22.5 1.33301 -33.5 4s-18.833 6 -23.5 10c-1.33301 19.333 -2.33301 42.666 -3 69.999s-1 56 -1 86v91.5v87.5v171c0 -2.66699 -0.333008 -0.5 -1 6.5s-1 16.667 -1 29s0.166992 26.166 0.5 41.499
s1.16602 29.833 2.49902 43.5s3.5 25.334 6.5 35.001s6.83301 15.5 11.5 17.5c6.66699 3.33301 11.834 5.33301 15.501 6s9.5 1 17.5 1c9.33301 0 19.333 1.16699 30 3.5s20.667 3.5 30 3.5s18.833 0.5 28.5 1.5s19.167 1.16699 28.5 0.5
c15.333 -0.666992 31.166 -1.66699 47.499 -3s31.5 -2.66602 45.5 -3.99902c23.333 -2.66699 44.666 -10.167 63.999 -22.5s36.666 -26.5 51.999 -42.5c16 -16.667 29.5 -35 40.5 -55s18.167 -41.667 21.5 -65c0.666992 -2.66699 1.33398 -5 2.00098 -7s1 -4.33301 1 -7
c0.666992 -2 0.833984 -5 0.500977 -9s-0.666016 -8.33301 -0.999023 -13s-0.833008 -9.33398 -1.5 -14.001s-1 -8 -1 -10c-2 -19.333 -7.66699 -36.333 -17 -51s-21 -27.5 -35 -38.5s-30 -20.833 -48 -29.5s-36.333 -16.667 -55 -24c6 -5.33301 13.667 -14.166 23 -26.499
l29 -39l29.5 -40.5c9.66699 -13.333 17.5 -23.666 23.5 -30.999c2.66699 -2.66699 4.33398 -4.66699 5.00098 -6l31 -37l30.5 -37c9.66699 -12 18.167 -23.167 25.5 -33.5s13 -18.833 17 -25.5c-1.33301 -3.33301 -5.83301 -6.16602 -13.5 -8.49902
s-16.834 -4.5 -27.501 -6.5s-21.667 -3.5 -33 -4.5s-21 -1.5 -29 -1.5zM251.001 597.999c-9.33301 0 -18.8311 -0.833008 -28.498 -2.5s-19.167 -3.83398 -28.5 -6.50098c-4 -10.667 -6.5 -22 -7.5 -34s-1.5 -24.333 -1.5 -37s0.166992 -25.334 0.5 -38.001
s0.5 -24.667 0.5 -36v-13c0 -1.33301 0.166992 -2 0.5 -2s0.5 -0.833008 0.5 -2.5v-12.5c0 -3.33301 -0.166992 -11.166 -0.5 -23.499s0.166992 -22.5 1.5 -30.5c51.333 -6 96.5 -4.16699 135.5 5.5s69.167 25.834 90.5 48.501c16 17.333 24.167 36.666 24.5 57.999
s-5.33398 41.333 -17.001 60s-28.834 34.334 -51.501 47.001s-49 19 -79 19c-9.33301 0 -15.833 0.333008 -19.5 1s-10.167 0.666992 -19.5 0z" />
    <glyph glyph-name="S" unicode="S" horiz-adv-x="593" 
d="M41 66c-2 7.33301 -2.66406 15.667 -1.99707 25s2.83398 19 6.50098 29s8.16699 19.5 13.5 28.5s11.333 17.167 18 24.5l31.5 -24.5c11 -8.33301 22.333 -16 34 -23s24 -13 37 -18s27.167 -7.5 42.5 -7.5c16 -0.666992 36 0.333008 60 3s47.167 8 69.5 16
s41.333 19 57 33s22.5 32.667 20.5 56c-1.33301 14.667 -7.66602 27 -18.999 37s-23 18 -35 24c-19.333 10 -39.833 18 -61.5 24l-64 17c-21 5.33301 -41 11.5 -60 18.5s-35.833 16.667 -50.5 29s-26.334 28.333 -35.001 48s-13 44.834 -13 75.501
c0 30 7.33301 57.667 22 83s34 47.5 58 66.5s51.333 34.833 82 47.5s62 21.5 94 26.5s63.167 6 93.5 3s57.5 -10.167 81.5 -21.5c1.33301 -8 2.16602 -16.667 2.49902 -26s-0.166992 -18 -1.5 -26c-3.33301 -5.33301 -5.83301 -12.333 -7.5 -21
s-6.16699 -16.334 -13.5 -23.001h1c-9.33301 0 -18.333 1 -27 3s-17.667 3.66699 -27 5c-25.333 2.66699 -51.333 3.5 -78 2.5s-52 -5.5 -76 -13.5s-45.5 -20.167 -64.5 -36.5s-32.833 -38.166 -41.5 -65.499c1.33301 -12 5.16602 -23.333 11.499 -34s14 -20 23 -28
s19.167 -14.667 30.5 -20s23 -9 35 -11c14 -2 30.833 -5 50.5 -9s39.667 -9 60 -15s39.666 -12.833 57.999 -20.5s32.833 -16.5 43.5 -26.5c14 -12 22.667 -24.333 26 -37s6.33301 -27.667 9 -45c6.66699 -45.333 0.166992 -83.333 -19.5 -114
s-46.334 -55.334 -80.001 -74.001s-70.834 -31.667 -111.501 -39s-79 -10.333 -115 -9c-30.667 1.33301 -60.167 8 -88.5 20s-55.166 26.333 -80.499 43z" />
    <glyph glyph-name="T" unicode="T" horiz-adv-x="488" 
d="M475 586c-4.66699 -1.33301 -12.8301 -2.6709 -24.4971 -4.00391s-25.5 -2.5 -41.5 -3.5l-54 -3.5c-20 -1.33301 -40.667 -2.33301 -62 -3c-0.666992 -22 -1.33398 -46.167 -2.00098 -72.5l-2 -80.5c-0.666992 -27.333 -1.16699 -54.166 -1.5 -80.499
s-0.5 -49.833 -0.5 -70.5c0 -26 0.333008 -52 1 -78l2 -78c0 -8.66699 0.5 -17.5 1.5 -26.5s1.16699 -17.833 0.5 -26.5c-1.33301 -8.66699 -1.5 -17.5 -0.5 -26.5s0.166992 -17.5 -2.5 -25.5c-1.33301 -0.666992 -4.5 -1.83398 -9.5 -3.50098s-10.333 -3.16699 -16 -4.5
s-11 -2.66602 -16 -3.99902s-8.16699 -2 -9.5 -2c-10 -4 -20 -3.66699 -30 1s-15.667 8.66699 -17 12c-5.33301 11.333 -9.33301 30.5 -12 57.5s-4.16699 58.333 -4.5 94s0 73.834 1 114.501s2.33301 79.834 4 117.501s3.5 72.334 5.5 104.001s3.66699 56.5 5 74.5
c-36.667 -1.33301 -69.834 -2.33301 -99.501 -3s-50.167 -1.33398 -61.5 -2.00098c-10.667 8.66699 -16.5 19.834 -17.5 33.501s-1.16699 30.5 -0.5 50.5c4 5.33301 15 9.5 33 12.5s37.833 5.16699 59.5 6.5s42.667 2.16602 63 2.49902s34.5 0.833008 42.5 1.5
c16 0.666992 35.5 1.66699 58.5 3s46.667 2.33301 71 3s48 1 71 1s42.167 -0.666992 57.5 -2c4 -3.33301 6.83301 -9.66602 8.5 -18.999s2.66699 -19 3 -29s0.166016 -19.167 -0.500977 -27.5s-1.66699 -12.833 -3 -13.5z" />
    <glyph glyph-name="U" unicode="U" horiz-adv-x="587" 
d="M143 48c-15.333 10.667 -28.3281 25.1699 -38.9951 43.5029s-19.5 38.166 -26.5 59.499s-12.167 42.833 -15.5 64.5s-5 41.5 -5 59.5c0 59.333 1 119.166 3 179.499s7.66699 119.833 17 178.5c9.33301 6.66699 20 10.5 32 11.5s23.667 3.16699 35 6.5l25 -2
c8.66699 -0.666992 14 -6.33398 16 -17.001c0.666992 -3.33301 0.333984 -10.5 -0.999023 -21.5l-4.5 -37c-1.66699 -13.667 -3.5 -26.667 -5.5 -39s-3.33301 -21.5 -4 -27.5c-2.66699 -20.667 -5 -45.667 -7 -75s-3 -59.5 -3 -90.5s1.33301 -60.833 4 -89.5
s7 -52.667 13 -72c7.33301 -21.333 17.666 -39.666 30.999 -54.999s28.666 -26.5 45.999 -33.5s36 -9.66699 56 -8s40 8.5 60 20.5c4 2 8.33301 5.16699 13 9.5s9.16699 9 13.5 14l13 14.5c4.33301 4.66699 7.83301 9 10.5 13c6.66699 10 11.667 23.167 15 39.5
s5.83301 32.666 7.5 48.999s2.5 31 2.5 44v23.5l2 62c0.666992 17.333 1.16699 35.666 1.5 54.999s0.833008 36 1.5 50c0 8.66699 0.166992 16.334 0.5 23.001s0.5 13 0.5 19v19.5c0 7 0.333008 15.5 1 25.5c0 2 -0.166992 7.16699 -0.5 15.5s-0.5 17.333 -0.5 27
s0.166992 18.5 0.5 26.5s1.16602 12.667 2.49902 14l31 3c6.66699 0.666992 12.667 0.666992 18 0c0 -0.666992 2.66699 -1 8 -1s11.166 0.166992 17.499 0.5s12.166 0.5 17.499 0.5s8 -0.333008 8 -1c1.33301 -10 1.66602 -19.667 0.999023 -29s-1 -19 -1 -29
c0 -32.667 -0.5 -67 -1.5 -103s-2.5 -70.333 -4.5 -103c-0.666992 -9.33301 -0.5 -23.833 0.5 -43.5s0.333008 -42.5 -2 -68.5s-7.33301 -54.833 -15 -86.5s-20.167 -64.167 -37.5 -97.5c-16.667 -32 -39.5 -55.667 -68.5 -71s-60.167 -23.833 -93.5 -25.5
s-66.833 2.5 -100.5 12.5s-63.167 24 -88.5 42z" />
    <glyph glyph-name="V" unicode="V" horiz-adv-x="555" 
d="M493 473c-4 -12.667 -8.49414 -25 -13.4941 -37s-9.16699 -24.333 -12.5 -37l-46.5 -162c-15.667 -54 -33.167 -107.333 -52.5 -160c-1.33301 -2.66699 -3.33301 -7.83398 -6 -15.501s-5.66699 -15.667 -9 -24l-9.5 -23.5c-3 -7.33301 -5.5 -12 -7.5 -14
c-2 0 -8 -0.833008 -18 -2.5s-20.833 -3.16699 -32.5 -4.5s-22.5 -2.33301 -32.5 -3s-15.333 -0.333984 -16 0.999023c-3.33301 4.66699 -6.66602 11.5 -9.99902 20.5s-6.66602 18.5 -9.99902 28.5s-6.33301 19.667 -9 29s-5.33398 17 -8.00098 23
c-6.66699 15.333 -15.5 38 -26.5 68l-35.5 101.5l-38.5 118.5l-36 118.5c-11 37.667 -20 71.5 -27 101.5s-11.167 52.667 -12.5 68c3.33301 4 9.16602 7 17.499 9s17.5 3.5 27.5 4.5s19.5 1.16699 28.5 0.5s15.833 -1.66699 20.5 -3c4 -4 7.33301 -9.5 10 -16.5
s5 -14.667 7 -23s3.83301 -17.333 5.5 -27s3.83398 -18.834 6.50098 -27.501l14.5 -50l13 -45l13 -45c4.33301 -15.333 9.5 -31.666 15.5 -48.999l32.5 -100.5c10.333 -33 21.5 -66.167 33.5 -99.5c0.666992 -2.66699 1.83398 -6.16699 3.50098 -10.5
s3.16699 -9.16602 4.5 -14.499c2 -6 3.66699 -12 5 -18l6 20c1.33301 5.33301 2.66602 10.333 3.99902 15s2.66602 8 3.99902 10c15.333 42.667 29.666 85.334 42.999 128.001s27.666 85.334 42.999 128.001l30.5 83c10.333 27.333 20.166 55 29.499 83
c5.33301 16 9.66602 29.667 12.999 41s8.33301 24.666 15 39.999c5.33301 4.66699 13 7.16699 23 7.5s20.167 -0.833984 30.5 -3.50098s19.666 -6.66699 27.999 -12s13.5 -11.666 15.5 -18.999c-9.33301 -32 -21.333 -65.5 -36 -100.5s-27.334 -68.5 -38.001 -100.5z" />
    <glyph glyph-name="W" unicode="W" horiz-adv-x="790" 
d="M483 390l26.999 -92.4951l27 -92.5c1.33301 -2.66699 2.5 -6.66699 3.5 -12s2.16699 -10.666 3.5 -15.999c1.33301 6 2.83301 12 4.5 18s2.83398 10 3.50098 12l34 120.5l36 120.5l24.5 81.5l24.5 82.5c4.66699 15.333 8.33398 28.666 11.001 39.999s7 24.666 13 39.999
c4.66699 5.33301 11.5 8.33301 20.5 9s18 -0.5 27 -3.5s17.167 -7.5 24.5 -13.5s12 -13 14 -21c-8.66699 -32 -18.834 -65 -30.501 -99s-21.834 -67 -30.501 -99l-10.5 -36c-3.66699 -12 -7.16699 -24.333 -10.5 -37c-12 -53.333 -24.667 -104.666 -38 -153.999l-43 -152
c-0.666992 -2 -2.16699 -6.83301 -4.5 -14.5s-5 -15.834 -8 -24.501l-8.5 -24.5c-2.66699 -7.66699 -5 -12.834 -7 -15.501c-0.666992 0 -2.33398 -0.666992 -5.00098 -2l-9 -4.5l-10 -5c-3.33301 -1.66699 -6 -2.5 -8 -2.5c-3.33301 -0.666992 -7.83301 -1 -13.5 -1
s-11.334 0.333008 -17.001 1s-10.834 1.5 -15.501 2.5s-7.33398 2.5 -8.00098 4.5c-3.33301 5.33301 -6.16602 12.5 -8.49902 21.5s-5.16602 18.5 -8.49902 28.5c-2.66699 9.33301 -5.16699 18.666 -7.5 27.999s-4.5 17 -6.5 23c-4.66699 12 -10.5 28.667 -17.5 50
s-14.5 45.666 -22.5 72.999l-25.5 88.5c-9 31.667 -17.5 63.834 -25.5 96.501l-1 -5c-10.667 -54 -23 -107.333 -37 -160s-28.667 -105 -44 -157c-0.666992 -2 -2.16699 -6.83301 -4.5 -14.5s-5 -15.834 -8 -24.501l-8.5 -24.5c-2.66699 -7.66699 -5 -12.5 -7 -14.5
c-1.33301 0 -4.33301 -2.5 -9 -7.5s-9 -7.83301 -13 -8.5c-3.33301 -0.666992 -8.33301 -1 -15 -1s-13.5 0.333008 -20.5 1s-13.333 1.66699 -19 3s-8.83398 3 -9.50098 5c-3.33301 5.33301 -6.33301 12.666 -9 21.999l-8 28c-3.33301 10 -6 19.5 -8 28.5s-4 16.5 -6 22.5
c-5.33301 14.667 -12.333 36.334 -21 65.001l-28 95.5l-30 110l-27.5 110c-8.33301 35 -15.333 66.833 -21 95.5s-8.83398 50.667 -9.50098 66c3.33301 4.66699 8.83301 8.16699 16.5 10.5s15.834 4 24.501 5s16.834 1.16699 24.501 0.5s13.5 -1.66699 17.5 -3
c4 -4.66699 7.16699 -10.667 9.5 -18s4.16602 -15.333 5.49902 -24s2.83301 -17.5 4.5 -26.5s3.5 -17.833 5.5 -26.5c4 -18 7.5 -33.167 10.5 -45.5l8.5 -35l8.5 -35c3 -12.333 6.83301 -27.166 11.5 -44.499l27 -98l27 -98c1.33301 -2.66699 2.5 -6.5 3.5 -11.5
s2.16699 -10.167 3.5 -15.5c1.33301 5.33301 2.83301 11 4.5 17s2.83398 10 3.50098 12l34 126c11.333 42 23.333 84 36 126c6 20.667 12.333 41.167 19 61.5s12.667 40.833 18 61.5c2.66699 9.33301 6.33398 16.666 11.001 21.999s9.33398 9.33301 14.001 12
s9.16699 4.16699 13.5 4.5s7.5 0.166016 9.5 -0.500977c13.333 1.33301 23.833 -1.5 31.5 -8.5s12.834 -16.167 15.501 -27.5c0 -1.33301 0.166992 -2.5 0.5 -3.5s0.5 -1.83301 0.5 -2.5v-2l11.5 -49.5l10.5 -44.5c3.33301 -14.667 7 -29.5 11 -44.5z" />
    <glyph glyph-name="X" unicode="X" horiz-adv-x="556" 
d="M565 637c-10 -10 -21.5 -23.002 -34.5 -39.002l-42 -53l-45.5 -60l-44 -60l-38.5 -53.5l-28.5 -39.5c11.333 -17.333 23.666 -35 36.999 -53s27.166 -35.667 41.499 -53s28.666 -33.833 42.999 -49.5s28.166 -29.834 41.499 -42.501c10.667 -10 20.667 -18.833 30 -26.5
s18.666 -14.5 27.999 -20.5c6.66699 -4.66699 12.834 -8.66699 18.501 -12l16.5 -10c-6 -10 -13.667 -19.333 -23 -28s-19.333 -15.667 -30 -21s-21.167 -8.5 -31.5 -9.5s-19.166 0.833008 -26.499 5.5l-18 15l-9.5 7.5l-9.5 7.5c-4 5.33301 -8.66699 10.5 -14 15.5
l-16 15.5l-17.5 15.5c-5.66699 5 -10.5 9.83301 -14.5 14.5c-3.33301 4 -9.16602 10.333 -17.499 19s-13.833 15.334 -16.5 20.001l-33 42l-21 24.5c-8 9 -16.333 17.167 -25 24.5c-3.33301 -2 -8.66602 -7.16699 -15.999 -15.5s-15.5 -18.166 -24.5 -29.499l-28.5 -37
c-10 -13.333 -19 -26.333 -27 -39l-26 -40l-24 -37l-19.5 -27c-5.66699 -8 -10.5 -14.333 -14.5 -19c-4 0 -9.83301 1.33301 -17.5 4s-15.667 5.83398 -24 9.50098l-25 11.5l-20.5 10c2.66699 15.333 11.334 36.333 26.001 63s32.334 55.334 53.001 86.001l66.5 93l53.5 74
l-38.5 73.5l-36.5 68c-12 22.333 -23.5 44.833 -34.5 67.5s-21.5 47 -31.5 73c4 3.33301 9.66699 7 17 11l23 12.5l23.5 12.5c7.66699 4 14.5 7.33301 20.5 10l23.5 -50l26.5 -56l35.5 -69.5c13 -25 28.167 -49.833 45.5 -74.5l21 21.5c8 8.33301 16.667 18.166 26 29.499
l28.5 37.5l32.5 42.5l33.5 43.5l31.5 39.5l27.5 32c8.33301 9.33301 15.5 16.333 21.5 21c7.33301 0.666992 15.333 -1.5 24 -6.5s17 -12.5 25 -22.5c2 -3.33301 4.66699 -6.33301 8 -9s6.66602 -5 9.99902 -7l5 -3v0z" />
    <glyph glyph-name="Y" unicode="Y" horiz-adv-x="559" 
d="M212 30c-1.33301 44.667 -1.16211 87.9971 0.504883 129.997s-0.833008 81.333 -7.5 118l-28 42l-23.5 38l-34 56.5l-38 66c-13 23 -24.833 45.167 -35.5 66.5s-19.5 40.5 -26.5 57.5s-10.5 30.167 -10.5 39.5c10.667 3.33301 18.667 7 24 11s13.666 7.66699 24.999 11
c6.66699 2 13 4 19 6c5.33301 1.33301 10.166 2.66602 14.499 3.99902s7.16602 1.33301 8.49902 0c3.33301 -7.33301 6.66602 -15.166 9.99902 -23.499s7.33301 -17.166 12 -26.499l63.5 -124c21.667 -40.667 46.167 -80.334 73.5 -119.001h5
c7.33301 9.33301 13.666 19.333 18.999 30l16 31l33.5 61l48.5 84.5l50.5 81.5c16.333 25.333 29.5 42.666 39.5 51.999c10 -1.33301 18.667 -2.83301 26 -4.5s14.166 -4.16699 20.499 -7.5s12.5 -8.16602 18.5 -14.499s12.667 -14.5 20 -24.5
c-9.33301 -19.333 -20.833 -38.166 -34.5 -56.499s-26.167 -36.5 -37.5 -54.5l-19.5 -32.5l-25 -42.5l-27.5 -47.5l-27 -48.5l-65 -118c-1.33301 -5.33301 -2.33301 -14.166 -3 -26.499s-1 -21.166 -1 -26.499l3 -87c0 -9.33301 0.333008 -20.333 1 -33
s1.16699 -25.334 1.5 -38.001s0.333008 -24 0 -34s-1.16602 -16.667 -2.49902 -20c-3.33301 -3.33301 -10.5 -6.16602 -21.5 -8.49902s-22.667 -3.83301 -35 -4.5s-23.5 -0.666992 -33.5 0s-15.333 2.66699 -16 6z" />
    <glyph glyph-name="Z" unicode="Z" horiz-adv-x="603" 
d="M86 -2c-6 0 -11.6738 -0.666016 -17.0068 -1.99902s-10.666 -2.33301 -15.999 -3c-4.66699 0 -8.83398 0.166992 -12.501 0.5s-7.16699 1.83301 -10.5 4.5l-3.5 12c-1 3.33301 -2.16699 6.66602 -3.5 9.99902c-2 6.66699 -3 12.667 -3 18s0.5 11.166 1.5 17.499
s3.16699 15.166 6.5 26.499c2.66699 10 11.334 25.667 26.001 47s32.5 45.333 53.5 72l68 84l71.5 84.5l63.5 72l42.5 47.5c8 8.66699 15.833 18.167 23.5 28.5s17.834 22.166 30.501 35.499l-71.5 6c-24.333 2 -48.666 3.33301 -72.999 4s-48 0.666992 -71 0
s-44.5 -2.66699 -64.5 -6c-10.667 -1.33301 -21 -3.16602 -31 -5.49902s-20.667 -3.83301 -32 -4.5c-0.666992 4 -1.66699 7.83301 -3 11.5l-4 10.5c-3.33301 10 -4 17.667 -2 23l-2 59c10.667 5.33301 23.667 8 39 8s29 0.666992 41 2
c4 0.666992 15.167 1.33398 33.5 2.00098s40 1.16699 65 1.5s52.167 0.5 81.5 0.5s57.333 -0.166992 84 -0.5s50.334 -1 71.001 -2s35.334 -2.5 44.001 -4.5c8 -0.666992 15.667 -4.16699 23 -10.5s13.166 -14.333 17.499 -24s6.66602 -20.667 6.99902 -33
s-2.5 -24.5 -8.5 -36.5l-23 -21c-14 -12.667 -31 -29.834 -51 -51.501l-64 -72l-69.5 -83l-68.5 -85.5l-60 -79.5c-18 -25 -32.333 -46.5 -43 -64.5c18.667 -3.33301 36 -5.33301 52 -6s32 -0.333984 48 0.999023c15.333 0.666992 31.333 1.66699 48 3l49 4
c32 2.66699 62.5 4.33398 91.5 5.00098s54.167 -2.33301 75.5 -9c2 -12 3.83301 -22.167 5.5 -30.5s2.83398 -16.166 3.50098 -23.499c0.666992 -6.66699 0.333984 -13 -0.999023 -19s-3.66602 -13.667 -6.99902 -23c-8 -1.33301 -23.5 -2 -46.5 -2s-48.5 0.333008 -76.5 1
c-14.667 0 -29.167 0.166992 -43.5 0.5s-27.666 0.666016 -39.999 0.999023s-23.333 0.5 -33 0.5h-21.5c-32.667 -1.33301 -64.5 -1.66602 -95.5 -0.999023s-62.5 0.333984 -94.5 -0.999023z" />
    <glyph glyph-name="bracketleft" unicode="[" horiz-adv-x="317" 
d="M88 730c1.33301 16.667 2.66895 30.6689 4.00195 42.002s2.5 20.5 3.5 27.5s1.83301 12.5 2.5 16.5s1 7 1 9c11.333 0 21.166 -0.166992 29.499 -0.5s16.166 -0.666016 23.499 -0.999023l23 -1c8 -0.333008 17.667 -0.5 29 -0.5c1.33301 0 6.33301 0.5 15 1.5
s18 1.83301 28 2.5s19 1.16699 27 1.5s12.667 -0.166992 14 -1.5c-1.33301 -8 -1.83301 -14.833 -1.5 -20.5s1 -10.834 2 -15.501l3 -14.5c1 -5 1.5 -10.833 1.5 -17.5c-4.66699 -1.33301 -11.667 -2 -21 -2h-30h-31c-10 0 -18 -0.333008 -24 -1
c-7.33301 -102.667 -13.5 -205.334 -18.5 -308.001s-5.83301 -205.667 -2.5 -309c0.666992 -22 1 -44 1 -66v-66c7.33301 -0.666992 16.666 -2 27.999 -4l34 -6c12.667 -2.66699 26 -5.33398 40 -8.00098c0.666992 -2.66699 1.66699 -8.33398 3 -17.001
s1.33301 -14.667 0 -18c1.33301 -4 0.166016 -9 -3.50098 -15s-8.16699 -10 -13.5 -12c-14 0 -28.167 0.333008 -42.5 1l-43.5 2c-14.667 1.33301 -30.667 3.33301 -48 6s-33.333 4.66699 -48 6c-3.33301 11.333 -4.66602 21.666 -3.99902 30.999s0.666992 19.666 0 30.999
c0 3.33301 0.166992 16.833 0.5 40.5s0.833008 52.334 1.5 86.001s1.5 70 2.5 109s2 75.333 3 109l2.5 86c0.666992 23.667 1 37.167 1 40.5c2.66699 42.667 3.83398 85.334 3.50098 128.001s1.16699 85.334 4.5 128.001z" />
    <glyph glyph-name="backslash" unicode="\" horiz-adv-x="460" 
d="M88 718c8 -6.66699 18.832 -20.6689 32.499 -42.002s29.167 -47.666 46.5 -78.999s35.666 -66.333 54.999 -105l58.5 -118.5l57 -119.5l50 -109l38.5 -86c10.667 -24 18 -41 22 -51c-2 -3.33301 -6.66699 -6.16602 -14 -8.49902s-15.666 -4.16602 -24.999 -5.49902
s-18.166 -2.5 -26.499 -3.5s-14.5 -1.83301 -18.5 -2.5l-29 60l-24 47.5l-20.5 40l-18.5 36.5l-128.5 267c-41.667 88.667 -89.5 174.667 -143.5 258c6 12 17.667 19.667 35 23s35 2.66602 53 -2.00098z" />
    <glyph glyph-name="bracketright" unicode="]" horiz-adv-x="317" 
d="M274 22c-1.33301 -17.333 -2.66895 -31.5 -4.00195 -42.5s-2.5 -20 -3.5 -27s-1.83301 -12.5 -2.5 -16.5s-1 -7 -1 -9c-11.333 0 -21.166 0.166992 -29.499 0.5s-16.166 0.666016 -23.499 0.999023s-15.166 0.666016 -23.499 0.999023s-18.166 0.5 -29.499 0.5
c-1.33301 0 -6.33301 -0.5 -15 -1.5s-17.834 -1.83301 -27.501 -2.5s-18.667 -1.16699 -27 -1.5s-12.833 0.166992 -13.5 1.5c1.33301 8 1.83301 14.667 1.5 20s-1 10.5 -2 15.5l-3 14.5c-1 4.66699 -1.5 10.334 -1.5 17.001c4.66699 1.33301 11.667 2.16602 21 2.49902
s19.166 0.5 29.499 0.5h31c10.333 0 18.5 0.333008 24.5 1c7.33301 102.667 13.5 205.167 18.5 307.5s5.83301 205.166 2.5 308.499c-0.666992 22 -1 44 -1 66v66c-7.33301 0.666992 -16.666 2.16699 -27.999 4.5s-22.666 4.5 -33.999 6.5
c-12.667 2.66699 -26.334 5.33398 -41.001 8.00098c0 2.66699 -0.666992 8.33398 -2 17.001s-1.33301 14.334 0 17.001c-1.33301 4.66699 -0.166016 9.83398 3.50098 15.501s8.16699 9.83398 13.5 12.501c14 0 28.167 -0.333008 42.5 -1s28.833 -1.66699 43.5 -3
c14.667 -0.666992 30.5 -2.33398 47.5 -5.00098s33.167 -4.66699 48.5 -6c3.33301 -11.333 4.66602 -21.666 3.99902 -30.999s-0.666992 -19.666 0 -30.999c0 -3.33301 -0.166992 -16.833 -0.5 -40.5s-0.833008 -52.5 -1.5 -86.5s-1.5 -70.333 -2.5 -109
s-2 -74.834 -3 -108.501l-2.5 -86c-0.666992 -23.667 -1 -37.167 -1 -40.5c-2.66699 -42.667 -3.83398 -85.334 -3.50098 -128.001s-1.16699 -85.334 -4.5 -128.001z" />
    <glyph glyph-name="asciicircum" unicode="^" horiz-adv-x="551" 
d="M211 644c1.33301 2 4.50098 5.50684 9.50098 10.5068s8.16699 8.5 9.5 10.5c4 -0.666992 9.66699 -0.833984 17 -0.500977s15.166 0.666016 23.499 0.999023s16.166 0.5 23.499 0.5h17c5.33301 -6.66699 12.166 -16.334 20.499 -29.001s14.5 -22.334 18.5 -29.001
l24.5 -37.5l26.5 -37.5c4.66699 -7.33301 8.83398 -13.333 12.501 -18s7.33398 -9 11.001 -13l11.5 -13l14 -17l11 -13c4 -4.66699 7.33301 -9.33398 10 -14.001c-8.66699 -5.33301 -19.167 -9.5 -31.5 -12.5s-23.5 -3.83301 -33.5 -2.5c-2.66699 1.33301 -7.5 6 -14.5 14
l-24.5 29l-29.5 37l-29.5 38.5c-9.33301 12.333 -17.333 23.5 -24 33.5l-14 21c-17.333 -17.333 -32.166 -36.5 -44.499 -57.5s-24.833 -40.5 -37.5 -58.5c-5.33301 -7.33301 -10.833 -16.833 -16.5 -28.5s-11.167 -20.834 -16.5 -27.501
c-13.333 -0.666992 -25.166 -0.666992 -35.499 0s-23.833 5.66699 -40.5 15c3.33301 4 5.66602 7.66699 6.99902 11s3 7 5 11l24.5 45.5c8.33301 15 17.833 30.167 28.5 45.5l14 19.5c5.33301 7.66699 11.166 15.5 17.499 23.5l18.5 23c6 7.33301 11.667 13.666 17 18.999z
" />
    <glyph glyph-name="underscore" unicode="_" horiz-adv-x="368" 
d="M379 -182c-4.66699 -1.33301 -16.168 -2.33203 -34.501 -2.99902s-40.166 -1 -65.499 -1s-52.333 0.333008 -81 1s-56 1.16699 -82 1.5s-48.833 0.666016 -68.5 0.999023s-33.167 0.5 -40.5 0.5c-7.33301 7.33301 -11.5 17 -12.5 29s-0.833008 26.667 0.5 44
c2.66699 4.66699 12 7.66699 28 9s33.5 2 52.5 2s37.167 -0.166992 54.5 -0.5s29 -0.5 35 -0.5h45.5c19 0 38.833 -0.333008 59.5 -1s40.334 -1.5 59.001 -2.5s33.667 -2.16699 45 -3.5c2.66699 -2.66699 4.66699 -8 6 -16s2 -16.333 2 -25s-0.333008 -16.5 -1 -23.5
s-1.33398 -10.833 -2.00098 -11.5z" />
    <glyph glyph-name="grave" unicode="`" horiz-adv-x="290" 
d="M209 586c2 -6 0.833008 -9.83301 -3.5 -11.5s-8.5 -4.16699 -12.5 -7.5c-6 -5.33301 -11.167 -8 -15.5 -8s-9.5 -1.33301 -15.5 -4c-6 16 -14.833 29.833 -26.5 41.5s-23.667 22.834 -36 33.501l-36 32.5c-11.667 11 -20.834 23.5 -27.501 37.5
c0.666992 2 3.33398 4.83301 8.00098 8.5s10.167 7.16699 16.5 10.5s13.333 5.83301 21 7.5s15.167 1.5 22.5 -0.5c6.66699 -4.66699 15 -11.834 25 -21.501s20.167 -20.667 30.5 -33s20 -26 29 -41s15.833 -29.833 20.5 -44.5z" />
    <glyph glyph-name="a" unicode="a" horiz-adv-x="422" 
d="M343 380c12 -17.333 20.1689 -38.3291 24.502 -62.9961s6.83301 -50.5 7.5 -77.5s0.166992 -53.667 -1.5 -80s-2.83398 -49.5 -3.50098 -69.5l-1 -1c0 -14 -0.5 -30 -1.5 -48s-1.5 -31.667 -1.5 -41c-9.33301 -0.666992 -18.333 -1.83398 -27 -3.50098
s-17.667 -2.5 -27 -2.5c-3.33301 6.66699 -8 12 -14 16s-9.33301 10 -10 18l-10.5 -3.5c-3 -1 -6 -2.16699 -9 -3.5s-6.83301 -2.66602 -11.5 -3.99902l-18 -5l-27.5 -6c-9 -2 -18.167 -3 -27.5 -3c-1.33301 0 -2 -0.333008 -2 -1c-21.333 0 -42.166 2 -62.499 6
s-39.166 13.667 -56.499 29c-22 18.667 -33 42.334 -33 71.001v3v14c0 18 5.33301 34 16 48s23.834 26 39.501 36s32.5 18.167 50.5 24.5s34.667 10.833 50 13.5s31.166 4 47.499 4s32.166 1.33301 47.499 4c-0.666992 10.667 -0.833984 21.667 -0.500977 33
s-1.16699 22.333 -4.5 33c-4 14.667 -11.5 25.167 -22.5 31.5s-23.333 9.66602 -37 9.99902s-27.334 -1.5 -41.001 -5.5s-25.5 -9.33301 -35.5 -16c-11.333 -7.33301 -21.333 -15.833 -30 -25.5s-17 -19.5 -25 -29.5c-1.33301 0 -3.83301 1.5 -7.5 4.5l-12 10l-12 10.5
c-3.66699 3.33301 -6.16699 5 -7.5 5c12 31.333 30.667 57.666 56 78.999s52.5 35.666 81.5 42.999s58 6.66602 87 -2.00098s53.167 -27.334 72.5 -56.001zM287.002 187.004c-2.66699 2 -6.66797 2.83105 -12.001 2.49805s-9.66602 0.166992 -12.999 1.5
c-18 0 -33.333 -1.66699 -46 -5s-27.667 -8 -45 -14c-1.33301 -0.666992 -3 -1.16699 -5 -1.5s-3.66699 -1.16602 -5 -2.49902c-8 -3.33301 -16.667 -9 -26 -17s-14.666 -16.667 -15.999 -26v-8.5c0 -2.33301 0.666992 -5.16602 2 -8.49902
c3.33301 -9.33301 13.5 -15.5 30.5 -18.5s35.167 -3.83301 54.5 -2.5s37 4.33301 53 9s24.333 9.66699 25 15c1.33301 11.333 2.16602 24 2.49902 38s0.5 26.667 0.5 38z" />
    <glyph glyph-name="b" unicode="b" horiz-adv-x="465" 
d="M135 25c-4 -5.33301 -6.98926 -9.5 -8.98926 -12.5s-3.66699 -7.16699 -5 -12.5c-10 -0 -22 0.333008 -36 1s-24.333 3 -31 7c-4.66699 32.667 -7.33398 66 -8.00098 100s-0.333984 68 0.999023 102s3 68.167 5 102.5s3 68.5 3 102.5l1 1c0 17.333 0.5 34.333 1.5 51
s1.5 33.667 1.5 51c0 7.33301 -0.166992 14.333 -0.5 21s0.166992 13.667 1.5 21c1.33301 11.333 1.5 21.5 0.5 30.5s-0.833008 19.167 0.5 30.5c14.667 9.33301 27.667 13.5 39 12.5s21.666 -1.16699 30.999 -0.5h9c2.66699 0 5.33398 -1.33301 8.00098 -4
c0 -7.33301 -0.333008 -19 -1 -35s-1.5 -34.167 -2.5 -54.5l-3 -63c-1 -21.667 -1.83301 -42.167 -2.5 -61.5s-0.833984 -36 -0.500977 -50s1.5 -23.333 3.5 -28c7.33301 2.66699 15.5 6.33398 24.5 11.001s18.167 9 27.5 13s18.666 7.66699 27.999 11s18 5 26 5
c40 1.33301 73.167 -5.5 99.5 -20.5s46.166 -34.5 59.499 -58.5s20.666 -50.833 21.999 -80.5s-2.83398 -58.334 -12.501 -86.001s-24.334 -52.5 -44.001 -74.5s-43.834 -37.667 -72.501 -47c-14 -4.66699 -29.333 -7.16699 -46 -7.5s-32.834 0.5 -48.501 2.5
s-29.834 4.83301 -42.501 8.5s-22 7.5 -28 11.5zM143.011 260c-2.66699 -13.333 -4.5 -25.1689 -5.5 -35.502s-1.5 -21.833 -1.5 -34.5v-84c0 -12 7.66699 -19.833 23 -23.5s33.333 -3.83398 54 -0.500977s41.5 10 62.5 20s37.167 23.333 48.5 40
c7.33301 10 13 20.667 17 32s6 23.333 6 36c0 24 -4.83301 42.667 -14.5 56s-22 22.5 -37 27.5s-31.667 6.33301 -50 4s-36.5 -7.16602 -54.5 -14.499c-6.66699 -3.33301 -15 -6.66602 -25 -9.99902s-17.667 -7.66602 -23 -12.999z" />
    <glyph glyph-name="c" unicode="c" horiz-adv-x="435" 
d="M323 22c-42 -22 -80.835 -33.334 -116.502 -34.001s-66.334 6 -92.001 20s-45.834 33.667 -60.501 59s-22.834 53.166 -24.501 83.499s4.33301 61.5 18 93.5s35.834 61.667 66.501 89c50.667 44.667 110.334 68 179.001 70c13.333 0.666992 26.5 0.166992 39.5 -1.5
s25.5 -5.5 37.5 -11.5c4 -6 6.33301 -11.667 7 -17s0.666992 -10.666 0 -15.999s-2 -11 -4 -17s-3.33301 -12.333 -4 -19c-2 -8 -5.33301 -12.833 -10 -14.5s-10 -2 -16 -1s-12.167 2.5 -18.5 4.5s-12.166 2.33301 -17.499 1c-5.33301 2 -13.333 2.33301 -24 1
s-18.667 -0.666016 -24 2.00098c-25.333 -3.33301 -47.666 -11.5 -66.999 -24.5s-35 -28.333 -47 -46s-20 -36.5 -24 -56.5s-3.33301 -38.333 2 -55s15.833 -30.5 31.5 -41.5s36.834 -16.5 63.501 -16.5c31.333 0 60.333 8.16699 87 24.5s51 34.5 73 54.5
c9.33301 -4 16.833 -9.5 22.5 -16.5s9.16699 -19.167 10.5 -36.5c-2 -7.33301 -6.5 -15 -13.5 -23s-14.833 -15.5 -23.5 -22.5s-17.667 -13.333 -27 -19s-17.333 -10.167 -24 -13.5z" />
    <glyph glyph-name="d" unicode="d" horiz-adv-x="468" 
d="M408 29c-3.33301 -2 -7.33301 -3.49805 -12 -4.49805s-8.66699 -2.16699 -12 -3.5c-16 -4 -27.667 -6.33301 -35 -7s-12.333 0.833008 -15 4.5s-4 9.66699 -4 18s-0.666992 19.166 -2 32.499l-16 -12c-4.66699 -3.33301 -9.16699 -6.33301 -13.5 -9s-9 -5.16699 -14 -7.5
s-10.833 -4.83301 -17.5 -7.5c-2.66699 -1.33301 -6.33398 -2.5 -11.001 -3.5s-9.5 -2.16699 -14.5 -3.5s-10 -2.5 -15 -3.5s-8.83301 -1.83301 -11.5 -2.5c-11.333 -3.33301 -22.5 -4.33301 -33.5 -3s-22.167 3.33301 -33.5 6c-38 9.33301 -66.5 27 -85.5 53
s-30 55.333 -33 88s1.66699 65.667 14 99s31.166 62.333 56.499 87c21.333 20 44.833 36.167 70.5 48.5s53.5 18.5 83.5 18.5h16.5c6.33301 0 11.5 -0.666992 15.5 -2c9.33301 -2 16.5 -3.83301 21.5 -5.5l21.5 -7.5c3.33301 15.333 4.33301 30.833 3 46.5
s-1.66602 31.167 -0.999023 46.5c0.666992 22 1 44.5 1 67.5s1.66699 45.167 5 66.5c1.33301 7.33301 2.16602 14.166 2.49902 20.499s-0.166992 13.166 -1.5 20.499l40 1h24c2.66699 0 5.33398 -0.333008 8.00098 -1c2.66699 -12 4.33398 -32.833 5.00098 -62.5
s0.666992 -61.667 0 -96l-2 -99c-0.666992 -31.667 -1 -55.5 -1 -71.5c0 -25.333 0.5 -51.166 1.5 -77.499s1.83301 -53 2.5 -80s0.5 -53.5 -0.5 -79.5s-3.5 -51 -7.5 -75zM323 324.002c-8.66699 6 -17.499 9.66602 -26.499 10.999s-18.5 1.66602 -28.5 0.999023
c-18.667 -1.33301 -36.834 -5.33301 -54.501 -12s-33.667 -16 -48 -28s-26 -26.167 -35 -42.5s-14.167 -34.166 -15.5 -53.499c-1.33301 -11.333 -1 -21.833 1 -31.5s6.33301 -19.167 13 -28.5c11.333 -16 26.333 -25.667 45 -29
c6.66699 -1.33301 17.5 -1.66602 32.5 -0.999023s30.667 2.66699 47 6s31 8.33301 44 15s20.833 15 23.5 25c2 8.66699 3.83301 20.334 5.5 35.001s2.66699 30.167 3 46.5s0 32.166 -1 47.499s-2.83301 28.333 -5.5 39z" />
    <glyph glyph-name="e" unicode="e" horiz-adv-x="481" 
d="M411 47c-2.66699 -2.66699 -6.67285 -6.33301 -12.0059 -11s-9.66602 -8 -12.999 -10c-37.333 -22.667 -76.666 -36.834 -117.999 -42.501s-79.666 -2 -114.999 11s-64.5 35.833 -87.5 68.5s-34.5 76 -34.5 130c0 29.333 5 57 15 83s24 50.333 42 73s40.5 41.5 67.5 56.5
s54.833 24 83.5 27s56.167 -0.666992 82.5 -11s48.166 -29.166 65.499 -56.499c6.66699 -10.667 12 -22.167 16 -34.5s6.33301 -24.833 7 -37.5c0.666992 -6.66699 1.33398 -14 2.00098 -22s0.333984 -15.333 -0.999023 -22c-3.33301 -14.667 -7.33301 -28.334 -12 -41.001
c-2 -5.33301 -8 -9.83301 -18 -13.5s-21 -6.5 -33 -8.5s-23.667 -3.5 -35 -4.5s-19.333 -1.83301 -24 -2.5c-26.667 -2.66699 -53.167 -4.5 -79.5 -5.5s-52.833 -1.83301 -79.5 -2.5l-6 -4c-2 -7.33301 -2 -14.666 0 -21.999c2 -17.333 8.33301 -31.333 19 -42
s23 -19 37 -25s29 -10.167 45 -12.5s30.667 -3.5 44 -3.5c10.667 1.33301 20.167 3 28.5 5s16.833 5.5 25.5 10.5s18.167 12 28.5 21s22.833 21.167 37.5 36.5c1.33301 0.666992 4.33301 -2 9 -8s9.5 -12.833 14.5 -20.5l14 -22c4.33301 -7 6.83301 -11.167 7.5 -12.5
c-1.33301 -4 -4.66602 -8.5 -9.99902 -13.5s-9.66602 -8.83301 -12.999 -11.5zM332.994 249.001c2.66699 2 4.50586 4.66797 5.50586 8.00098s1.5 6.66602 1.5 9.99902c1.33301 8.66699 0.666016 18.834 -2.00098 30.501s-6.33398 21.167 -11.001 28.5
c-12.667 21.333 -29.667 34 -51 38s-42.833 1.5 -64.5 -7.5s-40.834 -23.167 -57.501 -42.5s-26.334 -42 -29.001 -68c3.33301 -4 7.66602 -6.66699 12.999 -8c1.33301 -0.666992 6.66602 -0.833984 15.999 -0.500977s20.833 0.833008 34.5 1.5s28.5 1.5 44.5 2.5
s31 1.83301 45 2.5s26.167 1.5 36.5 2.5s16.5 1.83301 18.5 2.5z" />
    <glyph glyph-name="f" unicode="f" horiz-adv-x="331" 
d="M326 343c-4 -1.33301 -10.6621 -2.33301 -19.9951 -3s-20.5 -1.33398 -33.5 -2.00098s-27.333 -1.16699 -43 -1.5s-31.5 -0.833008 -47.5 -1.5c-1.33301 -34 -1.66602 -67.667 -0.999023 -101s1 -66.666 1 -99.999c0 -17.333 -0.166992 -32.666 -0.5 -45.999
s-0.166016 -27.666 0.500977 -42.999c0 -6.66699 -0.5 -15 -1.5 -25s-1.5 -17 -1.5 -21c-2 0 -5 -0.166992 -9 -0.5s-8.33301 -0.666016 -13 -0.999023s-8.83398 -0.666016 -12.501 -0.999023s-6.5 -0.166016 -8.5 0.500977c-6.66699 0.666992 -13.334 2 -20.001 4
s-12.667 3.33301 -18 4c-4.66699 17.333 -6.5 36.333 -5.5 57s1.83301 40 2.5 58c0.666992 35.333 1.5 70.166 2.5 104.499s1.5 69.166 1.5 104.499v4c-15.333 0 -28.833 -0.166992 -40.5 -0.5s-20.167 -0.5 -25.5 -0.5c-7.33301 7.33301 -11.5 16.833 -12.5 28.5
s-1.16699 26.167 -0.5 43.5c3.33301 5.33301 13.166 9 29.499 11s33.166 3.33301 50.499 4c0.666992 20.667 2.5 41.167 5.5 61.5s7.5 40 13.5 59s14.167 37 24.5 54s23.5 32.167 39.5 45.5c14 11.333 27.167 18.666 39.5 21.999s27.166 5.66602 44.499 6.99902
c13.333 0.666992 25.666 1 36.999 1s21.833 -1.83301 31.5 -5.5s18.667 -9.5 27 -17.5s15.833 -19.667 22.5 -35c4.66699 -10.667 7.66699 -19 9 -25s-1 -13.667 -7 -23c-2.66699 -0.666992 -6.83398 -1.5 -12.501 -2.5l-17.5 -3c-6 -1 -11.5 -1.83301 -16.5 -2.5
s-7.83301 -0.666992 -8.5 0c-4 0.666992 -7 3.66699 -9 9s-4 9.66602 -6 12.999c0 7.33301 -3.33301 12 -10 14s-14.167 2.5 -22.5 1.5s-16.666 -2.83301 -24.999 -5.5s-14.5 -5 -18.5 -7c-8.66699 -5.33301 -16 -11.833 -22 -19.5s-10.833 -16.334 -14.5 -26.001
s-6.5 -19.5 -8.5 -29.5s-3.66699 -19.333 -5 -28l-6 -57c22 1.33301 45.667 2.33301 71 3s47 -0.666016 65 -3.99902c2.66699 -2.66699 4.66699 -8 6 -16s2 -16.333 2 -25s-0.333008 -16.5 -1 -23.5s-1.33398 -10.833 -2.00098 -11.5z" />
    <glyph glyph-name="g" unicode="g" horiz-adv-x="476" 
d="M316 140c4 7.33301 8.33398 18.334 13.001 33.001s8.5 30.167 11.5 46.5s4.5 31.666 4.5 45.999s-2.66699 24.5 -8 30.5c-12 14 -26.167 23.833 -42.5 29.5s-32.833 8 -49.5 7s-33 -5.33301 -49 -13s-29.667 -17.834 -41 -30.501
c-9.33301 -10.667 -16.833 -22.667 -22.5 -36s-9.83398 -26.666 -12.501 -39.999c-6 -34 -2.83301 -59.667 9.5 -77s29 -28 50 -32s44 -2.5 69 4.5s47.5 17.5 67.5 31.5zM36.001 -108.999c6.66699 11.333 15.1748 20.6611 25.5078 27.9941s20.166 15.333 29.499 24
c7.33301 -9.33301 15.166 -18.666 23.499 -27.999s17.333 -17.5 27 -24.5s20.167 -12.5 31.5 -16.5s23.666 -5.33301 36.999 -4c44.667 4.66699 75.667 19.834 93 45.501s26 59.167 26 100.5v1c0 7.33301 -0.333008 14.833 -1 22.5l-2 22.5
c-14 -8.66699 -28.5 -16.667 -43.5 -24s-30.333 -13.333 -46 -18s-31.667 -7.16699 -48 -7.5s-32.5 2.5 -48.5 8.5c-34.667 12 -60.834 30.167 -78.501 54.5s-28.334 51 -32.001 80s-1 58.833 8 89.5s23 58.667 42 84s42 46 69 62s57.167 24 90.5 24
c19.333 0 38 -3.5 56 -10.5s35.667 -15.167 53 -24.5c2 6 4.16699 11.5 6.5 16.5s4.16602 10.5 5.49902 16.5c5.33301 2.66699 11 3.33398 17 2.00098s11 -4 15 -8l38 -8c-2.66699 -32 -4.83398 -63.333 -6.50098 -94s-3.16699 -62 -4.5 -94
c-1.33301 -13.333 -2 -27.166 -2 -41.499s-0.666992 -28.5 -2 -42.5c0.666992 -0.666992 1 -1.66699 1 -3c0 -23.333 0.166992 -47.166 0.5 -71.499s-1 -48.5 -4 -72.5s-9 -47 -18 -69s-22.5 -41.667 -40.5 -59c-15.333 -14.667 -32.333 -26.167 -51 -34.5
s-38.167 -14 -58.5 -17s-41 -3.5 -62 -1.5s-40.833 6.66699 -59.5 14c-7.33301 2.66699 -15.5 6.83398 -24.5 12.501s-17.667 12.167 -26 19.5s-15.833 15 -22.5 23s-11.334 15.667 -14.001 23z" />
    <glyph glyph-name="h" unicode="h" horiz-adv-x="436" 
d="M381 21c-4.66699 -0.666992 -9.33398 -1.1709 -14.001 -1.50391s-9.33398 -1.16602 -14.001 -2.49902c-9.33301 -3.33301 -18 -4.33301 -26 -3s-15.667 3.66602 -23 6.99902c0.666992 24 1.33398 45 2.00098 63s1.66699 39 3 63c0.666992 14 0.833984 28.5 0.500977 43.5
s-1.5 29.5 -3.5 43.5c-5.33301 32.667 -15.833 54.167 -31.5 64.5s-32.334 13.333 -50.001 9s-34.167 -14 -49.5 -29s-25 -31.167 -29 -48.5c-8 -34 -12.333 -68.333 -13 -103s-1 -69 -1 -103v-24c-5.33301 0 -12 -0.333008 -20 -1s-16 -1 -24 -1s-15.333 1.16699 -22 3.5
s-11 6.5 -13 12.5c0 4 0.166992 19.333 0.5 46s0.5 59.334 0.5 98.001s0.166992 80.834 0.5 126.501s0.5 89.5 0.5 131.5c0 36 -0.333008 68.833 -1 98.5s-1.16699 55.5 -1.5 77.5s-0.5 39.333 -0.5 52s0.666992 19.667 2 21c0.666992 1.33301 2.66699 2.33301 6 3
s7 1.16699 11 1.5s7.66699 0.5 11 0.5s6 0.333008 8 1c3.33301 2.66699 9.16602 2.66699 17.499 0s14.5 -4 18.5 -4c0.666992 -3.33301 1.33398 -13.5 2.00098 -30.5s1.16699 -37.5 1.5 -61.5s0.5 -50 0.5 -78s0.166992 -54.167 0.5 -78.5s0.5 -45.166 0.5 -62.499v-32
c16.667 19.333 36.5 36.166 59.5 50.499s46 22.833 69 25.5s44.833 -1.66602 65.5 -12.999s37.334 -32.666 50.001 -63.999s19.5 -64.5 20.5 -99.5s1.16699 -68.833 0.5 -101.5c0 -7.33301 -0.166992 -15.5 -0.5 -24.5s-1 -18.167 -2 -27.5s-2.5 -18.333 -4.5 -27
s-4.66699 -16 -8 -22z" />
    <glyph glyph-name="i" unicode="i" horiz-adv-x="198" 
d="M127 566c12.667 -6.66699 21.1689 -15.667 25.502 -27s5.16602 -22.833 2.49902 -34.5s-8.16699 -22 -16.5 -31s-18.833 -14.5 -31.5 -16.5c-18 -2.66699 -32.5 0.5 -43.5 9.5s-17.667 20 -20 33s-0.333008 26.333 6 40s18.166 24.167 35.499 31.5
c9.33301 4 17.333 4.83301 24 2.5s12.667 -4.83301 18 -7.5zM59.002 331c0 6 0.333008 14.166 1 24.499s1.33398 17.5 2.00098 21.5c4 0 11.167 0.666992 21.5 2s17.5 1.33301 21.5 0c6.66699 -0.666992 13.334 -2 20.001 -4s12.667 -3.33301 18 -4
c1.33301 -6 2.33301 -17.833 3 -35.5s1 -38.167 1 -61.5s-0.166992 -48.166 -0.5 -74.499s-0.833008 -51.333 -1.5 -75s-1.33398 -44.334 -2.00098 -62.001s-1.33398 -29.5 -2.00098 -35.5s-5.16699 -10.167 -13.5 -12.5s-17.5 -3.66602 -27.5 -3.99902s-19.667 0 -29 1
s-15.333 1.5 -18 1.5c0 6 0.166992 17.167 0.5 33.5s0.833008 35.5 1.5 57.5s1.16699 45.167 1.5 69.5s0.833008 47.333 1.5 69s1 40.5 1 56.5v32z" />
    <glyph glyph-name="j" unicode="j" horiz-adv-x="262" 
d="M172 566c12.667 -6.66699 21.1689 -15.667 25.502 -27s5.16602 -22.833 2.49902 -34.5s-8.16699 -22 -16.5 -31s-18.833 -14.5 -31.5 -16.5c-18 -2.66699 -32.5 0.5 -43.5 9.5s-17.667 20 -20 33s-0.333008 26.333 6 40s18.166 24.167 35.499 31.5
c9.33301 4 17.333 4.83301 24 2.5s12.667 -4.83301 18 -7.5zM-100.998 -187c2.66699 0.666992 6.83203 1.50293 12.499 2.50293l17.5 3c6 1 11.333 1.83301 16 2.5s7.66699 0.666992 9 0c4 -0.666992 7 -3.66699 9 -9s4 -9.66602 6 -12.999c0 -7.33301 3.33301 -12 10 -14
s14.167 -2.5 22.5 -1.5s16.666 2.83301 24.999 5.5s14.5 5 18.5 7c8.66699 4.66699 16 11 22 19s10.833 16.833 14.5 26.5s6.5 19.334 8.5 29.001s3.66699 19.167 5 28.5c7.33301 56.667 10.666 113.834 9.99902 171.501s-1 114.834 -1 171.501
c0 17.333 0.166992 32.666 0.5 45.999s0.166016 27.666 -0.500977 42.999c0 6 0.5 14.167 1.5 24.5s1.5 17.5 1.5 21.5c2 0 5 0.166992 9 0.5s8.33301 0.666016 13 0.999023s8.83398 0.666016 12.501 0.999023s6.5 0.166016 8.5 -0.500977
c6.66699 -0.666992 13.334 -2 20.001 -4s12.667 -3.33301 18 -4c4.66699 -17.333 6.5 -36.333 5.5 -57s-1.83301 -40 -2.5 -58c-0.666992 -35.333 -1 -70.166 -1 -104.499s-0.666992 -69.166 -2 -104.499c-0.666992 -26 -1.16699 -53.5 -1.5 -82.5s-3 -57.167 -8 -84.5
s-13.167 -53.5 -24.5 -78.5s-28.333 -46.5 -51 -64.5c-14 -11.333 -27.167 -18.833 -39.5 -22.5s-27.166 -6.16699 -44.499 -7.5c-13.333 -0.666992 -25.666 -0.833984 -36.999 -0.500977s-21.833 2.16602 -31.5 5.49902s-18.667 9.16602 -27 17.499
s-15.833 20.166 -22.5 35.499c-4.66699 10.667 -7.66699 19 -9 25s1 13.667 7 23z" />
    <glyph glyph-name="k" unicode="k" horiz-adv-x="458" 
d="M264 267c5.33301 -13.333 14.833 -28.6641 28.5 -45.9971s28.834 -35.333 45.501 -54l49.5 -54c16.333 -17.333 29.833 -32.333 40.5 -45c3.33301 -4 6.83301 -7.66699 10.5 -11s6.5 -7 8.5 -11c-1.33301 -4 -4.66602 -7.83301 -9.99902 -11.5
s-9.66602 -6.5 -12.999 -8.5c-3.33301 -2.66699 -7.83301 -5.5 -13.5 -8.5s-10.834 -4.5 -15.501 -4.5c-18 0 -35.833 8.16699 -53.5 24.5s-35 35 -52 56l-51 62c-17 20.333 -34.5 34.166 -52.5 41.499c-11.333 -4 -21.5 -9.83301 -30.5 -17.5s-15.167 -15.5 -18.5 -23.5
l3 -109c0 -10.667 -1.16699 -18.334 -3.5 -23.001s-5.83301 -7.66699 -10.5 -9s-10.334 -1.5 -17.001 -0.5s-13.667 2.16699 -21 3.5c-6 1.33301 -12 2.33301 -18 3s-11 3.66699 -15 9c-4 25.333 -4.83301 50.666 -2.5 75.999s2.83301 50.666 1.5 75.999
c-2 44 -2.83301 87.5 -2.5 130.5s1.16602 86.5 2.49902 130.5c0.666992 38.667 1.66699 77.167 3 115.5s4.66602 76.5 9.99902 114.5c10 2.66699 19 6.66699 27 12h22.5c7 0 13.833 -3 20.5 -9c2 -6 3.33301 -18.5 4 -37.5s1 -41.5 1 -67.5s-0.166992 -54 -0.5 -84
s-0.833008 -58.833 -1.5 -86.5s-1.16699 -52.667 -1.5 -75s-0.5 -39.166 -0.5 -50.499c5.33301 1.33301 13.666 6.5 24.999 15.5l38.5 32l45.5 39l46 38.5c14.667 12 27.834 22 39.501 30s20.834 12 27.501 12c2 0 4.83301 -1.33301 8.5 -4s7.66699 -6 12 -10
s8.33301 -8.66699 12 -14s6.16699 -11 7.5 -17c-1.33301 -3.33301 -8 -11 -20 -23s-25.833 -25.167 -41.5 -39.5l-45 -41z" />
    <glyph glyph-name="l" unicode="l" horiz-adv-x="205" 
d="M61 23c-1.33301 10 -2.16699 21.6699 -2.5 35.0029s-0.333008 27 0 41l1 41c0.333008 13.333 0.166016 25 -0.500977 35c-0.666992 20 -1.16699 36.167 -1.5 48.5s-0.5 24 -0.5 35s0.166992 22.667 0.5 35s0.5 28.5 0.5 48.5l1 95
c0.666992 38 1.83398 76.167 3.50098 114.5s5.16699 76.5 10.5 114.5c8.66699 2.66699 17.667 6.66699 27 12c8.66699 0 16.167 0.166992 22.5 0.5s12.833 -2.83398 19.5 -9.50098c3.33301 -10 5 -19.667 5 -29c0 -54.667 -0.5 -109 -1.5 -163s-1.5 -108 -1.5 -162
c0 -46 0.333008 -91.667 1 -137s1 -91 1 -137c0 -10.667 -1.33301 -18.5 -4 -23.5s-6.5 -8 -11.5 -9s-10.667 -1 -17 0s-12.833 2.16699 -19.5 3.5c-6 1.33301 -12 2.16602 -18 2.49902s-11 3.16602 -15 8.49902z" />
    <glyph glyph-name="m" unicode="m" horiz-adv-x="646" 
d="M356 340c17.333 20 36.8213 37.1621 58.4883 51.4951s43.334 23 65.001 26s42.334 -1.16699 62.001 -12.5s35.834 -33 48.501 -65c12.667 -31.333 19.5 -64.333 20.5 -99s1.16699 -68.667 0.5 -102c0 -6.66699 -0.333008 -15.834 -1 -27.501s-1.66699 -23.667 -3 -36
s-3.16602 -24.166 -5.49902 -35.499s-5.16602 -20 -8.49902 -26c-4.66699 -0.666992 -9 -1.16699 -13 -1.5s-8 -1.16602 -12 -2.49902c-9.33301 -3.33301 -18.166 -3.16602 -26.499 0.500977l-23.5 10.5c0.666992 46.667 2.66699 94.334 6 143.001
c0.666992 14 0.666992 28.667 0 44s-2 30 -4 44c-5.33301 32.667 -15.666 53.334 -30.999 62.001s-31.166 7.33398 -47.499 -3.99902s-31 -31.666 -44 -60.999s-19.833 -66 -20.5 -110c0 -6.66699 -0.166992 -15.5 -0.5 -26.5s-1.16602 -22.167 -2.49902 -33.5
s-3 -22.333 -5 -33s-4.66699 -19 -8 -25c-4.66699 -0.666992 -9.33398 -1.16699 -14.001 -1.5s-9.33398 -1.16602 -14.001 -2.49902c-9.33301 -3.33301 -18 -4.33301 -26 -3s-15.667 3.66602 -23 6.99902c0.666992 46.667 2.66699 94.334 6 143.001
c0.666992 14 0.666992 28.667 0 44s-2 30 -4 44c-3.33301 22 -8.66602 38.667 -15.999 50s-15.833 18.833 -25.5 22.5s-19.667 3.83398 -30 0.500977s-20.166 -8.83301 -29.499 -16.5s-17.5 -16.834 -24.5 -27.501s-11.833 -22 -14.5 -34
c-7.33301 -34 -11.5 -68.167 -12.5 -102.5s-1.5 -68.5 -1.5 -102.5v-24c-5.33301 0 -12 -0.5 -20 -1.5s-16 -1.33301 -24 -1s-15.333 1.5 -22 3.5s-11 6 -13 12c0 5.33301 -0.166992 18.166 -0.5 38.499s-0.5 44.333 -0.5 72s-0.166992 57.167 -0.5 88.5
s-0.166016 60.166 0.500977 86.499s1.5 48.666 2.5 66.999s2.5 28.5 4.5 30.5c2 2.66699 7.5 4 16.5 4s15.5 0.666992 19.5 2c3.33301 2.66699 7.5 3.33398 12.5 2.00098s9.5 -2 13.5 -2c2.66699 -9.33301 4.83398 -21.833 6.50098 -37.5s2.83398 -29.5 3.50098 -41.5
c16.667 19.333 35.5 36.166 56.5 50.499s41.667 23 62 26s39.833 -1.16699 58.5 -12.5s34.667 -32.666 48 -63.999v-1v0z" />
    <glyph glyph-name="n" unicode="n" horiz-adv-x="434" 
d="M376 14l-13.999 -2.00391c-4.66699 -0.666992 -9 -1.66699 -13 -3c-18 -5.33301 -34.667 -3.66602 -50 5.00098c1.33301 47.333 3.33301 95 6 143c0.666992 14 0.666992 28.5 0 43.5s-2 29.5 -4 43.5c-5.33301 32.667 -15.833 54.167 -31.5 64.5
s-32.334 13.333 -50.001 9s-34 -14 -49 -29s-24.5 -31.167 -28.5 -48.5c-8 -34 -12.5 -68.333 -13.5 -103s-1.5 -69 -1.5 -103v-24c-5.33301 0 -12 -0.333008 -20 -1s-16 -1 -24 -1s-15.167 1.16699 -21.5 3.5s-10.833 6.5 -13.5 12.5v37.5
c0 19.667 -0.166992 42.834 -0.5 69.501s-0.5 54.834 -0.5 84.501s0.166992 57.334 0.5 83.001s1 47.167 2 64.5s2.5 27 4.5 29c0.666992 1.33301 2.66699 2.33301 6 3s7 1.16699 11 1.5s7.66699 0.5 11 0.5s6 0.333008 8 1c3.33301 2.66699 7.66602 3.33398 12.999 2.00098
s9.66602 -2 12.999 -2c3.33301 -9.33301 5.83301 -19.5 7.5 -30.5s2.5 -22.167 2.5 -33.5c17.333 19.333 37.5 36.166 60.5 50.499s46 23 69 26s44.833 -1.16699 65.5 -12.5s37.334 -33 50.001 -65c12.667 -31.333 19.5 -64.333 20.5 -99s1.16699 -68.667 0.5 -102
c0 -6.66699 -0.166992 -15.5 -0.5 -26.5s-1.16602 -22.167 -2.49902 -33.5s-3 -22.333 -5 -33s-4.66699 -19 -8 -25z" />
    <glyph glyph-name="o" unicode="o" horiz-adv-x="479" 
d="M242 435c20 1.33301 40.499 0 61.499 -4s40.167 -12 57.5 -24c28.667 -19.333 50.334 -43.333 65.001 -72s22.667 -58.5 24 -89.5s-3.16699 -62 -13.5 -93s-25.666 -58.5 -45.999 -82.5s-45.333 -43.167 -75 -57.5s-63.167 -20.5 -100.5 -18.5
c-15.333 0.666992 -30.333 3.66699 -45 9c-30.667 10.667 -56.167 25.5 -76.5 44.5s-35.833 40.667 -46.5 65s-16.5 50 -17.5 77s2.66699 53.5 11 79.5s21.166 50.333 38.499 73s39.333 42 66 58c7.33301 4.66699 15.5 9.5 24.5 14.5s18.167 9.16699 27.5 12.5
c7.33301 2.66699 15 4.5 23 5.5s15.333 1.83301 22 2.5zM363.999 243c0 21.333 -4.66797 40.168 -14.001 56.501s-21.5 29.166 -36.5 38.499s-31.833 15 -50.5 17s-37 -0.666992 -55 -8s-34.667 -19.333 -50 -36s-27.333 -39 -36 -67l-6 -19.5
c-2 -6.33301 -3 -12.833 -3 -19.5c0 -13.333 1 -26.5 3 -39.5s6.33301 -25.167 13 -36.5c12 -20.667 30.833 -33.834 56.5 -39.501s51.834 -3.66699 78.501 6s50 26.834 70 51.501s30 56.667 30 96z" />
    <glyph glyph-name="p" unicode="p" horiz-adv-x="478" 
d="M144 354c2.66699 3.33301 9 8.66309 19 15.9961s19.333 13.666 28 18.999c15.333 8.66699 29.666 14 42.999 16s28 4.66699 44 8l3 -1c22.667 -4.66699 42 -9.66699 58 -15s32.667 -17 50 -35c34 -35.333 51 -76.666 51 -123.999c0 -36 -7.5 -66.667 -22.5 -92
s-35.833 -49.333 -62.5 -72c-11.333 -9.33301 -25.166 -18.833 -41.499 -28.5s-33.5 -17.5 -51.5 -23.5s-35.833 -9.66699 -53.5 -11s-33.834 1.66699 -48.501 9c-5.33301 0 -9.5 1.66699 -12.5 5s-7.16699 5.33301 -12.5 6c0 -22 -0.333008 -44.167 -1 -66.5
s-1.66699 -44.5 -3 -66.5l3 -90c-7.33301 -2 -13 -3.83301 -17 -5.5s-7.83301 -2.66699 -11.5 -3s-7.66699 -0.166016 -12 0.500977s-9.83301 2.33398 -16.5 5.00098c-1.33301 0.666992 -5.16602 2 -11.499 4s-9.83301 3.33301 -10.5 4c-2 2 -3 5.66699 -3 11v424v31
c0 8 -0.166992 15.5 -0.5 22.5s-0.5 14.5 -0.5 22.5v31c0 7.33301 -0.5 16 -1.5 26s-1.16699 18.667 -0.5 26c2 0.666992 5.83301 1.83398 11.5 3.50098s12.667 3.16699 21 4.5s17.833 2.33301 28.5 3s21.667 0.333984 33 -0.999023c0 -8 -0.333008 -14.333 -1 -19
s-1.16699 -9 -1.5 -13s-0.333008 -8.33301 0 -13s1.5 -10.667 3.5 -18zM139 109.997c20 -10.667 42.6641 -12.6689 67.9971 -6.00195c18.667 4.66699 36.834 10.5 54.501 17.5s33.334 15.833 47.001 26.5s24.667 23.834 33 39.501s12.5 34.834 12.5 57.501
c0 24 -8.33301 41.833 -25 53.5s-36.167 18.5 -58.5 20.5s-44.833 -0.5 -67.5 -7.5s-40 -16.833 -52 -29.5c-4.66699 -4.66699 -8 -15 -10 -31s-3.33301 -33.333 -4 -52s-0.666992 -36.5 0 -53.5s1.33398 -28.833 2.00098 -35.5z" />
    <glyph glyph-name="q" unicode="q" horiz-adv-x="481" 
d="M413 -173c-8 -1.33301 -16.9922 -1.00293 -26.9922 0.99707s-19.333 2.33301 -28 1c-4.66699 1.33301 -10.334 1 -17.001 -1s-12 -1.66699 -16 1c0 39.333 1 81 3 125s2 85.667 0 125c-14 -8.66699 -28.5 -16.834 -43.5 -24.501s-30.333 -13.667 -46 -18
s-31.5 -6.66602 -47.5 -6.99902s-32.333 2.16699 -49 7.5c-34 11.333 -59.833 28.833 -77.5 52.5s-28.5 50.167 -32.5 79.5s-1.83301 59.5 6.5 90.5s21.833 59.167 40.5 84.5s41.667 46.166 69 62.499s58 24.5 92 24.5c19.333 0 38.166 -3.33301 56.499 -10
s36.166 -14.667 53.499 -24c2 8 4.16699 13.333 6.5 16s4.16602 8 5.49902 16c3.33301 2.66699 8.66602 3.33398 15.999 2.00098s12.666 -3.66602 15.999 -6.99902c0.666992 0 2.66699 -0.333008 6 -1s7.16602 -1.5 11.499 -2.5s8.33301 -2 12 -3s6.16699 -1.83301 7.5 -2.5
c-6.66699 -87.333 -11.5 -172.166 -14.5 -254.499s-4.16699 -167.166 -3.5 -254.499c0 -11.333 0.166992 -24.5 0.5 -39.5s0.166016 -28.167 -0.500977 -39.5zM318.008 156.997c3.33301 6.66699 7.33301 17.501 12 32.501s8.5 30.667 11.5 47s4.66699 31.666 5 45.999
s-2.5 24.5 -8.5 30.5c-12.667 13.333 -27 23 -43 29s-32.333 8.5 -49 7.5s-32.834 -5.33301 -48.501 -13s-29.5 -18.167 -41.5 -31.5c-9.33301 -10.667 -16.666 -22.5 -21.999 -35.5s-9.33301 -26.5 -12 -40.5c-4 -22.667 -3.83301 -41.5 0.5 -56.5s11.5 -26.667 21.5 -35
s22.167 -13.666 36.5 -15.999s29.5 -2.5 45.5 -0.5s32 6.16699 48 12.5s30.667 14.166 44 23.499z" />
    <glyph glyph-name="r" unicode="r" horiz-adv-x="356" 
d="M333 352c-5.33301 -0.666992 -10.334 -0.836914 -15.001 -0.503906s-9.33398 0.5 -14.001 0.5c-1.33301 0.666992 -3.83301 1 -7.5 1s-6.16699 -0.333008 -7.5 -1c-18 -4.66699 -34.667 -12 -50 -22s-29.166 -21.5 -41.499 -34.5s-23.166 -26.667 -32.499 -41
s-17 -27.833 -23 -40.5c0 -11.333 0.166992 -26.333 0.5 -45s0.5 -37.834 0.5 -57.501s-0.333008 -38.334 -1 -56.001s-2 -31.5 -4 -41.5c-1.33301 -6 -5.83301 -10.167 -13.5 -12.5s-16.167 -3.66602 -25.5 -3.99902s-18.666 -0.166016 -27.999 0.500977
s-16.333 1.33398 -21 2.00098c0 64.667 0.5 128.834 1.5 192.501s1.5 127.834 1.5 192.501c0 7.33301 0.333008 14.833 1 22.5l2 23.5c6 0 13.333 0.666992 22 2s15.667 1.33301 21 0c8 -2 15.167 -5.5 21.5 -10.5s12.5 -13.167 18.5 -24.5c2 -8.66699 3 -17.667 3 -27
s0.333008 -18.333 1 -27h1c9.33301 8.66699 19.166 18.334 29.499 29.001s22.833 20.167 37.5 28.5s32 14.5 52 18.5s44.333 3.66699 73 -1c3.33301 -2.66699 5.33301 -7.16699 6 -13.5s0.5 -13 -0.5 -20s-2.33301 -13.667 -4 -20s-3.16699 -10.833 -4.5 -13.5z" />
    <glyph glyph-name="s" unicode="s" horiz-adv-x="424" 
d="M363 200c11.333 -8 18.1738 -15.8281 20.5068 -23.4951s4.83301 -17.834 7.5 -30.501c4 -20 3.16699 -37.833 -2.5 -53.5s-14.834 -29.167 -27.501 -40.5s-27.667 -21 -45 -29s-35.333 -14.167 -54 -18.5s-37.334 -7.5 -56.001 -9.5s-35.334 -2.66699 -50.001 -2
c-23.333 1.33301 -45.333 5.83301 -66 13.5s-41 17.167 -61 28.5c2 6 3.66699 13 5 21s3 16.167 5 24.5s4.66699 16.166 8 23.499s7.66602 13.666 12.999 18.999l15 -12c4.66699 -4.66699 10.667 -9.66699 18 -15s15.166 -10.166 23.499 -14.499
s16.666 -7.83301 24.999 -10.5s15.833 -4 22.5 -4c42 -1.33301 75.167 3.5 99.5 14.5s36.166 25.5 35.499 43.5c0 8 -4 14.667 -12 20s-14.667 9.33301 -20 12c-18 8 -38.833 14 -62.5 18s-45.834 9.66699 -66.501 17s-38.167 18.333 -52.5 33s-21.5 37 -21.5 67
c0 19.333 5 36.833 15 52.5s23.167 29.5 39.5 41.5s34.833 22 55.5 30s41.667 14.167 63 18.5s42 6.33301 62 6s37.667 -2.83301 53 -7.5c3.33301 -1.33301 8 -3 14 -5s10.667 -4 14 -6c2.66699 -7.33301 2.33398 -13.5 -0.999023 -18.5s-5.66602 -11.167 -6.99902 -18.5
c-1.33301 -1.33301 -2.33301 -3.66602 -3 -6.99902l-2 -10.5c-0.666992 -3.66699 -1.16699 -7.16699 -1.5 -10.5s-1.16602 -5 -2.49902 -5c-6.66699 -0.666992 -13.5 -0.333984 -20.5 0.999023s-14.167 2.33301 -21.5 3c-14.667 1.33301 -30.334 1.83301 -47.001 1.5
s-32.834 -2.5 -48.501 -6.5s-30.167 -10.333 -43.5 -19s-23.666 -20.667 -30.999 -36l-1 -2c0.666992 -6.66699 3.16699 -12.834 7.5 -18.501s9.66602 -10.5 15.999 -14.5s12.833 -7.33301 19.5 -10s13 -4.33398 19 -5.00098c15.333 -2 30.666 -4.5 45.999 -7.5
s29.833 -6.66699 43.5 -11s25.834 -8.83301 36.501 -13.5s19 -9.33398 25 -14.001z" />
    <glyph glyph-name="t" unicode="t" horiz-adv-x="372" 
d="M326 343c-7.33301 -2 -24.1699 -3.50488 -50.5029 -4.50488s-55.5 -1.83301 -87.5 -2.5c-0.666992 -27.333 -1.16699 -54.333 -1.5 -81s-1.16602 -55 -2.49902 -85c-0.666992 -18 2.5 -32.667 9.5 -44s18.833 -21.666 35.5 -30.999c7.33301 -4 17.166 -6.66699 29.499 -8
s23.166 3 32.499 13c8.66699 4.66699 16.834 6.33398 24.501 5.00098s14.5 -4.33301 20.5 -9s10.833 -9.66699 14.5 -15s5.83398 -9.66602 6.50098 -12.999c-8 -16 -15.667 -28.167 -23 -36.5s-15 -14.333 -23 -18s-16.833 -5.66699 -26.5 -6s-20.834 -0.5 -33.501 -0.5
c-18 0.666992 -32.833 2.5 -44.5 5.5s-24.167 9.83301 -37.5 20.5c-22 18 -38 35.167 -48 51.5s-16.833 33.333 -20.5 51s-5 36.834 -4 57.501l3.5 70c0.666992 11.333 1.16699 23 1.5 35s0.5 24.333 0.5 37c-15.333 -0.666992 -29.166 -1 -41.499 -1h-27.5
c-7.33301 7.33301 -11.333 17 -12 29s-0.333984 26.667 0.999023 44c3.33301 4.66699 13.5 8 30.5 10s34.5 3 52.5 3c0.666992 11.333 1.16699 22.666 1.5 33.999s0.833008 22.333 1.5 33c0.666992 18 1 37.167 1 57.5s2.66699 39.166 8 56.499
c5.33301 1.33301 11.333 3 18 5s13.334 3.66699 20.001 5c4 1.33301 11.167 1.5 21.5 0.5s17.5 -1.5 21.5 -1.5c0 -3.33301 0.333008 -10.166 1 -20.499s0.666992 -18.5 0 -24.5c-1.33301 -15.333 -2.16602 -29.666 -2.49902 -42.999s-1.16602 -28.666 -2.49902 -45.999
c-0.666992 -9.33301 -1.16699 -18.5 -1.5 -27.5s-0.833008 -18.167 -1.5 -27.5c21.333 1.33301 44.333 2 69 2s45.667 -1.33301 63 -4c2.66699 -2.66699 4.5 -8 5.5 -16s1.5 -16.333 1.5 -25s-0.5 -16.5 -1.5 -23.5s-1.83301 -10.833 -2.5 -11.5z" />
    <glyph glyph-name="u" unicode="u" horiz-adv-x="445" 
d="M73 406c4 0.666992 8.50488 1.17285 13.5049 1.50586s9.5 1.16602 13.5 2.49902c9.33301 3.33301 18.166 4.16602 26.499 2.49902s16.166 -4.16699 23.499 -7.5c-1.33301 -24 -3 -48 -5 -72l-6 -71c-1.33301 -14 -1.83301 -28.667 -1.5 -44s1.5 -30 3.5 -44
c2.66699 -22 8 -38.833 16 -50.5s17.5 -19.334 28.5 -23.001s22.667 -4 35 -1s24 8.16699 35 15.5s20.5 16.333 28.5 27s13.667 22 17 34c9.33301 34 14.666 68.167 15.999 102.5l4 102.5v24c5.33301 0 12 0.333008 20 1s16 0.833984 24 0.500977
s15.333 -1.66602 22 -3.99902s11 -6.5 13 -12.5c0 -5.33301 -0.166992 -17.833 -0.5 -37.5s-0.833008 -42.834 -1.5 -69.501s-1.33398 -54.834 -2.00098 -84.501s-1.5 -57.334 -2.5 -83.001s-2.33301 -47.167 -4 -64.5s-3.5 -27 -5.5 -29
c-2.66699 -2 -8.5 -3.16699 -17.5 -3.5s-15.5 -0.833008 -19.5 -1.5c-3.33301 -2.66699 -7.5 -3.33398 -12.5 -2.00098s-9.5 2 -13.5 2c-5.33301 20 -8 41.333 -8 64c-18 -19.333 -38.667 -35.833 -62 -49.5s-46.5 -21.834 -69.5 -24.501s-44.667 1.83301 -65 13.5
s-36.5 33.5 -48.5 65.5s-17.833 65.167 -17.5 99.5s1.16602 68.5 2.49902 102.5c0 6.66699 0.5 15.5 1.5 26.5s2.16699 22.167 3.5 33.5s3.33301 22.333 6 33s5.66699 19 9 25z" />
    <glyph glyph-name="v" unicode="v" horiz-adv-x="420" 
d="M117 37c-4 8.66699 -8.6748 19.667 -14.0078 33l-16 41c-5.33301 14 -10.333 27.833 -15 41.5s-8.33398 25.167 -11.001 34.5c-9.33301 26.667 -17.166 53.5 -23.499 80.5l-19.5 81.5c-1.33301 7.33301 -2.33301 14 -3 20s-2.66699 12.667 -6 20
c8.66699 8.66699 16.334 15 23.001 19s12.834 6.66699 18.501 8s11.334 1.83301 17.001 1.5s11.834 -0.833008 18.501 -1.5c2 -6 4.16699 -13.167 6.5 -21.5s4.66602 -17.166 6.99902 -26.499s4.5 -18.5 6.5 -27.5s4 -16.5 6 -22.5
c10.667 -32.667 20.834 -67.5 30.501 -104.5s22.167 -70.833 37.5 -101.5c2.66699 7.33301 8.33398 20.333 17.001 39l30 63.5l36.5 74.5l36.5 72c11.333 22 21.333 40.5 30 55.5s14.334 23.833 17.001 26.5c10 3.33301 21 2.16602 33 -3.50098s22 -12.5 30 -20.5
c-3.33301 -8 -5.66602 -13 -6.99902 -15s-3.66602 -6.66699 -6.99902 -14l-40.5 -74.5c-14.333 -25.667 -27.166 -51.167 -38.499 -76.5l-16 -35l-14 -31.5c-4.66699 -10.333 -9.16699 -21 -13.5 -32l-14.5 -35.5c-2 -6 -5 -13.833 -9 -23.5l-12.5 -29.5l-13 -29l-10.5 -23
c-4 -0.666992 -9.66699 -1 -17 -1s-15 0.333008 -23 1s-15.667 1 -23 1s-13 -0.333008 -17 -1c-0.666992 2 -1.66699 4.66699 -3 8s-3 6.83301 -5 10.5l-5.5 10.5c-1.66699 3.33301 -2.83398 6 -3.50098 8z" />
    <glyph glyph-name="w" unicode="w" horiz-adv-x="577" 
d="M375 128c2.66699 7.33301 7.82812 20.0059 15.4951 38.0059l26 60.5l31.5 70.5l31.5 68c9.66699 20.667 18.167 38.167 25.5 52.5s12.333 22.833 15 25.5c9.33301 3.33301 19.833 2.16602 31.5 -3.50098s21.167 -12.5 28.5 -20.5c-2 -8 -3.66699 -13 -5 -15
s-3.66602 -6.66699 -6.99902 -14l-35.5 -74.5c-12.333 -25.667 -23.5 -51.167 -33.5 -76.5l-14 -33.5l-11.5 -28l-11 -28l-12.5 -34.5c-2 -6 -5 -13.667 -9 -23l-13 -29.5l-13 -29.5l-10 -23c-3.33301 -0.666992 -8.33301 -1 -15 -1s-13.5 0.333008 -20.5 1s-13.667 1 -20 1
s-11.166 -0.333008 -14.499 -1l-7.5 18.5l-7.5 18.5c-4 8.66699 -8 21.667 -12 39s-7.83301 35.333 -11.5 54l-11 54c-3.66699 17.333 -6.83398 31 -9.50098 41l-4 14c-3.33301 -8 -7.16602 -18.5 -11.499 -31.5l-13.5 -41l-13.5 -42.5
c-4.33301 -14 -8.16602 -25.667 -11.499 -35l-7 -22l-8.5 -27l-8.5 -26.5c-2.66699 -8.33301 -5.33398 -15.5 -8.00098 -21.5c-3.33301 -0.666992 -8.33301 -1 -15 -1s-13.5 0.166992 -20.5 0.5s-13.667 0.666016 -20 0.999023s-11.166 0.166016 -14.499 -0.500977l-7.5 18
l-7.5 18c-4 9.33301 -8.33301 20.666 -13 33.999s-9.16699 27 -13.5 41l-13 41.5c-4.33301 13.667 -7.83301 25.167 -10.5 34.5c-7.33301 26.667 -14 53.334 -20 80.001s-11.667 53.667 -17 81c-1.33301 7.33301 -2.33301 14.166 -3 20.499s-2.33398 13.166 -5.00098 20.499
c8 8.66699 14.833 15 20.5 19s11 6.66699 16 8s10 1.66602 15 0.999023s10.5 -1 16.5 -1c2 -6 3.83301 -13.333 5.5 -22s3.5 -17.667 5.5 -27s3.83301 -18.333 5.5 -27s3.5 -16 5.5 -22c9.33301 -32.667 17.833 -66.167 25.5 -100.5s18.167 -67.166 31.5 -98.499l12.5 38.5
l22 67l27 77.5c9.66699 26.667 18.834 50 27.501 70c14.667 5.33301 26.834 8.83301 36.501 10.5s22.167 1.5 37.5 -0.5c4.66699 -16 9.33398 -35.167 14.001 -57.5l14 -69.5l13.5 -70c4.33301 -22.667 8.83301 -42.334 13.5 -59.001z" />
    <glyph glyph-name="x" unicode="x" horiz-adv-x="442" 
d="M140 211l-50.0029 85.001c-16 26 -31.333 55.667 -46 89c2 2 6.33301 4.83301 13 8.5s13.834 7.16699 21.501 10.5l22 9.5c7 3 11.833 5.16699 14.5 6.5c11.333 -20 23.833 -43.5 37.5 -70.5s30.167 -53.167 49.5 -78.5c2 0.666992 6.33301 4.5 13 11.5
s14.334 15.667 23.001 26l28.5 34l30.5 36c10 11.667 19.333 22 28 31s16 15.167 22 18.5c14.667 2 29 -4.66699 43 -20c2 -2.66699 5.66699 -5.33398 11 -8.00098s8.66602 -5.66699 9.99902 -9c-6 -4.66699 -13.5 -11.667 -22.5 -21l-30 -31.5l-33.5 -37
c-11.333 -13 -21.833 -25.667 -31.5 -38s-18 -23.5 -25 -33.5s-11.833 -18 -14.5 -24l45 -56.5c15.333 -18.333 32 -35.166 50 -50.499c13.333 -11.333 25.833 -20.333 37.5 -27l30.5 -18c-3.33301 -7.33301 -8.5 -14.333 -15.5 -21s-15 -12.167 -24 -16.5s-18 -7 -27 -8
s-17.167 0.5 -24.5 4.5c-4.66699 2.66699 -9 5.66699 -13 9s-8.33301 6.33301 -13 9c-5.33301 6 -12.333 12.5 -21 19.5s-16 13.167 -22 18.5c-9.33301 9.33301 -18.666 20.166 -27.999 32.499s-19.666 22.5 -30.999 30.5c-6 -1.33301 -14.5 -8.5 -25.5 -21.5
s-22.5 -27.5 -34.5 -43.5l-34.5 -46.5c-11 -15 -19.5 -25.5 -25.5 -31.5c-2 -0.666992 -6.5 0 -13.5 2s-14.5 4.5 -22.5 7.5l-22.5 8.5c-7 2.66699 -11.5 4.66699 -13.5 6c0 10 5.66699 24.167 17 42.5s24.5 37.333 39.5 57l44.5 56.5c14.667 18 25.667 32 33 42z" />
    <glyph glyph-name="y" unicode="y" horiz-adv-x="420" 
d="M167 38c-2 7.33301 -4.99902 14.6641 -8.99902 21.9971l-12 21c-5.33301 8.66699 -11.833 21.334 -19.5 38.001l-25 55c-9 20 -17.833 41.167 -26.5 63.5l-24 64c-7.33301 20.333 -13.5 38.833 -18.5 55.5s-8.16699 30 -9.5 40c3.33301 0 9.33301 1.16699 18 3.5l27 7
c9.33301 2.33301 17.833 4.33301 25.5 6s12.167 1.83398 13.5 0.500977c1.33301 -0.666992 3 -4.33398 5 -11.001s4 -14.167 6 -22.5l5.5 -23.5c1.66699 -7.33301 2.83398 -12.333 3.50098 -15c8.66699 -34 20.667 -70.667 36 -110s32 -74 50 -104
c22.667 49.333 43.334 99.166 62.001 149.499s38.667 100.166 60 149.499c5.33301 2.66699 12.5 4.83398 21.5 6.50098s17.833 2.16699 26.5 1.5s16.5 -2.66699 23.5 -6s11.5 -9 13.5 -17c-9.33301 -30 -20.833 -58.833 -34.5 -86.5s-26.834 -56.167 -39.501 -85.5
l-71.5 -173.5c-23.667 -58.333 -51.834 -114.166 -84.501 -167.499l-17 -30.5l-23 -40c-8 -13.667 -16 -26.167 -24 -37.5s-15.333 -19 -22 -23c-13.333 0 -23.5 3.5 -30.5 10.5l-24.5 23.5l-10 25c16.667 14.667 30.5 31.167 41.5 49.5s22.833 36.5 35.5 54.5
c3.33301 4.66699 7.66602 11.834 12.999 21.501s10.5 19.834 15.5 30.501s9.5 21 13.5 31s7 18 9 24z" />
    <glyph glyph-name="z" unicode="z" horiz-adv-x="408" 
d="M195 0c-22 -1.33301 -43.4951 -1.66406 -64.4951 -0.99707s-42.5 0.666992 -64.5 0c-7.33301 -0.666992 -14.5 -1.66699 -21.5 -3s-13.833 0 -20.5 4c-2 6 -3.5 11 -4.5 15s-1.66699 7.83301 -2 11.5s0 7.66699 1 12s2.5 10.166 4.5 17.499c2 6.66699 8 16.667 18 30
s22.167 28.333 36.5 45l46.5 52.5l48.5 52.5l42.5 44.5l29 29.5c5.33301 5.33301 10.333 11 15 17s9.66699 11.667 15 17c-27.333 2.66699 -57.333 4.83398 -90 6.50098s-62.667 0.166992 -90 -4.5l-22.5 -4c-7.66699 -1.33301 -15.5 -2 -23.5 -2
c-0.666992 4.66699 -2.5 10.167 -5.5 16.5s-3.5 11.5 -1.5 15.5l-2 38c8 4.66699 17.5 6.83398 28.5 6.50098s20.833 0.166992 29.5 1.5c2.66699 0 10.167 0.333008 22.5 1s27.166 1.16699 44.499 1.5s35.833 0.5 55.5 0.5s38.667 -0.166992 57 -0.5
s34.5 -0.833008 48.5 -1.5s24 -1.66699 30 -3c6.66699 -0.666992 12.667 -3.16699 18 -7.5s9.5 -9.83301 12.5 -16.5s4.5 -14 4.5 -22s-2 -16 -6 -24l-16 -14c-14 -12 -32.167 -29.667 -54.5 -53l-69 -74.5l-67 -77c-21 -25 -36.5 -45.167 -46.5 -60.5
c18 -2.66699 38 -3.33398 60 -2.00098s44 2.83301 66 4.5s43.167 2.66699 63.5 3s38.166 -1.83398 53.499 -6.50098c1.33301 -8 2.66602 -14.833 3.99902 -20.5s2.16602 -10.834 2.49902 -15.501s0 -9.33398 -1 -14.001s-2.83301 -10 -5.5 -16
c-4.66699 -1.33301 -15.334 -2 -32.001 -2s-34.667 0.166992 -54 0.5l-56 1c-18 0.333008 -30.333 0.5 -37 0.5z" />
    <glyph glyph-name="braceleft" unicode="{" horiz-adv-x="317" 
d="M57 406c14.667 4 29.166 9.32812 43.499 15.9951s24.166 16 29.499 28c1.33301 3.33301 2 13.5 2 30.5s-0.333008 35.667 -1 56s-1.5 39.833 -2.5 58.5s-1.5 31 -1.5 37c-1.33301 24 -0.833008 45.667 1.5 65s7.83301 36.333 16.5 51s21.167 27.167 37.5 37.5
s37.833 19.166 64.5 26.499c12 -0.666992 21 -7 27 -19s8.33301 -25 7 -39c-6.66699 -1.33301 -14.167 -3 -22.5 -5s-16.333 -4.66699 -24 -8s-14.5 -7.5 -20.5 -12.5s-10.333 -11.167 -13 -18.5c-0.666992 -2.66699 -1.33398 -9 -2.00098 -19s-1 -21.833 -1 -35.5v-44.5
c0 -16 0.166992 -30.833 0.5 -44.5s0.5 -25.834 0.5 -36.501s0.333008 -17.334 1 -20.001c0.666992 -15.333 1 -29.666 1 -42.999s-1.5 -25.666 -4.5 -36.999s-7.83301 -21.666 -14.5 -30.999s-16.334 -17.666 -29.001 -24.999
c12.667 -7.33301 22.334 -15.666 29.001 -24.999s11.5 -19.666 14.5 -30.999s4.5 -23.666 4.5 -36.999s-0.333008 -27.666 -1 -42.999c0 -2.66699 -0.166992 -9.33398 -0.5 -20.001s-0.666016 -22.834 -0.999023 -36.501s-0.5 -28.5 -0.5 -44.5v-44.5
c0 -13.667 0.333008 -25.5 1 -35.5s1.33398 -16.333 2.00098 -19c2.66699 -7.33301 7 -13.5 13 -18.5s12.833 -9.16699 20.5 -12.5s15.667 -6 24 -8s15.833 -3.66699 22.5 -5c1.33301 -14 -1 -27 -7 -39s-15 -18.333 -27 -19c-26.667 6.66699 -48.167 15.334 -64.5 26.001
s-28.833 23.334 -37.5 38.001s-14.167 31.667 -16.5 51s-2.83301 41 -1.5 65c0 6 0.5 18.167 1.5 36.5s1.83301 37.833 2.5 58.5s1 39.5 1 56.5s-0.666992 27.167 -2 30.5c-5.33301 12 -15.166 21.333 -29.499 28s-28.833 12 -43.5 16c-4.66699 2.66699 -8 7.5 -10 14.5
s-2.66699 14.167 -2 21.5s2 13.833 4 19.5s4.66699 8.5 8 8.5z" />
    <glyph glyph-name="bar" unicode="|" horiz-adv-x="317" 
d="M113 -19c-2.66699 18 -4 40.001 -4 66.001s0.333008 52.667 1 80s1.5 54.166 2.5 80.499s1.5 48.5 1.5 66.5h1c1.33301 34 2.5 68 3.5 102s1.5 68 1.5 102c0 24 0.833008 48.333 2.5 73s2.5 49.667 2.5 75v65c0 22.667 1.66699 44 5 64c8 8.66699 14.833 12.667 20.5 12
s13.5 -2 23.5 -4c0.666992 -2 2.5 -3.33301 5.5 -4s6.5 -1.16699 10.5 -1.5s7.66699 -0.666016 11 -0.999023s5.66602 -0.833008 6.99902 -1.5c-2.66699 -109.333 -3.66699 -217.833 -3 -325.5s-0.666016 -216.167 -3.99902 -325.5l-3 -126
c-3.33301 -3.33301 -6.66602 -6 -9.99902 -8c-7.33301 -4.66699 -16 -5.66699 -26 -3c-1.33301 -0.666992 -4.33301 -0.333984 -9 0.999023s-9.83398 3 -15.501 5l-15.5 5.5c-4.66699 1.66699 -7.66699 2.5 -9 2.5z" />
    <glyph glyph-name="braceright" unicode="}" horiz-adv-x="317" 
d="M270 406c2.66699 0 5.16992 -2.82812 7.50293 -8.49512s3.66602 -12.167 3.99902 -19.5s-0.333984 -14.5 -2.00098 -21.5s-4.83398 -11.833 -9.50098 -14.5c-15.333 -4 -30.166 -9.33301 -44.499 -16s-24.166 -16 -29.499 -28
c-1.33301 -3.33301 -1.83301 -13.5 -1.5 -30.5s0.833008 -35.833 1.5 -56.5s1.5 -40.167 2.5 -58.5s1.5 -30.5 1.5 -36.5c1.33301 -24 0.833008 -45.667 -1.5 -65s-8 -36.333 -17 -51s-21.667 -27.334 -38 -38.001s-37.833 -19.334 -64.5 -26.001
c-12 0.666992 -20.833 7 -26.5 19s-8.16699 25 -7.5 39c6.66699 1.33301 14.167 3 22.5 5s16.333 4.66699 24 8s14.5 7.5 20.5 12.5s10.333 11.167 13 18.5c0.666992 2.66699 1.33398 9 2.00098 19s1 21.833 1 35.5v44.5v44.5c0 13.667 -0.166992 25.834 -0.5 36.501
s-0.5 17.334 -0.5 20.001c-1.33301 15.333 -2 29.666 -2 42.999s1.5 25.666 4.5 36.999s8 21.666 15 30.999s16.5 17.666 28.5 24.999c-12 7.33301 -21.5 15.666 -28.5 24.999s-12 19.666 -15 30.999s-4.5 23.666 -4.5 36.999s0.666992 27.666 2 42.999
c0 2.66699 0.166992 9.33398 0.5 20.001s0.5 22.834 0.5 36.501v44.5v44.5c0 13.667 -0.333008 25.5 -1 35.5s-1.33398 16.333 -2.00098 19c-2.66699 7.33301 -7 13.5 -13 18.5s-12.833 9.16699 -20.5 12.5s-15.667 6 -24 8s-15.833 3.66699 -22.5 5
c-0.666992 14 1.83301 27 7.5 39s14.5 18.333 26.5 19c26.667 -7.33301 48.167 -16.166 64.5 -26.499s29 -22.833 38 -37.5s14.667 -31.667 17 -51s2.83301 -41 1.5 -65c0 -6 -0.5 -18.333 -1.5 -37s-1.83301 -38.167 -2.5 -58.5s-1.16699 -39 -1.5 -56
s0.166992 -27.167 1.5 -30.5c5.33301 -12 15.166 -21.333 29.499 -28s29.166 -12 44.499 -16z" />
    <glyph glyph-name="asciitilde" unicode="~" horiz-adv-x="444" 
d="M372 443c13.333 -2 21.334 -6.49512 24.001 -13.4951l11 -29.5c-16.667 -22 -32.167 -38.333 -46.5 -49s-28.666 -16.834 -42.999 -18.501s-29.333 0.166016 -45 5.49902s-32.834 12.666 -51.501 21.999c-4 2 -9.5 4.5 -16.5 7.5s-14.5 6 -22.5 9s-15.667 5.66699 -23 8
s-13 3.5 -17 3.5c-8.66699 0.666992 -16.5 -0.833008 -23.5 -4.5s-13.5 -8.33398 -19.5 -14.001s-11.667 -11.834 -17 -18.501s-10 -13 -14 -19c-11.333 4 -20.833 10.333 -28.5 19s-9.83398 17.334 -6.50098 26.001c16 21.333 31 37.833 45 49.5s28.5 19 43.5 22
s31.167 2 48.5 -3s37.333 -13.5 60 -25.5l15.5 -8c6.33301 -3.33301 13 -6.5 20 -9.5s13.667 -5.5 20 -7.5s11.5 -3 15.5 -3c14.667 0 28.167 5.66699 40.5 17s22.5 22.666 30.5 33.999z" />
    <glyph glyph-name="exclamdown" unicode="&#xa1;" horiz-adv-x="238" 
d="M146 611c12.667 -6.66699 21.1709 -15.832 25.5039 -27.499s5.33301 -23.167 3 -34.5s-7.83301 -21.5 -16.5 -30.5s-19.334 -14.5 -32.001 -16.5c-17.333 -2.66699 -31.5 0.5 -42.5 9.5s-17.833 20.167 -20.5 33.5s-0.833984 26.833 5.49902 40.5
s18.166 24.167 35.499 31.5c10 4 18.167 4.66699 24.5 2s12.166 -5.33398 17.499 -8.00098zM92.0039 378.002c0 6 0.500977 14.1689 1.50098 24.502s1.83301 17.166 2.5 20.499c3.33301 0.666992 8 1.33398 14 2.00098s11 0.333984 15 -0.999023
c6.66699 -0.666992 10.667 -1.5 12 -2.5s5 -2.16699 11 -3.5c1.33301 -6 2.83301 -21.333 4.5 -46s3.16699 -53.834 4.5 -87.501l4.5 -109c1.66699 -39 2.83398 -75.333 3.50098 -109s1.16699 -62.834 1.5 -87.501s0.166016 -40 -0.500977 -46s-6 -10.833 -16 -14.5
s-21 -6.16699 -33 -7.5s-22.833 -1.33301 -32.5 0s-14.834 4 -15.501 8c0 6 0.666992 20.667 2 44s2.83301 51.166 4.5 83.499l5.5 103.5l5.5 103c1.66699 32 3 59.5 4 82.5s1.5 37.167 1.5 42.5z" />
    <glyph glyph-name="cent" unicode="&#xa2;" horiz-adv-x="409" 
d="M270 9c0 -8 -0.334961 -14.3271 -1.00195 -18.9941s-1.5 -9.5 -2.5 -14.5s-1.83301 -11.167 -2.5 -18.5s-1.33398 -18 -2.00098 -32c-4 -2 -9 -2.66699 -15 -2s-10.667 1.66699 -14 3c-8 -2 -14 -2.16699 -18 -0.5s-9.66699 3.16699 -17 4.5
c-1.33301 12 -2.83301 23.667 -4.5 35s-2.5 22.666 -2.5 33.999c-41.333 0.666992 -75.5 10.5 -102.5 29.5s-44.833 42 -53.5 69s-7 56.167 5 87.5s36.667 60 74 86c26.667 18.667 56.334 32.667 89.001 42c-2 17.333 -3.16699 34.5 -3.5 51.5s2.83398 33.167 9.50098 48.5
c13.333 1.33301 25.333 2 36 2s20.667 -2.66699 30 -8l4 -26l-1 -1c0 -8 -0.166992 -14.5 -0.5 -19.5s-0.833008 -9.33301 -1.5 -13s-1.16699 -7 -1.5 -10s-0.833008 -6.83301 -1.5 -11.5c3.33301 0 6.66602 0.166992 9.99902 0.5s6.66602 0.5 9.99902 0.5
c13.333 0 26.5 -0.5 39.5 -1.5s25.5 -4.16699 37.5 -9.5c8 -10 10.333 -18.833 7 -26.5s-6 -16.834 -8 -27.501c-2 -6.66699 -5.33301 -10.667 -10 -12s-10 -1.5 -16 -0.5s-12.167 2.16699 -18.5 3.5s-12.166 1.66602 -17.499 0.999023
c-5.33301 1.33301 -13.333 1.66602 -24 0.999023s-18.667 -0.333984 -24 0.999023c-25.333 -2 -47.666 -8.16699 -66.999 -18.5s-35 -22.5 -47 -36.5s-20 -28.833 -24 -44.5s-3.33301 -30.167 2 -43.5s15.833 -24.333 31.5 -33s36.834 -13 63.501 -13
c31.333 0 60.333 6.5 87 19.5s51 27.5 73 43.5c9.33301 -3.33301 16.833 -8 22.5 -14s9.16699 -15.667 10.5 -29c-2 -6 -6.5 -11.833 -13.5 -17.5s-14.833 -11.334 -23.5 -17.001s-17.667 -10.667 -27 -15s-17.333 -7.83301 -24 -10.5c-17.333 -8 -35 -14 -53 -18z" />
    <glyph glyph-name="sterling" unicode="&#xa3;" horiz-adv-x="523" 
 />
    <glyph glyph-name="yen" unicode="&#xa5;" horiz-adv-x="559" 
d="M489 116c-3.33301 -1.33301 -10.1602 -2.16797 -20.4932 -2.50098s-23 -0.833008 -38 -1.5s-32 -1.16699 -51 -1.5s-38.833 -0.5 -59.5 -0.5c0.666992 -10 1.16699 -20.333 1.5 -31s0.5 -21 0.5 -31s-0.166992 -18.667 -0.5 -26s-1.16602 -12.333 -2.49902 -15
c-3.33301 -3.33301 -10.5 -6.16602 -21.5 -8.49902s-22.667 -3.83301 -35 -4.5s-23.5 -0.666992 -33.5 0s-15.333 2.66699 -16 6l-1 30c-0.666992 26.667 -0.666992 53 0 79h-161c-3.33301 4 -6 7.33301 -8 10s-3.33301 5.66699 -4 9s-1 7.5 -1 12.5s0.333008 11.833 1 20.5
c2.66699 4.66699 10.334 8 23.001 10s26.667 3.33301 42 4s30 1 44 1h30c3.33301 0 8 0.166992 14 0.5s13 0.5 21 0.5c0 32 -2 62.667 -6 92h-156c-3.33301 4 -6 7.33301 -8 10s-3.33301 5.66699 -4 9s-1 7.5 -1 12.5s0.333008 11.833 1 20.5c2.66699 4 9.16699 7 19.5 9
s22.166 3.5 35.499 4.5s26.666 1.5 39.999 1.5h33l-27 43.5l-33.5 56.5l-35 61.5c-11.667 21 -22.167 40.833 -31.5 59.5s-16.833 35.667 -22.5 51s-8.5 27.333 -8.5 36c10.667 3.33301 18.667 7.16602 24 11.499s13.666 7.83301 24.999 10.5c6.66699 2 13 4 19 6
c5.33301 1.33301 10.166 2.66602 14.499 3.99902s7.16602 1.33301 8.49902 0c3.33301 -7.33301 6.66602 -15.166 9.99902 -23.499s7.33301 -17.166 12 -26.499l63.5 -124c21.667 -40.667 46.167 -80.334 73.5 -119.001h5c7.33301 9.33301 13.666 19.333 18.999 30l16 31
l33.5 61l48.5 84.5l50.5 81.5c16.333 25.333 29.5 42.666 39.5 51.999c10 -1.33301 18.667 -2.83301 26 -4.5s14.166 -4.16699 20.499 -7.5s12.5 -8.16602 18.5 -14.499s12.667 -14.5 20 -24.5c-9.33301 -19.333 -20.833 -38.166 -34.5 -56.499s-26.167 -36.5 -37.5 -54.5
c-7.33301 -11.333 -16.333 -26 -27 -44l-33.5 -58.5l-35 -63.5l-32.5 -58c28 -0.666992 54 -1.33398 78 -2.00098s40.667 -1.66699 50 -3c2.66699 -2.66699 4.66699 -7.16699 6 -13.5s2.16602 -12.666 2.49902 -18.999s0.166016 -12 -0.500977 -17
s-1.33398 -7.83301 -2.00098 -8.5c-3.33301 -1.33301 -10.166 -2.16602 -20.499 -2.49902s-23.166 -0.833008 -38.499 -1.5s-32.666 -1 -51.999 -1h-60c-0.666992 -4.66699 -1.16699 -11.5 -1.5 -20.5l-1 -28c-0.333008 -9.66699 -0.5 -18.5 -0.5 -26.5v-15v-2
c17.333 0 34.833 -0.166992 52.5 -0.5s34 -0.666016 49 -0.999023s28.333 -0.833008 40 -1.5s20.5 -1.33398 26.5 -2.00098c2.66699 -2.66699 4.66699 -7 6 -13s2 -12.167 2 -18.5s-0.333008 -11.833 -1 -16.5s-1.33398 -7.33398 -2.00098 -8.00098z" />
    <glyph glyph-name="dieresis" unicode="&#xa8;" horiz-adv-x="326" 
d="M69 613c-10.667 6 -17.8281 14.333 -21.4951 25s-4.33398 21.5 -2.00098 32.5s7.16602 20.667 14.499 29s16.333 13.5 27 15.5c15.333 2 27.666 -1.16699 36.999 -9.5s15.166 -18.5 17.499 -30.5s0.666016 -24.5 -5.00098 -37.5s-15.834 -22.833 -30.501 -29.5
c-8.66699 -4 -15.667 -5 -21 -3s-10.666 4.66699 -15.999 8zM220.006 613c-11.333 6 -18.665 14.333 -21.998 25s-4 21.5 -2 32.5s6.66699 20.667 14 29s16.666 13.5 27.999 15.5c15.333 2 27.666 -1.16699 36.999 -9.5s15.166 -18.5 17.499 -30.5s0.5 -24.5 -5.5 -37.5
s-16.333 -22.833 -31 -29.5c-8 -4 -14.667 -5 -20 -3s-10.666 4.66699 -15.999 8z" />
    <glyph glyph-name="copyright" unicode="&#xa9;" horiz-adv-x="570" 
d="M287 683c24.667 1.33301 49.834 -0.167969 75.501 -4.50098s49.167 -13.166 70.5 -26.499c35.333 -22 62 -48.667 80 -80s28 -64.333 30 -99s-3.5 -69.167 -16.5 -103.5s-32 -64.833 -57 -91.5s-55.833 -48 -92.5 -64s-77.667 -23 -123 -21
c-9.33301 0.666992 -18.5 1.83398 -27.5 3.50098s-18.167 3.83398 -27.5 6.50098c-37.333 11.333 -68.5 27.666 -93.5 48.999s-44 45.5 -57 72.5s-20.167 55.5 -21.5 85.5s3.16699 59.5 13.5 88.5s26.166 56.167 47.499 81.5s48 46.666 80 63.999
c9.33301 5.33301 19.5 10.833 30.5 16.5s22.167 10.167 33.5 13.5c9.33301 3.33301 18.833 5.5 28.5 6.5s18.5 1.83301 26.5 2.5zM492 467.999c0 30.667 -7.66797 57.4951 -23.001 80.4951s-35.166 41.333 -59.499 55s-51.5 21.834 -81.5 24.501
s-59.5 -1.16602 -88.5 -11.499s-56 -27.333 -81 -51s-44.5 -55.5 -58.5 -95.5l-10 -28c-3.33301 -9.33301 -5 -18.666 -5 -27.999c0 -18.667 1.66699 -37.167 5 -55.5s10.333 -35.833 21 -52.5c12.667 -19.333 30.834 -34.166 54.501 -44.499s49.667 -15.666 78 -15.999
s57.166 4 86.499 13s56 22.833 80 41.5s43.667 42 59 70s23 60.667 23 98zM382.999 482.994c-6.66699 9.33301 -14.6689 17.3271 -24.002 23.9941s-21.333 10.667 -36 12c-20 2.66699 -37.333 0.333984 -52 -6.99902s-26.667 -17 -36 -29l-12 -17.5
c-4 -5.66699 -7.66699 -11.834 -11 -18.501c-4 -8.66699 -6.66699 -18.167 -8 -28.5s-0.833008 -20.5 1.5 -30.5s6.83301 -19.333 13.5 -28s16.334 -15 29.001 -19c15.333 -5.33301 31.5 -7.16602 48.5 -5.49902s32.167 5.83398 45.5 12.501
c3.33301 1.33301 7.5 3.5 12.5 6.5s10 6.33301 15 10s9.5 7.33398 13.5 11.001s6.66699 6.83398 8 9.50098c6 -0.666992 11.333 -2.83398 16 -6.50098s9 -6.83398 13 -9.50098c0 -3.33301 -0.166992 -5.83301 -0.5 -7.5s-1.83301 -3.5 -4.5 -5.5
c-3.33301 -6.66699 -8.66602 -13 -15.999 -19s-14.666 -11 -21.999 -15c-14 -7.33301 -29.333 -13 -46 -17s-33.334 -6 -50.001 -6s-33 2.5 -49 7.5s-30.333 12.5 -43 22.5c-4 3.33301 -7.33301 6.66602 -10 9.99902s-5.33398 7 -8.00098 11s-6.16699 10.167 -10.5 18.5
s-5.83301 14.166 -4.5 17.499c-1.33301 2.66699 -2.16602 5.66699 -2.49902 9s-0.833008 6.33301 -1.5 9c-1.33301 12 -0.166016 24.833 3.50098 38.5s9.16699 26.834 16.5 39.501s16.333 24.334 27 35.001s23 19.334 37 26.001c19.333 9.33301 37.5 15.833 54.5 19.5
s37.167 2.83398 60.5 -2.49902c6 -1.33301 11.667 -2.66602 17 -3.99902s10.666 -3.66602 15.999 -6.99902c8 -5.33301 15 -11.5 21 -18.5s9 -14.5 9 -22.5c-5.33301 -3.33301 -10.5 -7.83301 -15.5 -13.5s-10.167 -9.5 -15.5 -11.5z" />
    <glyph glyph-name="guillemotleft" unicode="&#xab;" horiz-adv-x="425" 
d="M110 353c8.66699 12 16.832 24.5039 24.499 37.5039s16.167 25.167 25.5 36.5l10.5 2c3.66699 0.666992 7.16699 1 10.5 1h-1c6 0 14.333 -1 25 -3s17.334 -6.33301 20.001 -13c-2 -10 -7.33301 -23.333 -16 -40s-18.5 -33.834 -29.5 -51.501
s-22.167 -34.334 -33.5 -50.001l-27 -36.5l24.5 -38.5l36.5 -56.5l47 -72c-2.66699 -0.666992 -7.33398 -2.83398 -14.001 -6.50098s-10.667 -6.16699 -12 -7.5l-38 -1c-8 14.667 -18.667 30.5 -32 47.5s-24.666 32.167 -33.999 45.5c-10 14 -21.333 28.5 -34 43.5
s-21.334 30.833 -26.001 47.5c4.66699 9.33301 10.167 19.333 16.5 30l19.5 31.5c6.66699 10.333 13.334 20.166 20.001 29.499zM279.998 353.004c8.66699 12 16.832 24.5039 24.499 37.5039s16.167 25.167 25.5 36.5l10.5 2c3.66699 0.666992 7.16699 1 10.5 1h-1
c6 0 14.333 -1 25 -3s17.334 -6.33301 20.001 -13c-2 -10 -7.33301 -23.333 -16 -40s-18.5 -33.834 -29.5 -51.501s-22.167 -34.334 -33.5 -50.001l-27 -36.5l24.5 -38.5l36.5 -56.5l47 -72c-2.66699 -0.666992 -7.33398 -2.83398 -14.001 -6.50098
s-10.667 -6.16699 -12 -7.5l-38 -1c-8 14.667 -18.667 30.5 -32 47.5s-24.666 32.167 -33.999 45.5c-10 14 -21.333 28.5 -34 43.5s-21.334 30.833 -26.001 47.5c4.66699 9.33301 10.167 19.333 16.5 30l19.5 31.5c6.66699 10.333 13.334 20.166 20.001 29.499z" />
    <glyph glyph-name="minus" unicode="&#xad;" 
d="M489 256c-4.66699 -1.33301 -17.832 -2.50098 -39.499 -3.50098s-47.5 -1.66699 -77.5 -2s-62.333 -0.666016 -97 -0.999023s-67.334 -0.5 -98.001 -0.5h-80.5h-45.5c-7.33301 7.33301 -11.5 16.833 -12.5 28.5s-0.833008 26.167 0.5 43.5
c2.66699 4.66699 10.334 8 23.001 10s26.667 3.33301 42 4s30 1 44 1h30c7.33301 0 19 0.166992 35 0.5s34.167 0.5 54.5 0.5h64c22.333 0 43.5 -0.166992 63.5 -0.5s38 -1 54 -2s27.667 -1.83301 35 -2.5c2.66699 -2.66699 4.66699 -8 6 -16s2 -16.333 2 -25
s-0.333008 -16.5 -1 -23.5s-1.33398 -10.833 -2.00098 -11.5z" />
    <glyph glyph-name="registered" unicode="&#xae;" horiz-adv-x="575" 
d="M290 683c24.667 1.33301 49.832 -0.167969 75.499 -4.50098s49.167 -13.166 70.5 -26.499c35.333 -22 61.833 -48.667 79.5 -80s27.5 -64.333 29.5 -99s-3.33301 -69.167 -16 -103.5s-31.5 -64.833 -56.5 -91.5s-55.833 -48 -92.5 -64s-77.667 -23 -123 -21
c-9.33301 0.666992 -18.5 1.83398 -27.5 3.50098s-18.167 3.83398 -27.5 6.50098c-37.333 11.333 -68.666 27.666 -93.999 48.999s-44.5 45.5 -57.5 72.5s-20 55.5 -21 85.5s3.5 59.5 13.5 88.5s25.667 56.167 47 81.5s48.333 46.666 81 63.999
c9.33301 5.33301 19.5 10.833 30.5 16.5s22.167 10.167 33.5 13.5c9.33301 3.33301 18.833 5.5 28.5 6.5s18.5 1.83301 26.5 2.5zM493.998 467.999c0 30.667 -7.66895 57.4941 -23.002 80.4941s-35.166 41.333 -59.499 55s-51.5 21.834 -81.5 24.501
s-59.5 -1.16602 -88.5 -11.499s-56 -27.333 -81 -51s-44.5 -55.5 -58.5 -95.5c-3.33301 -9.33301 -6.5 -18.666 -9.5 -27.999s-4.5 -18.666 -4.5 -27.999c0 -18.667 1.66699 -37.167 5 -55.5s10.333 -35.833 21 -52.5c12.667 -19.333 30.834 -34.166 54.501 -44.499
s49.667 -15.666 78 -15.999s57 4 86 13s55.5 22.833 79.5 41.5s43.667 42 59 70s23 60.667 23 98zM384.996 317.993c-10.667 7.33301 -19.4922 13.834 -26.4922 19.501l-27.5 21.5c-11.333 9.33301 -23.333 20 -36 32s-23 20 -31 24c-7.33301 -0.666992 -13.5 -1 -18.5 -1
h-11.5v-11.5c0 -7.66699 0.166992 -16.334 0.5 -26.001s0.666016 -18.667 0.999023 -27s0.833008 -13.5 1.5 -15.5c0 -1.33301 0.166992 -4.16602 0.5 -8.49902s-0.166992 -6.83301 -1.5 -7.5c-0.666992 -2 -3.33398 -3.66699 -8.00098 -5s-9.83398 -2 -15.501 -2
s-11.334 0.5 -17.001 1.5s-9.5 2.5 -11.5 4.5c-0.666992 6.66699 -1.16699 15 -1.5 25s-0.5 20.333 -0.5 31v32.5v31.5v61c0 -1.33301 -0.333008 1 -1 7s-0.833984 13 -0.500977 21s1.33301 15.5 3 22.5s4.16699 10.833 7.5 11.5c3.33301 1.33301 6 2.16602 8 2.49902
s5 0.5 9 0.5c5.33301 0 10.5 0.5 15.5 1.5s10.167 1.5 15.5 1.5s10.333 0.166992 15 0.5s9.66699 0.166016 15 -0.500977c7.33301 0 15.166 -0.166992 23.499 -0.5s16.166 -0.833008 23.499 -1.5c12 -1.33301 23 -4.16602 33 -8.49902s19 -9.5 27 -15.5s15 -12.5 21 -19.5
s9.66699 -14.833 11 -23.5c0 -1.33301 0.333008 -2.16602 1 -2.49902s0.666992 -1.16602 0 -2.49902c0.666992 -1.33301 0.666992 -4 0 -8s-1 -6.66699 -1 -8c-2.66699 -14 -11.834 -24.833 -27.501 -32.5s-33.167 -14.167 -52.5 -19.5c3.33301 -2 7.33301 -5.16699 12 -9.5
l15 -14l15 -14.5c4.66699 -4.66699 8.66699 -8.33398 12 -11.001c0.666992 -0.666992 1.16699 -1 1.5 -1s0.833008 -0.333008 1.5 -1l31 -26.5c10.667 -9 18 -16.167 22 -21.5c-0.666992 -1.33301 -3 -2.33301 -7 -3s-8.66699 -1.33398 -14 -2.00098s-11 -1.16699 -17 -1.5
s-11 -0.5 -15 -0.5zM265.004 531.994c-10.667 0 -20.332 -1.00195 -28.999 -3.00195c-4 -7.33301 -5.66699 -15.833 -5 -25.5s1 -18.5 1 -26.5v-4.5v-1v-1v-4.5v-8c0 -4 0.333008 -7.66699 1 -11c26 -2 49 -1.33301 69 2s35.667 9 47 17c8 6 12.167 12.833 12.5 20.5
s-2.66699 14.834 -9 21.501s-15.333 12.334 -27 17.001s-25.167 7 -40.5 7c-4.66699 0 -7.83398 0.166992 -9.50098 0.5s-5.16699 0.5 -10.5 0.5v-1z" />
    <glyph glyph-name="degree" unicode="&#xb0;" horiz-adv-x="326" 
d="M228 707c27.333 -14 44.168 -32.166 50.501 -54.499s4.83301 -43.833 -4.5 -64.5s-25.5 -38.334 -48.5 -53.001s-50.5 -21.334 -82.5 -20.001c-27.333 0.666992 -50.5 8.33398 -69.5 23.001s-31.5 31.834 -37.5 51.501s-4.33301 40.167 5 61.5s29.333 39 60 53
c10.667 5.33301 19.667 9.16602 27 11.499s17.333 3.83301 30 4.5c11.333 0.666992 23.166 0 35.499 -2s23.833 -5.66699 34.5 -11zM102.002 627.001c-2.66699 -5.33301 -3.99609 -9.99805 -3.99609 -13.998c0 -19.333 6.16699 -31.833 18.5 -37.5
s25.666 -6.83398 39.999 -3.50098s27.666 10.333 39.999 21s18.5 22.667 18.5 36c0 9.33301 -4.5 17.666 -13.5 24.999s-19.833 11.833 -32.5 13.5s-25.334 -0.5 -38.001 -6.5s-22.334 -17.333 -29.001 -34z" />
    <glyph glyph-name="plusminus" unicode="&#xb1;" 
d="M489 6c-4.66699 -1.33301 -17.832 -2.5 -39.499 -3.5s-47.5 -1.66699 -77.5 -2s-62.333 -0.666016 -97 -0.999023s-67.334 -0.5 -98.001 -0.5h-80.5h-45.5c-7.33301 7.33301 -11.5 16.833 -12.5 28.5s-0.833008 26.167 0.5 43.5c2.66699 4.66699 10.334 8 23.001 10
s26.667 3.33301 42 4s30 1 44 1h30c4 0 9.16699 0.166992 15.5 0.5s13.833 0.5 22.5 0.5c-1.33301 8.66699 -2.16602 19 -2.49902 31s-0.333008 23.833 0 35.5s0.833008 22.334 1.5 32.001s1 16.834 1 21.501v42h-165c-7.33301 7.33301 -11.5 16.833 -12.5 28.5
s-0.833008 26.167 0.5 43.5c2.66699 4.66699 10.334 8 23.001 10s26.667 3.33301 42 4s30 1 44 1h30c4.66699 0 10.5 0.166992 17.5 0.5s15.167 0.5 24.5 0.5c0.666992 18 1.5 36.167 2.5 54.5s2 35.333 3 51s2 29.667 3 42s2.16699 21.5 3.5 27.5
c2.66699 2.66699 8 4.66699 16 6s16.333 2.16602 25 2.49902s16.5 0.166016 23.5 -0.500977s10.833 -1.33398 11.5 -2.00098c0.666992 -3.33301 1.16699 -10.5 1.5 -21.5s0.5 -24.667 0.5 -41s-0.333008 -34.666 -1 -54.999l-2 -63.5c18 0 36.167 -0.166992 54.5 -0.5
s35.5 -0.666016 51.5 -0.999023s30.333 -0.833008 43 -1.5s22 -1.33398 28 -2.00098c2.66699 -2.66699 4.66699 -8 6 -16s2 -16.333 2 -25s-0.333008 -16.5 -1 -23.5s-1.33398 -10.833 -2.00098 -11.5c-3.33301 -1.33301 -10.666 -2.33301 -21.999 -3
s-25.333 -1.16699 -42 -1.5s-35.334 -0.666016 -56.001 -0.999023s-42.334 -0.5 -65.001 -0.5c-1.33301 -36 -2.5 -69 -3.5 -99s-2.16699 -51.333 -3.5 -64h57.5c19.667 0 38 -0.333008 55 -1s32 -1.33398 45 -2.00098s22.833 -1.33398 29.5 -2.00098
c2.66699 -2.66699 4.66699 -8 6 -16s2 -16.333 2 -25s-0.333008 -16.5 -1 -23.5s-1.33398 -10.833 -2.00098 -11.5z" />
    <glyph glyph-name="acute" unicode="&#xb4;" horiz-adv-x="237" 
d="M37 586c4.66699 14.667 11.499 29.5 20.499 44.5s18.667 28.667 29 41s20.5 23.333 30.5 33s18 16.834 24 21.501c7.33301 2 14.833 2.16699 22.5 0.5s14.667 -4.16699 21 -7.5s11.833 -6.83301 16.5 -10.5s7.33398 -6.5 8.00098 -8.5
c-6.66699 -14 -15.834 -26.5 -27.501 -37.5l-36 -32.5c-12.333 -10.667 -24.166 -21.834 -35.499 -33.501s-20 -25.5 -26 -41.5c-6.66699 2.66699 -12.167 4 -16.5 4s-9.5 2.66699 -15.5 8c-4 3.33301 -8 5.83301 -12 7.5s-5 5.5 -3 11.5z" />
    <glyph glyph-name="cedilla" unicode="&#xb8;" horiz-adv-x="376" 
d="M332 -106c3.33301 -6.66699 5.50195 -12.499 6.50195 -17.499s0.833008 -11.167 -0.5 -18.5c-2 -17.333 -8.66699 -31.833 -20 -43.5s-24.833 -21.167 -40.5 -28.5s-32.334 -12.5 -50.001 -15.5s-33.5 -4.5 -47.5 -4.5c-7.33301 0 -14.333 0.5 -21 1.5
s-13.667 1.83301 -21 2.5c-23.333 2 -42 5.33301 -56 10s-28.667 10.667 -44 18c0.666992 7.33301 0.833984 12.666 0.500977 15.999s1.83398 8.33301 6.50098 15c3.33301 3.33301 6.66602 6 9.99902 8s7.66602 3.66699 12.999 5c4.66699 -2 11.667 -4.16699 21 -6.5
s19.333 -4.33301 30 -6s21 -3 31 -4s17.667 -1.5 23 -1.5c8 0 17 0.833008 27 2.5s19.333 4.16699 28 7.5s16 8 22 14s9 13 9 21c0 8.66699 -4.5 15.5 -13.5 20.5s-20.333 8.5 -34 10.5s-28.667 3.16699 -45 3.5s-31.5 0.166016 -45.5 -0.500977
c2 9.33301 5.16699 19.333 9.5 30s9.16602 21.667 14.499 33l13.5 32l11.5 26l71 1c-1.33301 -5.33301 -3.33301 -11.666 -6 -18.999l-9 -24l-6 -16l-5 -13c24 -0.666992 46.5 -4.66699 67.5 -12s37.5 -23 49.5 -47z" />
    <glyph glyph-name="guillemotright" unicode="&#xbb;" horiz-adv-x="425" 
d="M323 353l16.9951 -24.0039c6.66699 -9.33301 13.334 -19.166 20.001 -29.499l20 -31.5c6.66699 -10.667 12.334 -20.667 17.001 -30c-5.33301 -16.667 -14.166 -32.5 -26.499 -47.5s-23.5 -29.5 -33.5 -43.5c-9.33301 -13.333 -20.833 -28.5 -34.5 -45.5
s-24.5 -32.833 -32.5 -47.5l-37 1c-2 1.33301 -6.33301 3.83301 -13 7.5s-11 5.83398 -13 6.50098l47 72l36 56.5c11.333 18.333 19.666 31.166 24.999 38.499c-7.33301 8.66699 -16.666 20.834 -27.999 36.501s-22.5 32.334 -33.5 50.001s-20.833 34.834 -29.5 51.501
s-14 30 -16 40c2.66699 6.66699 9.33398 11 20.001 13s19 3 25 3h-1c3.33301 0 6.83301 -0.333008 10.5 -1l10.5 -2c9.33301 -11.333 17.833 -23.5 25.5 -36.5s15.834 -25.5 24.501 -37.5zM152.995 352.996l16.9951 -24.0039
c6.66699 -9.33301 13.334 -19.166 20.001 -29.499l20 -31.5c6.66699 -10.667 12.334 -20.667 17.001 -30c-5.33301 -16.667 -14.166 -32.5 -26.499 -47.5s-23.5 -29.5 -33.5 -43.5c-9.33301 -13.333 -20.833 -28.5 -34.5 -45.5s-24.5 -32.833 -32.5 -47.5l-37 1
c-2 1.33301 -6.33301 3.83301 -13 7.5s-11 5.83398 -13 6.50098l47 72l36 56.5c11.333 18.333 19.666 31.166 24.999 38.499c-7.33301 8.66699 -16.666 20.834 -27.999 36.501s-22.5 32.334 -33.5 50.001s-20.833 34.834 -29.5 51.501s-14 30 -16 40
c2.66699 6.66699 9.33398 11 20.001 13s19 3 25 3h-1c3.33301 0 6.83301 -0.333008 10.5 -1l10.5 -2c9.33301 -11.333 17.833 -23.5 25.5 -36.5s15.834 -25.5 24.501 -37.5z" />
    <glyph glyph-name="questiondown" unicode="&#xbf;" horiz-adv-x="483" 
d="M250 424c2.66699 4.66699 8.33301 7.83105 17 9.49805s18 2 28 1s19.5 -3.83301 28.5 -8.5s15.167 -11.334 18.5 -20.001c4 -10.667 6.33301 -23.334 7 -38.001s-0.166016 -29.334 -2.49902 -44.001s-6 -28.667 -11 -42s-10.833 -24 -17.5 -32
c-8 -10 -18.167 -19.833 -30.5 -29.5s-25.333 -19 -39 -28l-41 -26.5l-36.5 -24c-10 -6.66699 -20.5 -15.334 -31.5 -26.001s-19 -22 -24 -34s-5.83301 -24 -2.5 -36s14 -23 32 -33c13.333 -7.33301 26.666 -11.666 39.999 -12.999s27.333 -1.33301 42 0
c30.667 3.33301 58.334 9.83301 83.001 19.5s47 25.834 67 48.501c5.33301 5.33301 10.166 11.5 14.499 18.5s9.16602 13.167 14.499 18.5c4 0.666992 8.5 -1.83301 13.5 -7.5s9.66699 -12.667 14 -21s8.33301 -16.666 12 -24.999s6.16699 -14.166 7.5 -17.499
c-12 -23.333 -28.167 -43.166 -48.5 -59.499s-42.833 -29.5 -67.5 -39.5s-50.5 -16.833 -77.5 -20.5s-53.5 -4.5 -79.5 -2.5c-20 1.33301 -41.167 6.33301 -63.5 15s-39.833 21.667 -52.5 39c-11.333 15.333 -20.166 29.833 -26.499 43.5s-9.83301 29.834 -10.5 48.501
c-0.666992 25.333 3.66602 47.833 12.999 67.5s21.5 37.167 36.5 52.5s31.667 29 50 41l52.5 34.5c16.667 11 31.334 21.667 44.001 32s21 21.833 25 34.5c1.33301 4 2.33301 10.667 3 20s1 19.5 1 30.5s-0.166992 21.5 -0.5 31.5s-0.833008 17.333 -1.5 22z
M320.999 615.997c12.667 -6.66699 21.1689 -15.668 25.502 -27.001s5.16602 -22.833 2.49902 -34.5s-8.16699 -22 -16.5 -31s-18.833 -14.5 -31.5 -16.5c-18 -2.66699 -32.5 0.5 -43.5 9.5s-17.667 20.167 -20 33.5s-0.333008 26.833 6 40.5s18.166 24.167 35.499 31.5
c9.33301 4 17.333 4.83301 24 2.5s12.667 -5.16602 18 -8.49902z" />
    <glyph glyph-name="Agrave" unicode="&#xc0;" horiz-adv-x="595" 
d="M522 0l-7.50293 0.00195312c-3 0 -5.16699 0.666992 -6.5 2c-1.33301 0 -2.66602 0.5 -3.99902 1.5s-2.66602 1.83301 -3.99902 2.5c-8.66699 6.66699 -17 17.667 -25 33s-15.5 31.666 -22.5 48.999s-13.333 34.5 -19 51.5s-10.5 30.833 -14.5 41.5
c-2 4.66699 -4.33301 9.66699 -7 15l-38 -1c-10 -0.666992 -21.333 -0.166992 -34 1.5s-24 1.83398 -34 0.500977c-25.333 -3.33301 -48.666 -4.33301 -69.999 -3l-63 4l-15.5 -46c-6.33301 -18.667 -13.166 -37.667 -20.499 -57s-14.833 -37.833 -22.5 -55.5
s-14.834 -31.5 -21.501 -41.5h-15.5h-19.5c-6.66699 0 -13.167 0.166992 -19.5 0.5s-11.5 1.16602 -15.5 2.49902c-2.66699 4 -5 6.5 -7 7.5l-5 2.5c-1.33301 0.666992 -2.33301 1.5 -3 2.5s-1 3.16699 -1 6.5c0 2 0.333008 4.66699 1 8s1.5 7 2.5 11
s1.83301 7.66699 2.5 11s0.666992 5.66602 0 6.99902c2 10 4.66699 20.667 8 32s6.66602 22 9.99902 32c3.33301 13.333 7.5 26.666 12.5 39.999l15.5 40l27.5 70l27.5 70l52 129.5c17.333 43 35.666 85.5 54.999 127.5c6.66699 14.667 14.334 27.667 23.001 39
c5.33301 7.33301 11.333 13.833 18 19.5s12.667 11.834 18 18.501c4.66699 1.33301 8.83398 3.16602 12.501 5.49902s7.16699 5.16602 10.5 8.49902l11 2h-1c13.333 0 24.5 -1.83301 33.5 -5.5s16.5 -8 22.5 -13s10.833 -10.167 14.5 -15.5
s6.83398 -9.66602 9.50098 -12.999c8 -27.333 15.333 -54.5 22 -81.5s14 -54.5 22 -82.5c14.667 -52 30.167 -103.167 46.5 -153.5s33.833 -100.833 52.5 -151.5l25.5 -69c8.33301 -22.667 17.166 -45 26.499 -67l-20 -17c-1.33301 -0.666992 -4.16602 -2 -8.49902 -4
l-14.5 -6.5c-5.33301 -2.33301 -10.333 -4.66602 -15 -6.99902s-7.33398 -3.83301 -8.00098 -4.5zM383.997 296.002l-9.49707 39.5l-6.5 26.5c-2 8 -4.33301 16.833 -7 26.5l-11 39.5l-20 68c-2.66699 8.66699 -5.5 19.167 -8.5 31.5s-6.16699 23.166 -9.5 32.499
c-10.667 -22.667 -20.334 -44.667 -29.001 -66l-25 -63.5c-8 -21 -15.667 -42.333 -23 -64l-23 -68.5c5.33301 -1.33301 9 -2.33301 11 -3c6.66699 -1.33301 17.167 -2.66602 31.5 -3.99902s29.666 -2.5 45.999 -3.5s32.166 -1.5 47.499 -1.5s27 0.666992 35 2zM433 772.002
c2 -6 1.00098 -9.83301 -2.99902 -11.5s-7.66699 -4.16699 -11 -7.5c-6.66699 -5.33301 -12 -8 -16 -8s-9.33301 -1.33301 -16 -4c-6 16 -14.667 29.833 -26 41.5s-23.333 22.834 -36 33.501s-24.834 21.5 -36.501 32.5s-20.834 23.5 -27.501 37.5
c0.666992 2 3.16699 4.83301 7.5 8.5s9.83301 7.16699 16.5 10.5s13.834 5.83301 21.501 7.5s15.167 1.5 22.5 -0.5c6 -4.66699 14 -11.834 24 -21.501s20.167 -20.667 30.5 -33s20 -26 29 -41s16.167 -29.833 21.5 -44.5h-1z" />
    <glyph glyph-name="Aacute" unicode="&#xc1;" horiz-adv-x="595" 
d="M522 0c0.666992 0.666992 3.33691 2.16504 8.00391 4.49805s9.66699 4.66602 15 6.99902l14.5 6.5c4.33301 2 7.16602 3.33301 8.49902 4l20 17c-9.33301 22 -18.166 44.333 -26.499 67l-25.5 69c-18.667 50.667 -36.167 101.167 -52.5 151.5s-31.833 101.5 -46.5 153.5
c-8 28 -15.333 55.5 -22 82.5s-14 54.167 -22 81.5c-2.66699 3.33301 -5.83398 7.66602 -9.50098 12.999s-8.5 10.5 -14.5 15.5s-13.5 9.33301 -22.5 13s-20.167 5.5 -33.5 5.5h1l-11 -2c-3.33301 -3.33301 -6.83301 -6.16602 -10.5 -8.49902
s-7.83398 -4.16602 -12.501 -5.49902c-5.33301 -6.66699 -11.333 -12.834 -18 -18.501s-12.667 -12.167 -18 -19.5c-8.66699 -11.333 -16.334 -24.333 -23.001 -39c-19.333 -42 -37.666 -84.5 -54.999 -127.5l-52 -129.5l-27.5 -70l-27.5 -70l-15.5 -40
c-5 -13.333 -9.16699 -26.666 -12.5 -39.999c-3.33301 -10 -6.66602 -20.667 -9.99902 -32s-6 -22 -8 -32c0.666992 -1.33301 0.666992 -3.66602 0 -6.99902s-1.5 -7 -2.5 -11s-1.83301 -7.66699 -2.5 -11s-1 -6 -1 -8c0 -3.33301 0.333008 -5.5 1 -6.5
s1.66699 -1.83301 3 -2.5l5 -2.5c2 -1 4.33301 -3.5 7 -7.5c4 -1.33301 9.16699 -2.16602 15.5 -2.49902s12.833 -0.5 19.5 -0.5h19.5h15.5c6.66699 10 13.834 23.833 21.501 41.5s15.167 36.167 22.5 55.5s14.166 38.333 20.499 57l15.5 46l63 -4
c21.333 -1.33301 44.666 -0.333008 69.999 3c10 1.33301 21.333 1.16602 34 -0.500977s24 -2.16699 34 -1.5l38 1c2.66699 -5.33301 5 -10.333 7 -15c4 -10.667 8.83301 -24.5 14.5 -41.5s12 -34.167 19 -51.5s14.5 -33.666 22.5 -48.999s16.333 -26.333 25 -33
c1.33301 -0.666992 2.66602 -1.5 3.99902 -2.5s2.66602 -1.5 3.99902 -1.5c1.33301 -1.33301 3.5 -2 6.5 -2h7.5zM383.003 287.998c-8 -1.33301 -19.6699 -2 -35.0029 -2s-31.166 0.5 -47.499 1.5s-31.666 2.16699 -45.999 3.5s-24.833 2.66602 -31.5 3.99902
c-2 0.666992 -5.66699 1.66699 -11 3l23 68.5c7.33301 21.667 15 43 23 64l25 63.5c8.66699 21.333 18.334 43.333 29.001 66c3.33301 -9.33301 6.5 -20.166 9.5 -32.499s5.83301 -22.833 8.5 -31.5l20 -68l11 -39.5c2.66699 -9.66699 5 -18.5 7 -26.5l6.5 -26.5l9.5 -39.5z
M241 771.998c4.66699 14.667 11.6689 29.5 21.002 44.5s19.166 28.667 29.499 41s20.5 23.333 30.5 33s18 16.834 24 21.501c7.33301 2 14.833 2.16699 22.5 0.5s14.667 -4.16699 21 -7.5s11.833 -6.83301 16.5 -10.5s7.33398 -6.5 8.00098 -8.5
c-6.66699 -14 -15.834 -26.5 -27.501 -37.5s-23.834 -21.833 -36.501 -32.5s-24.667 -21.834 -36 -33.501s-20 -25.5 -26 -41.5c-6.66699 2.66699 -12 4 -16 4s-9.33301 2.66699 -16 8c-3.33301 3.33301 -7 5.83301 -11 7.5s-5 5.5 -3 11.5h-1z" />
    <glyph glyph-name="Acircumflex" unicode="&#xc2;" horiz-adv-x="595" 
d="M522 0c0.666992 0.666992 3.33691 2.16504 8.00391 4.49805s9.66699 4.66602 15 6.99902l14.5 6.5c4.33301 2 7.16602 3.33301 8.49902 4l20 17c-9.33301 22 -18.166 44.333 -26.499 67l-25.5 69c-18.667 50.667 -36.167 101.167 -52.5 151.5s-31.833 101.5 -46.5 153.5
c-8 28 -15.333 55.5 -22 82.5s-14 54.167 -22 81.5c-2.66699 3.33301 -5.83398 7.66602 -9.50098 12.999s-8.5 10.5 -14.5 15.5s-13.5 9.33301 -22.5 13s-20.167 5.5 -33.5 5.5h1l-11 -2c-3.33301 -3.33301 -6.83301 -6.16602 -10.5 -8.49902
s-7.83398 -4.16602 -12.501 -5.49902c-5.33301 -6.66699 -11.333 -12.834 -18 -18.501s-12.667 -12.167 -18 -19.5c-8.66699 -11.333 -16.334 -24.333 -23.001 -39c-19.333 -42 -37.666 -84.5 -54.999 -127.5l-52 -129.5l-27.5 -70l-27.5 -70l-15.5 -40
c-5 -13.333 -9.16699 -26.666 -12.5 -39.999c-3.33301 -10 -6.66602 -20.667 -9.99902 -32s-6 -22 -8 -32c0.666992 -1.33301 0.666992 -3.66602 0 -6.99902s-1.5 -7 -2.5 -11s-1.83301 -7.66699 -2.5 -11s-1 -6 -1 -8c0 -3.33301 0.333008 -5.5 1 -6.5
s1.66699 -1.83301 3 -2.5l5 -2.5c2 -1 4.33301 -3.5 7 -7.5c4 -1.33301 9.16699 -2.16602 15.5 -2.49902s12.833 -0.5 19.5 -0.5h19.5h15.5c6.66699 10 13.834 23.833 21.501 41.5s15.167 36.167 22.5 55.5s14.166 38.333 20.499 57l15.5 46l63 -4
c21.333 -1.33301 44.666 -0.333008 69.999 3c10 1.33301 21.333 1.16602 34 -0.500977s24 -2.16699 34 -1.5l38 1c2.66699 -5.33301 5 -10.333 7 -15c4 -10.667 8.83301 -24.5 14.5 -41.5s12 -34.167 19 -51.5s14.5 -33.666 22.5 -48.999s16.333 -26.333 25 -33
c1.33301 -0.666992 2.66602 -1.5 3.99902 -2.5s2.66602 -1.5 3.99902 -1.5c1.33301 -1.33301 3.5 -2 6.5 -2h7.5zM383.003 287.998c-8 -1.33301 -19.6699 -2 -35.0029 -2s-31.166 0.5 -47.499 1.5s-31.666 2.16699 -45.999 3.5s-24.833 2.66602 -31.5 3.99902
c-2 0.666992 -5.66699 1.66699 -11 3l23 68.5c7.33301 21.667 15 43 23 64l25 63.5c8.66699 21.333 18.334 43.333 29.001 66c3.33301 -9.33301 6.5 -20.166 9.5 -32.499s5.83301 -22.833 8.5 -31.5l20 -68l11 -39.5c2.66699 -9.66699 5 -18.5 7 -26.5l6.5 -26.5l9.5 -39.5z
M218 750.998c-4.66699 0.666992 -9.83301 1.66113 -15.5 2.99414s-15.167 4.66602 -28.5 9.99902c0.666992 0.666992 3.5 3.83398 8.5 9.50098s7.83301 8.83398 8.5 9.50098l18 24c6 8 12.667 15.667 20 23l21.5 22c9 9.33301 17.167 16.666 24.5 21.999l7 6
c2.66699 0.666992 5.66699 3.33398 9 8.00098c8 -1.33301 19 -1.66602 33 -0.999023s24.667 0.666992 32 0c4.66699 -4.66699 10 -10.5 16 -17.5s10.667 -12.167 14 -15.5c6 -7.33301 11.333 -13.5 16 -18.5l18 -18.5c7.33301 -7.33301 13 -12.5 17 -15.5
s9.66699 -8.16699 17 -15.5c1.33301 -1.33301 4 -3.33301 8 -6c1.33301 -1.33301 2.83301 -3.16602 4.5 -5.49902s4.83398 -6.16602 9.50098 -11.499c-11.333 -5.33301 -22.333 -9 -33 -11s-20.334 -2.33301 -29.001 -1c-3.33301 0.666992 -9 4.33398 -17 11.001l-26.5 23
c-9.66699 8.66699 -19 17.5 -28 26.5s-16.167 16.5 -21.5 22.5c-9.33301 -7.33301 -17.5 -15.666 -24.5 -24.999s-14.5 -18.333 -22.5 -27c-2 -2 -3.66699 -4 -5 -6c-1.33301 -2.66699 -3 -5 -5 -7l-6.5 -8.5c-2.33301 -3 -5.5 -6.16699 -9.5 -9.5
c-7.33301 -0.666992 -13 -1 -17 -1s-8.33301 0.333008 -13 1z" />
    <glyph glyph-name="Atilde" unicode="&#xc3;" horiz-adv-x="595" 
d="M522 0l-7.50293 0.00195312c-3 0 -5.16699 0.666992 -6.5 2c-1.33301 0 -2.66602 0.5 -3.99902 1.5s-2.66602 1.83301 -3.99902 2.5c-8.66699 6.66699 -17 17.667 -25 33s-15.5 31.666 -22.5 48.999s-13.333 34.5 -19 51.5s-10.5 30.833 -14.5 41.5
c-2 4.66699 -4.33301 9.66699 -7 15l-38 -1c-10 -0.666992 -21.333 -0.166992 -34 1.5s-24 1.83398 -34 0.500977c-25.333 -3.33301 -48.666 -4.33301 -69.999 -3l-63 4l-15.5 -46c-6.33301 -18.667 -13.166 -37.667 -20.499 -57s-14.833 -37.833 -22.5 -55.5
s-14.834 -31.5 -21.501 -41.5h-15.5h-19.5c-6.66699 0 -13.167 0.166992 -19.5 0.5s-11.5 1.16602 -15.5 2.49902c-2.66699 4 -5 6.5 -7 7.5l-5 2.5c-1.33301 0.666992 -2.33301 1.5 -3 2.5s-1 3.16699 -1 6.5c0 2 0.333008 4.66699 1 8s1.5 7 2.5 11
s1.83301 7.66699 2.5 11s0.666992 5.66602 0 6.99902c2 10 4.66699 20.667 8 32s6.66602 22 9.99902 32c3.33301 13.333 7.5 26.666 12.5 39.999l15.5 40l27.5 70l27.5 70l52 129.5c17.333 43 35.666 85.5 54.999 127.5c6.66699 14.667 14.334 27.667 23.001 39
c5.33301 7.33301 11.333 13.833 18 19.5s12.667 11.834 18 18.501c4.66699 1.33301 8.83398 3.16602 12.501 5.49902s7.16699 5.16602 10.5 8.49902l11 2h-1c13.333 0 24.5 -1.83301 33.5 -5.5s16.5 -8 22.5 -13s10.833 -10.167 14.5 -15.5
s6.83398 -9.66602 9.50098 -12.999c8 -27.333 15.333 -54.5 22 -81.5s14 -54.5 22 -82.5c14.667 -52 30.167 -103.167 46.5 -153.5s33.833 -100.833 52.5 -151.5l25.5 -69c8.33301 -22.667 17.166 -45 26.499 -67l-20 -17c-1.33301 -0.666992 -4.16602 -2 -8.49902 -4
l-14.5 -6.5c-5.33301 -2.33301 -10.333 -4.66602 -15 -6.99902s-7.33398 -3.83301 -8.00098 -4.5zM383.997 296.002l-9.49707 39.5l-6.5 26.5c-2 8 -4.33301 16.833 -7 26.5l-11 39.5l-20 68c-2.66699 8.66699 -5.5 19.167 -8.5 31.5s-6.16699 23.166 -9.5 32.499
c-10.667 -22.667 -20.334 -44.667 -29.001 -66l-25 -63.5c-8 -21 -15.667 -42.333 -23 -64l-23 -68.5c5.33301 -1.33301 9 -2.33301 11 -3c6.66699 -1.33301 17.167 -2.66602 31.5 -3.99902s29.666 -2.5 45.999 -3.5s32.166 -1.5 47.499 -1.5s27 0.666992 35 2zM464 854.002
c2.66699 -4 4.66992 -8.33203 6.00293 -12.999s2.66602 -9 3.99902 -13c-13.333 -18 -26 -31.167 -38 -39.5s-24 -13.166 -36 -14.499s-24.167 0 -36.5 4s-25.833 9.33301 -40.5 16l-12.5 5l-15.5 6l-15 5.5c-4.66699 1.66699 -8.33398 2.5 -11.001 2.5
c-5.33301 0 -10.5 -1.5 -15.5 -4.5s-9.5 -6.83301 -13.5 -11.5l-11.5 -14c-3.66699 -4.66699 -6.5 -8.66699 -8.5 -12c-13.333 4.66699 -24.166 11 -32.499 19s-10.5 17 -6.5 27c12.667 16 24.667 28.5 36 37.5s23 14.667 35 17s25 1.66602 39 -2.00098s30 -10.167 48 -19.5
c4.66699 -2.66699 12.334 -6.33398 23.001 -11.001s18.667 -7 24 -7c9.33301 0 17.666 3.83301 24.999 11.5s14.666 16.167 21.999 25.5c9.33301 -1.33301 16.166 -3.33301 20.499 -6s7.83301 -5.66699 10.5 -9z" />
    <glyph glyph-name="Adieresis" unicode="&#xc4;" horiz-adv-x="595" 
d="M522 0l-7.50293 0.00195312c-3 0 -5.16699 0.666992 -6.5 2c-1.33301 0 -2.66602 0.5 -3.99902 1.5s-2.66602 1.83301 -3.99902 2.5c-8.66699 6.66699 -17 17.667 -25 33s-15.5 31.666 -22.5 48.999s-13.333 34.5 -19 51.5s-10.5 30.833 -14.5 41.5
c-2 4.66699 -4.33301 9.66699 -7 15l-38 -1c-10 -0.666992 -21.333 -0.166992 -34 1.5s-24 1.83398 -34 0.500977c-25.333 -3.33301 -48.666 -4.33301 -69.999 -3l-63 4l-15.5 -46c-6.33301 -18.667 -13.166 -37.667 -20.499 -57s-14.833 -37.833 -22.5 -55.5
s-14.834 -31.5 -21.501 -41.5h-15.5h-19.5c-6.66699 0 -13.167 0.166992 -19.5 0.5s-11.5 1.16602 -15.5 2.49902c-2.66699 4 -5 6.5 -7 7.5l-5 2.5c-1.33301 0.666992 -2.33301 1.5 -3 2.5s-1 3.16699 -1 6.5c0 2 0.333008 4.66699 1 8s1.5 7 2.5 11
s1.83301 7.66699 2.5 11s0.666992 5.66602 0 6.99902c2 10 4.66699 20.667 8 32s6.66602 22 9.99902 32c3.33301 13.333 7.5 26.666 12.5 39.999l15.5 40l27.5 70l27.5 70l52 129.5c17.333 43 35.666 85.5 54.999 127.5c6.66699 14.667 14.334 27.667 23.001 39
c5.33301 7.33301 11.333 13.833 18 19.5s12.667 11.834 18 18.501c4.66699 1.33301 8.83398 3.16602 12.501 5.49902s7.16699 5.16602 10.5 8.49902l11 2h-1c13.333 0 24.5 -1.83301 33.5 -5.5s16.5 -8 22.5 -13s10.833 -10.167 14.5 -15.5
s6.83398 -9.66602 9.50098 -12.999c8 -27.333 15.333 -54.5 22 -81.5s14 -54.5 22 -82.5c14.667 -52 30.167 -103.167 46.5 -153.5s33.833 -100.833 52.5 -151.5l25.5 -69c8.33301 -22.667 17.166 -45 26.499 -67l-20 -17c-1.33301 -0.666992 -4.16602 -2 -8.49902 -4
l-14.5 -6.5c-5.33301 -2.33301 -10.333 -4.66602 -15 -6.99902s-7.33398 -3.83301 -8.00098 -4.5zM383.997 296.002l-9.49707 39.5l-6.5 26.5c-2 8 -4.33301 16.833 -7 26.5l-11 39.5l-20 68c-2.66699 8.66699 -5.5 19.167 -8.5 31.5s-6.16699 23.166 -9.5 32.499
c-10.667 -22.667 -20.334 -44.667 -29.001 -66l-25 -63.5c-8 -21 -15.667 -42.333 -23 -64l-23 -68.5c5.33301 -1.33301 9 -2.33301 11 -3c6.66699 -1.33301 17.167 -2.66602 31.5 -3.99902s29.666 -2.5 45.999 -3.5s32.166 -1.5 47.499 -1.5s27 0.666992 35 2zM226 775.002
c-11.333 6 -18.6641 14.333 -21.9971 25s-4 21.5 -2 32.5s6.66699 20.667 14 29s16.333 13.5 27 15.5c15.333 2 27.666 -1.16699 36.999 -9.5s15.166 -18.5 17.499 -30.5s0.666016 -24.5 -5.00098 -37.5s-15.834 -22.833 -30.501 -29.5c-8 -4 -14.667 -5 -20 -3
s-10.666 4.66699 -15.999 8zM377.002 775.002c-11.333 6 -18.6621 14.333 -21.9951 25s-4 21.5 -2 32.5s6.66699 20.667 14 29s16.333 13.5 27 15.5c15.333 2 27.666 -1.16699 36.999 -9.5s15.166 -18.5 17.499 -30.5s0.666016 -24.5 -5.00098 -37.5
s-15.834 -22.833 -30.501 -29.5c-8 -4 -14.833 -5 -20.5 -3s-10.834 4.66699 -15.501 8z" />
    <glyph glyph-name="Aring" unicode="&#xc5;" horiz-adv-x="595" 
d="M522 0l-7.50293 0.00195312c-3 0 -5.16699 0.666992 -6.5 2c-1.33301 0 -2.66602 0.5 -3.99902 1.5s-2.66602 1.83301 -3.99902 2.5c-8.66699 6.66699 -17 17.667 -25 33s-15.5 31.666 -22.5 48.999s-13.333 34.5 -19 51.5s-10.5 30.833 -14.5 41.5
c-2 4.66699 -4.33301 9.66699 -7 15l-38 -1c-10 -0.666992 -21.333 -0.166992 -34 1.5s-24 1.83398 -34 0.500977c-25.333 -3.33301 -48.666 -4.33301 -69.999 -3l-63 4l-15.5 -46c-6.33301 -18.667 -13.166 -37.667 -20.499 -57s-14.833 -37.833 -22.5 -55.5
s-14.834 -31.5 -21.501 -41.5h-15.5h-19.5c-6.66699 0 -13.167 0.166992 -19.5 0.5s-11.5 1.16602 -15.5 2.49902c-2.66699 4 -5 6.5 -7 7.5l-5 2.5c-1.33301 0.666992 -2.33301 1.5 -3 2.5s-1 3.16699 -1 6.5c0 2 0.333008 4.66699 1 8s1.5 7 2.5 11
s1.83301 7.66699 2.5 11s0.666992 5.66602 0 6.99902c2 10 4.66699 20.667 8 32s6.66602 22 9.99902 32c3.33301 13.333 7.5 26.666 12.5 39.999l15.5 40l27.5 70l27.5 70l52 129.5c17.333 43 35.666 85.5 54.999 127.5c6.66699 14.667 14.334 27.667 23.001 39
c5.33301 7.33301 11.333 13.833 18 19.5s12.667 11.834 18 18.501c4.66699 1.33301 8.83398 3.16602 12.501 5.49902s7.16699 5.16602 10.5 8.49902l11 2h-1c13.333 0 24.5 -1.83301 33.5 -5.5s16.5 -8 22.5 -13s10.833 -10.167 14.5 -15.5
s6.83398 -9.66602 9.50098 -12.999c8 -27.333 15.333 -54.5 22 -81.5s14 -54.5 22 -82.5c14.667 -52 30.167 -103.167 46.5 -153.5s33.833 -100.833 52.5 -151.5l25.5 -69c8.33301 -22.667 17.166 -45 26.499 -67l-20 -17c-1.33301 -0.666992 -4.16602 -2 -8.49902 -4
l-14.5 -6.5c-5.33301 -2.33301 -10.333 -4.66602 -15 -6.99902s-7.33398 -3.83301 -8.00098 -4.5zM383.997 296.002l-9.49707 39.5l-6.5 26.5c-2 8 -4.33301 16.833 -7 26.5l-11 39.5l-20 68c-2.66699 8.66699 -5.5 19.167 -8.5 31.5s-6.16699 23.166 -9.5 32.499
c-10.667 -22.667 -20.334 -44.667 -29.001 -66l-25 -63.5c-8 -21 -15.667 -42.333 -23 -64l-23 -68.5c5.33301 -1.33301 9 -2.33301 11 -3c6.66699 -1.33301 17.167 -2.66602 31.5 -3.99902s29.666 -2.5 45.999 -3.5s32.166 -1.5 47.499 -1.5s27 0.666992 35 2zM409 904.002
c27.333 -14 44.1689 -32.165 50.502 -54.498s4.66602 -43.833 -5.00098 -64.5s-26 -38.334 -49 -53.001s-50.5 -21.334 -82.5 -20.001c-27.333 1.33301 -50.5 9.33301 -69.5 24s-31.5 31.834 -37.5 51.501s-4.33301 40 5 61s29.333 38.5 60 52.5
c10.667 5.33301 19.834 9.16602 27.501 11.499s17.5 3.83301 29.5 4.5c11.333 0.666992 23.166 0 35.499 -2s24.166 -5.66699 35.499 -11zM282.003 824.004c-0.666992 -2 -1.49609 -4.16309 -2.49609 -6.49609s-1.5 -4.5 -1.5 -6.5c0 -19.333 6.16699 -31.833 18.5 -37.5
s25.666 -6.83398 39.999 -3.50098s27.666 10.166 39.999 20.499s18.5 22.5 18.5 36.5c0 9.33301 -4.5 17.666 -13.5 24.999s-19.833 11.666 -32.5 12.999s-25.334 -1 -38.001 -7s-22.334 -17.333 -29.001 -34z" />
    <glyph glyph-name="Ccedilla" unicode="&#xc7;" horiz-adv-x="636" 
d="M466 -106c3.33301 -6.66699 5.49609 -12.4912 6.49609 -17.4912s0.833008 -11.167 -0.5 -18.5c-2 -17.333 -8.66699 -31.833 -20 -43.5s-24.833 -21.167 -40.5 -28.5s-32.334 -12.5 -50.001 -15.5s-33.5 -4.5 -47.5 -4.5c-7.33301 0 -14.333 0.5 -21 1.5
s-13.667 1.83301 -21 2.5c-23.333 2 -42 5.33301 -56 10s-28.667 10.667 -44 18c0.666992 7.33301 0.833984 12.666 0.500977 15.999s1.83398 8.33301 6.50098 15c3.33301 3.33301 6.5 6 9.5 8s7.5 3.66699 13.5 5c4.66699 -2 11.667 -4.16699 21 -6.5
s19.333 -4.33301 30 -6s21 -3 31 -4s17.667 -1.5 23 -1.5c8 0 17 0.833008 27 2.5s19.333 4.16699 28 7.5s16 8 22 14s9 13 9 21c0 8.66699 -4.5 15.5 -13.5 20.5s-20.5 8.5 -34.5 10.5s-29.167 3.16699 -45.5 3.5s-31.5 0.166016 -45.5 -0.500977
c2.66699 9.33301 6.16699 19.333 10.5 30s9.16602 21.667 14.499 33l10 22c-31.333 3.33301 -61.333 11.5 -90 24.5s-54.667 31.833 -78 56.5c-9.33301 9.33301 -16.833 18.666 -22.5 27.999s-11.167 19.666 -16.5 30.999l-10.5 21.5c-4.33301 9 -8.16602 18.5 -11.499 28.5
s-6 19.5 -8 28.5s-2.33301 16.167 -1 21.5c-2 6 -3.66699 13.833 -5 23.5s-2.33301 18.167 -3 25.5c-2 32.667 0.5 67.5 7.5 104.5s18.167 73 33.5 108s34.333 67.167 57 96.5s48.334 53 77.001 71c20 12.667 39.333 23.667 58 33s37.5 16.166 56.5 20.499
s38.5 6.16602 58.5 5.49902s42 -4.66699 66 -12c13.333 -4 25.333 -7.83301 36 -11.5s21.667 -9.83398 33 -18.501c17.333 -13.333 32.333 -29.833 45 -49.5s19 -40.5 19 -62.5c-5.33301 -4.66699 -10.666 -10.334 -15.999 -17.001l-16 -20
c-5.33301 -6.66699 -10.666 -13 -15.999 -19s-11 -10.667 -17 -14c-13.333 26.667 -30 48.834 -50 66.501s-45 28.834 -75 33.501c-41.333 6.66699 -77.166 0.166992 -107.499 -19.5s-55.5 -46.5 -75.5 -80.5l-27 -48c-8.66699 -16 -16 -32.667 -22 -50
c-8 -23.333 -13.5 -49.333 -16.5 -78s-2 -56.834 3 -84.501s14.5 -52.834 28.5 -75.501s34 -40 60 -52c31.333 -14 64.833 -19 100.5 -15s67.5 15 95.5 33c6.66699 4 15.334 10.167 26.001 18.5s21.167 17.333 31.5 27s19.666 19.5 27.999 29.5s14.166 18.667 17.499 26
c12 -1.33301 22.833 -7 32.5 -17s19.167 -18.333 28.5 -25c-0.666992 -8 -1.5 -14.667 -2.5 -20s-4.16699 -11 -9.5 -17c-2.66699 -8.66699 -7 -17.334 -13 -26.001s-12.667 -17 -20 -25s-15 -15.5 -23 -22.5s-15.667 -13.167 -23 -18.5c-46 -32.667 -95.667 -53 -149 -61
l-3 -9l-6 -16l-5 -13c24 -0.666992 46.5 -4.66699 67.5 -12s37.5 -23 49.5 -47z" />
    <glyph glyph-name="Egrave" unicode="&#xc8;" horiz-adv-x="507" 
d="M422 697c2.66699 0 7 -0.491211 13 -1.49121s12 -2.16699 18 -3.5s11.833 -2.83301 17.5 -4.5s10.167 -2.83398 13.5 -3.50098c0.666992 -6.66699 1.16699 -13 1.5 -19s0.5 -12 0.5 -18c-0.666992 -4 -0.666992 -7.83301 0 -11.5s1.16699 -7.33398 1.5 -11.001
s-0.166992 -7.33398 -1.5 -11.001s-4.33301 -7.16699 -9 -10.5c-1.33301 -0.666992 -5.16602 -1 -11.499 -1h-20.5c-7.33301 0 -14.166 -0.166992 -20.499 -0.5s-9.83301 -1.16602 -10.5 -2.49902c-16 -2 -32.167 -3.66699 -48.5 -5s-32.5 -3 -48.5 -5
c-20.667 -2 -41.334 -3.16699 -62.001 -3.5s-41.334 -2.5 -62.001 -6.5c-2.66699 -8 -4.66699 -20 -6 -36s-2.5 -33.167 -3.5 -51.5s-1.66699 -36 -2 -53s-0.5 -30.167 -0.5 -39.5c4 -4 12 -6.33301 24 -7s26 -0.333984 42 0.999023s33.167 3 51.5 5s35.833 3.5 52.5 4.5
s31.5 1.16699 44.5 0.5s22.167 -3 27.5 -7c2.66699 -3.33301 4.83398 -8.5 6.50098 -15.5s2.66699 -14.167 3 -21.5s0 -14.5 -1 -21.5s-2.5 -12.167 -4.5 -15.5c-8 -1.33301 -22.833 -2.33301 -44.5 -3l-67 -2c-23 -0.666992 -44.167 -2 -63.5 -4s-31 -5.33301 -35 -10
l-46 -3c0.666992 -10 1.33398 -23.833 2.00098 -41.5s1.16699 -36 1.5 -55l1 -55c0.333008 -17.667 0.833008 -31.5 1.5 -41.5c13.333 0.666992 33.5 3.16699 60.5 7.5s55 7.83301 84 10.5s55.833 3.5 80.5 2.5s41.667 -5.83301 51 -14.5c0 -5.33301 1 -9.33301 3 -12
s3.66699 -7.66699 5 -15c1.33301 -8.66699 2 -15.667 2 -21s-3.33301 -12.333 -10 -21c-5.33301 -2.66699 -15.833 -5.33398 -31.5 -8.00098s-33.834 -5.33398 -54.501 -8.00098s-42.834 -5.33398 -66.501 -8.00098s-46.5 -4.83398 -68.5 -6.50098s-41.833 -3 -59.5 -4
s-30.5 -1.5 -38.5 -1.5c-8.66699 0 -17 1.16699 -25 3.5s-15 6.5 -21 12.5c0 7.33301 -1.16699 13.833 -3.5 19.5s-3.83301 12.167 -4.5 19.5c-1.33301 7.33301 -2 15 -2 23s-0.666992 15.667 -2 23c-4 16 -6.16699 36 -6.5 60s0.166992 49 1.5 75s2.83301 51.667 4.5 77
s2.16699 47.333 1.5 66c0 4.66699 0.333008 14.167 1 28.5s1.5 31.166 2.5 50.499s2 40 3 62s1.83301 42.5 2.5 61.5s1 35.5 1 49.5s-0.666992 23 -2 27c58 11.333 114 19.166 168 23.499s110.333 6.83301 169 7.5zM349 772.009c2 -6 1.00098 -9.83301 -2.99902 -11.5
s-7.66699 -4.16699 -11 -7.5c-6.66699 -5.33301 -12 -8 -16 -8s-9.33301 -1.33301 -16 -4c-6 16 -14.667 29.833 -26 41.5s-23.333 22.834 -36 33.501s-24.834 21.5 -36.501 32.5s-20.834 23.5 -27.501 37.5c0.666992 2 3.16699 4.83301 7.5 8.5s9.83301 7.16699 16.5 10.5
s13.834 5.83301 21.501 7.5s15.167 1.5 22.5 -0.5c6 -4.66699 14 -11.834 24 -21.501s20.167 -20.667 30.5 -33s20 -26 29 -41s15.833 -29.833 20.5 -44.5z" />
    <glyph glyph-name="Eacute" unicode="&#xc9;" horiz-adv-x="507" 
d="M422 697c-58.667 -0.666992 -115 -3.17578 -169 -7.50879s-110 -12.166 -168 -23.499c1.33301 -4 2 -13 2 -27s-0.333008 -30.5 -1 -49.5s-1.5 -39.5 -2.5 -61.5s-2 -42.667 -3 -62s-1.83301 -36.166 -2.5 -50.499s-1 -23.833 -1 -28.5
c0.666992 -18.667 0.166992 -40.667 -1.5 -66s-3.16699 -51 -4.5 -77s-1.83301 -51 -1.5 -75s2.5 -44 6.5 -60c1.33301 -7.33301 2 -15 2 -23s0.666992 -15.667 2 -23c0.666992 -7.33301 2.16699 -13.833 4.5 -19.5s3.5 -12.167 3.5 -19.5c6 -6 13 -10.167 21 -12.5
s16.333 -3.5 25 -3.5c8 0 20.833 0.5 38.5 1.5s37.5 2.33301 59.5 4s44.833 3.83398 68.5 6.50098s45.834 5.33398 66.501 8.00098s38.834 5.33398 54.501 8.00098s26.167 5.33398 31.5 8.00098c6.66699 8.66699 10 15.667 10 21s-0.666992 12.333 -2 21
c-1.33301 7.33301 -3 12.333 -5 15s-3 6.66699 -3 12c-9.33301 8.66699 -26.333 13.5 -51 14.5s-51.5 0.166992 -80.5 -2.5s-57 -6.16699 -84 -10.5s-47.167 -6.83301 -60.5 -7.5c-0.666992 10 -1.16699 23.833 -1.5 41.5l-1 55c-0.333008 19 -0.833008 37.333 -1.5 55
s-1.33398 31.5 -2.00098 41.5l46 3c4 4.66699 15.667 8 35 10s40.5 3.33301 63.5 4l67 2c21.667 0.666992 36.5 1.66699 44.5 3c2 3.33301 3.5 8.5 4.5 15.5s1.33301 14.167 1 21.5s-1.33301 14.5 -3 21.5s-3.83398 12.167 -6.50098 15.5c-5.33301 4 -14.5 6.33301 -27.5 7
s-27.833 0.5 -44.5 -0.5s-34.167 -2.5 -52.5 -4.5s-35.5 -3.66699 -51.5 -5s-30 -1.66602 -42 -0.999023s-20 3 -24 7c0 9.33301 0.166992 22.5 0.5 39.5s1 34.667 2 53s2.16699 35.5 3.5 51.5s3.33301 28 6 36c20.667 4 41.334 6.16699 62.001 6.5s41.334 1.5 62.001 3.5
c16 2 32.167 3.66699 48.5 5s32.5 3 48.5 5c0.666992 1.33301 4.16699 2.16602 10.5 2.49902s13.166 0.5 20.499 0.5h20.5c6.33301 0 10.166 0.333008 11.499 1c4.66699 3.33301 7.66699 6.83301 9 10.5s1.83301 7.33398 1.5 11.001s-0.833008 7.33398 -1.5 11.001
s-0.666992 7.5 0 11.5c0 6 -0.166992 12 -0.5 18s-0.833008 12.333 -1.5 19c-3.33301 0.666992 -7.83301 1.83398 -13.5 3.50098s-11.5 3.16699 -17.5 4.5s-12 2.5 -18 3.5s-10.333 1.5 -13 1.5zM177 771.991c4.66699 14.667 11.6689 29.5 21.002 44.5
s19.166 28.667 29.499 41s20.5 23.333 30.5 33s18 16.834 24 21.501c7.33301 2 14.833 2.16699 22.5 0.5s14.667 -4.16699 21 -7.5s11.833 -6.83301 16.5 -10.5s7.33398 -6.5 8.00098 -8.5c-6.66699 -14 -15.834 -26.5 -27.501 -37.5s-23.834 -21.833 -36.501 -32.5
s-24.667 -21.834 -36 -33.501s-20 -25.5 -26 -41.5c-6.66699 2.66699 -12 4 -16 4s-9.33301 2.66699 -16 8c-3.33301 3.33301 -7 5.83301 -11 7.5s-5 5.5 -3 11.5h-1z" />
    <glyph glyph-name="Ecircumflex" unicode="&#xca;" horiz-adv-x="507" 
d="M422 697c-58.667 -0.666992 -115 -3.17578 -169 -7.50879s-110 -12.166 -168 -23.499c1.33301 -4 2 -13 2 -27s-0.333008 -30.5 -1 -49.5s-1.5 -39.5 -2.5 -61.5s-2 -42.667 -3 -62s-1.83301 -36.166 -2.5 -50.499s-1 -23.833 -1 -28.5
c0.666992 -18.667 0.166992 -40.667 -1.5 -66s-3.16699 -51 -4.5 -77s-1.83301 -51 -1.5 -75s2.5 -44 6.5 -60c1.33301 -7.33301 2 -15 2 -23s0.666992 -15.667 2 -23c0.666992 -7.33301 2.16699 -13.833 4.5 -19.5s3.5 -12.167 3.5 -19.5c6 -6 13 -10.167 21 -12.5
s16.333 -3.5 25 -3.5c8 0 20.833 0.5 38.5 1.5s37.5 2.33301 59.5 4s44.833 3.83398 68.5 6.50098s45.834 5.33398 66.501 8.00098s38.834 5.33398 54.501 8.00098s26.167 5.33398 31.5 8.00098c6.66699 8.66699 10 15.667 10 21s-0.666992 12.333 -2 21
c-1.33301 7.33301 -3 12.333 -5 15s-3 6.66699 -3 12c-9.33301 8.66699 -26.333 13.5 -51 14.5s-51.5 0.166992 -80.5 -2.5s-57 -6.16699 -84 -10.5s-47.167 -6.83301 -60.5 -7.5c-0.666992 10 -1.16699 23.833 -1.5 41.5l-1 55c-0.333008 19 -0.833008 37.333 -1.5 55
s-1.33398 31.5 -2.00098 41.5l46 3c4 4.66699 15.667 8 35 10s40.5 3.33301 63.5 4l67 2c21.667 0.666992 36.5 1.66699 44.5 3c2 3.33301 3.5 8.5 4.5 15.5s1.33301 14.167 1 21.5s-1.33301 14.5 -3 21.5s-3.83398 12.167 -6.50098 15.5c-5.33301 4 -14.5 6.33301 -27.5 7
s-27.833 0.5 -44.5 -0.5s-34.167 -2.5 -52.5 -4.5s-35.5 -3.66699 -51.5 -5s-30 -1.66602 -42 -0.999023s-20 3 -24 7c0 9.33301 0.166992 22.5 0.5 39.5s1 34.667 2 53s2.16699 35.5 3.5 51.5s3.33301 28 6 36c20.667 4 41.334 6.16699 62.001 6.5s41.334 1.5 62.001 3.5
c16 2 32.167 3.66699 48.5 5s32.5 3 48.5 5c0.666992 1.33301 4.16699 2.16602 10.5 2.49902s13.166 0.5 20.499 0.5h20.5c6.33301 0 10.166 0.333008 11.499 1c4.66699 3.33301 7.66699 6.83301 9 10.5s1.83301 7.33398 1.5 11.001s-0.833008 7.33398 -1.5 11.001
s-0.666992 7.5 0 11.5c0 6 -0.166992 12 -0.5 18s-0.833008 12.333 -1.5 19c-3.33301 0.666992 -7.83301 1.83398 -13.5 3.50098s-11.5 3.16699 -17.5 4.5s-12 2.5 -18 3.5s-10.333 1.5 -13 1.5zM177 750.991c-5.33301 0.666992 -10.833 1.66113 -16.5 2.99414
s-15.167 4.66602 -28.5 9.99902c0.666992 0.666992 3.5 3.83398 8.5 9.50098s7.83301 8.83398 8.5 9.50098l18 24c6 8 12.667 15.667 20 23l22 22c9.33301 9.33301 17.666 16.666 24.999 21.999l7 6c2 0.666992 4.66699 3.33398 8 8.00098
c8 -1.33301 19 -1.66602 33 -0.999023s24.667 0.666992 32 0c5.33301 -4.66699 11 -10.5 17 -17.5l13 -15.5c6 -7.33301 11.333 -13.5 16 -18.5l18 -18.5c7.33301 -7.33301 13 -12.5 17 -15.5s9.66699 -8.16699 17 -15.5c1.33301 -1.33301 2.66602 -2.33301 3.99902 -3
s2.66602 -1.66699 3.99902 -3s3 -3.16602 5 -5.49902l10 -11.5c-12 -5.33301 -23.167 -9 -33.5 -11s-20.166 -2.33301 -29.499 -1c-3.33301 0.666992 -9 4.33398 -17 11.001s-16.667 14.334 -26 23.001l-27.5 26.5c-9 9 -16.167 16.5 -21.5 22.5
c-9.33301 -7.33301 -17.666 -15.666 -24.999 -24.999s-15 -18.333 -23 -27c-2 -2 -3.33301 -4 -4 -6c-1.33301 -1.33301 -2.33301 -2.5 -3 -3.5s-1.66699 -2.16699 -3 -3.5l-6.5 -8.5c-2.33301 -3 -5.16602 -6.16699 -8.49902 -9.5
c-12.667 -0.666992 -22.667 -0.666992 -30 0z" />
    <glyph glyph-name="Edieresis" unicode="&#xcb;" horiz-adv-x="507" 
d="M422 697c2.66699 0 7 -0.491211 13 -1.49121s12 -2.16699 18 -3.5s11.833 -2.83301 17.5 -4.5s10.167 -2.83398 13.5 -3.50098c0.666992 -6.66699 1.16699 -13 1.5 -19s0.5 -12 0.5 -18c-0.666992 -4 -0.666992 -7.83301 0 -11.5s1.16699 -7.33398 1.5 -11.001
s-0.166992 -7.33398 -1.5 -11.001s-4.33301 -7.16699 -9 -10.5c-1.33301 -0.666992 -5.16602 -1 -11.499 -1h-20.5c-7.33301 0 -14.166 -0.166992 -20.499 -0.5s-9.83301 -1.16602 -10.5 -2.49902c-16 -2 -32.167 -3.66699 -48.5 -5s-32.5 -3 -48.5 -5
c-20.667 -2 -41.334 -3.16699 -62.001 -3.5s-41.334 -2.5 -62.001 -6.5c-2.66699 -8 -4.66699 -20 -6 -36s-2.5 -33.167 -3.5 -51.5s-1.66699 -36 -2 -53s-0.5 -30.167 -0.5 -39.5c4 -4 12 -6.33301 24 -7s26 -0.333984 42 0.999023s33.167 3 51.5 5s35.833 3.5 52.5 4.5
s31.5 1.16699 44.5 0.5s22.167 -3 27.5 -7c2.66699 -3.33301 4.83398 -8.5 6.50098 -15.5s2.66699 -14.167 3 -21.5s0 -14.5 -1 -21.5s-2.5 -12.167 -4.5 -15.5c-8 -1.33301 -22.833 -2.33301 -44.5 -3l-67 -2c-23 -0.666992 -44.167 -2 -63.5 -4s-31 -5.33301 -35 -10
l-46 -3c0.666992 -10 1.33398 -23.833 2.00098 -41.5s1.16699 -36 1.5 -55l1 -55c0.333008 -17.667 0.833008 -31.5 1.5 -41.5c13.333 0.666992 33.5 3.16699 60.5 7.5s55 7.83301 84 10.5s55.833 3.5 80.5 2.5s41.667 -5.83301 51 -14.5c0 -5.33301 1 -9.33301 3 -12
s3.66699 -7.66699 5 -15c1.33301 -8.66699 2 -15.667 2 -21s-3.33301 -12.333 -10 -21c-5.33301 -2.66699 -15.833 -5.33398 -31.5 -8.00098s-33.834 -5.33398 -54.501 -8.00098s-42.834 -5.33398 -66.501 -8.00098s-46.5 -4.83398 -68.5 -6.50098s-41.833 -3 -59.5 -4
s-30.5 -1.5 -38.5 -1.5c-8.66699 0 -17 1.16699 -25 3.5s-15 6.5 -21 12.5c0 7.33301 -1.16699 13.833 -3.5 19.5s-3.83301 12.167 -4.5 19.5c-1.33301 7.33301 -2 15 -2 23s-0.666992 15.667 -2 23c-4 16 -6.16699 36 -6.5 60s0.166992 49 1.5 75s2.83301 51.667 4.5 77
s2.16699 47.333 1.5 66c0 4.66699 0.333008 14.167 1 28.5s1.5 31.166 2.5 50.499s2 40 3 62s1.83301 42.5 2.5 61.5s1 35.5 1 49.5s-0.666992 23 -2 27c58 11.333 114 19.166 168 23.499s110.333 6.83301 169 7.5zM176 775.009c-11.333 6 -18.6641 14.333 -21.9971 25
s-4 21.5 -2 32.5s6.66699 20.667 14 29s16.333 13.5 27 15.5c15.333 2 27.666 -1.16699 36.999 -9.5s15.166 -18.5 17.499 -30.5s0.666016 -24.5 -5.00098 -37.5s-15.834 -22.833 -30.501 -29.5c-8 -4 -14.667 -5 -20 -3s-10.666 4.66699 -15.999 8zM327.002 775.009
c-11.333 6 -18.6621 14.333 -21.9951 25s-4 21.5 -2 32.5s6.66699 20.667 14 29s16.333 13.5 27 15.5c15.333 2 27.666 -1.16699 36.999 -9.5s15.166 -18.5 17.499 -30.5s0.666016 -24.5 -5.00098 -37.5s-15.834 -22.833 -30.501 -29.5c-8 -4 -14.833 -5 -20.5 -3
s-10.834 4.66699 -15.501 8z" />
    <glyph glyph-name="Igrave" unicode="&#xcc;" horiz-adv-x="263" 
d="M77 19c-3.33301 15.333 -4.99902 34.1709 -4.99902 56.5039s0.5 45.5 1.5 69.5s2.16699 47.167 3.5 69.5s2 41.5 2 57.5h1c4 58 6 116.667 6 176c0 21.333 1 42.666 3 63.999s3 42.666 3 63.999v56.5c0 19.667 2 38.167 6 55.5c10 7.33301 18.5 10.666 25.5 9.99902
s16.833 -1.66699 29.5 -3c0.666992 -1.33301 3 -2.33301 7 -3s8.5 -1.33398 13.5 -2.00098s9.66699 -1 14 -1s7.16602 -0.333008 8.49902 -1c-3.33301 -94.667 -4.83301 -188.5 -4.5 -281.5s-1.16699 -186.833 -4.5 -281.5l-4 -109c-3.33301 -2 -7.33301 -4 -12 -6
c-4 -1.33301 -8.66699 -2.5 -14 -3.5s-11.333 -0.833008 -18 0.5c-2 0 -6 0.5 -12 1.5s-12.333 2.33301 -19 4s-13 3.16699 -19 4.5s-10 2 -12 2zM247.001 772.005c2 -6 1.00098 -9.83301 -2.99902 -11.5s-7.66699 -4.16699 -11 -7.5c-6.66699 -5.33301 -12 -8 -16 -8
s-9.33301 -1.33301 -16 -4c-6 16 -14.667 29.833 -26 41.5s-23.333 22.834 -36 33.501s-24.834 21.5 -36.501 32.5s-20.834 23.5 -27.501 37.5c0.666992 2 3.16699 4.83301 7.5 8.5s9.83301 7.16699 16.5 10.5s13.834 5.83301 21.501 7.5s15.167 1.5 22.5 -0.5
c6 -4.66699 14 -11.834 24 -21.501s20.167 -20.667 30.5 -33s20 -26 29 -41s16.167 -29.833 21.5 -44.5h-1z" />
    <glyph glyph-name="Iacute" unicode="&#xcd;" horiz-adv-x="263" 
d="M77 19c2 0 5.99902 -0.671875 11.999 -2.00488s12.333 -2.83301 19 -4.5s13 -3 19 -4s10 -1.5 12 -1.5c6.66699 -1.33301 12.667 -1.5 18 -0.5s10 2.16699 14 3.5c4.66699 2 8.66699 4 12 6l4 109c3.33301 94.667 4.83301 188.5 4.5 281.5s1.16699 186.833 4.5 281.5
c-1.33301 0.666992 -4.16602 1 -8.49902 1s-9 0.333008 -14 1s-9.5 1.33398 -13.5 2.00098s-6.33301 1.66699 -7 3c-12.667 1.33301 -22.5 2.33301 -29.5 3s-15.5 -2.66602 -25.5 -9.99902c-4 -17.333 -6 -35.833 -6 -55.5v-56.5c0 -21.333 -1 -42.666 -3 -63.999
s-3 -42.666 -3 -63.999c0 -59.333 -2 -118 -6 -176h-1c0 -16 -0.666992 -35.167 -2 -57.5s-2.5 -45.5 -3.5 -69.5s-1.5 -47.167 -1.5 -69.5s1.66699 -41.166 5 -56.499zM74.999 771.995c4.66699 14.667 11.6689 29.5 21.002 44.5s19.166 28.667 29.499 41
s20.5 23.333 30.5 33s18 16.834 24 21.501c7.33301 2 14.833 2.16699 22.5 0.5s14.667 -4.16699 21 -7.5s11.833 -6.83301 16.5 -10.5s7.33398 -6.5 8.00098 -8.5c-6.66699 -14 -15.834 -26.5 -27.501 -37.5s-23.834 -21.833 -36.501 -32.5s-24.667 -21.834 -36 -33.501
s-20 -25.5 -26 -41.5c-6.66699 2.66699 -12 4 -16 4s-9.33301 2.66699 -16 8c-3.33301 3.33301 -7 5.83301 -11 7.5s-5 5.5 -3 11.5h-1z" />
    <glyph glyph-name="Icircumflex" unicode="&#xce;" horiz-adv-x="263" 
d="M77 19c2 0 5.99902 -0.671875 11.999 -2.00488s12.333 -2.83301 19 -4.5s13 -3 19 -4s10 -1.5 12 -1.5c6.66699 -1.33301 12.667 -1.5 18 -0.5s10 2.16699 14 3.5c4.66699 2 8.66699 4 12 6l4 109c3.33301 94.667 4.83301 188.5 4.5 281.5s1.16699 186.833 4.5 281.5
c-1.33301 0.666992 -4.16602 1 -8.49902 1s-9 0.333008 -14 1s-9.5 1.33398 -13.5 2.00098s-6.33301 1.66699 -7 3c-12.667 1.33301 -22.5 2.33301 -29.5 3s-15.5 -2.66602 -25.5 -9.99902c-4 -17.333 -6 -35.833 -6 -55.5v-56.5c0 -21.333 -1 -42.666 -3 -63.999
s-3 -42.666 -3 -63.999c0 -59.333 -2 -118 -6 -176h-1c0 -16 -0.666992 -35.167 -2 -57.5s-2.5 -45.5 -3.5 -69.5s-1.5 -47.167 -1.5 -69.5s1.66699 -41.166 5 -56.499zM54.999 750.995c-5.33301 0.666992 -10.833 1.66113 -16.5 2.99414s-15.167 4.66602 -28.5 9.99902
c0.666992 0.666992 3.5 3.83398 8.5 9.50098s7.83301 8.83398 8.5 9.50098l18 24c6 8 12.667 15.667 20 23l22 22c9.33301 9.33301 17.666 16.666 24.999 21.999l7 6c2 0.666992 4.66699 3.33398 8 8.00098c8 -1.33301 19 -1.66602 33 -0.999023s24.667 0.666992 32 0
c5.33301 -4.66699 11 -10.5 17 -17.5l13 -15.5c6 -7.33301 11.333 -13.5 16 -18.5l18 -18.5c7.33301 -7.33301 13 -12.5 17 -15.5s9.66699 -8.16699 17 -15.5c1.33301 -1.33301 2.66602 -2.33301 3.99902 -3s2.66602 -1.66699 3.99902 -3s3 -3.16602 5 -5.49902l10 -11.5
c-12 -5.33301 -23.167 -9 -33.5 -11s-20.166 -2.33301 -29.499 -1c-3.33301 0.666992 -9 4.33398 -17 11.001s-16.667 14.334 -26 23.001l-27.5 26.5c-9 9 -16.167 16.5 -21.5 22.5c-9.33301 -7.33301 -17.666 -15.666 -24.999 -24.999s-15 -18.333 -23 -27
c-2 -2 -3.33301 -4 -4 -6c-1.33301 -1.33301 -2.33301 -2.5 -3 -3.5s-1.66699 -2.16699 -3 -3.5l-6.5 -8.5c-2.33301 -3 -5.16602 -6.16699 -8.49902 -9.5c-12.667 -0.666992 -22.667 -0.666992 -30 0z" />
    <glyph glyph-name="Idieresis" unicode="&#xcf;" horiz-adv-x="263" 
d="M77 19c-3.33301 15.333 -4.99902 34.1709 -4.99902 56.5039s0.5 45.5 1.5 69.5s2.16699 47.167 3.5 69.5s2 41.5 2 57.5h1c4 58 6 116.667 6 176c0 21.333 1 42.666 3 63.999s3 42.666 3 63.999v56.5c0 19.667 2 38.167 6 55.5c10 7.33301 18.5 10.666 25.5 9.99902
s16.833 -1.66699 29.5 -3c0.666992 -1.33301 3 -2.33301 7 -3s8.5 -1.33398 13.5 -2.00098s9.66699 -1 14 -1s7.16602 -0.333008 8.49902 -1c-3.33301 -94.667 -4.83301 -188.5 -4.5 -281.5s-1.16699 -186.833 -4.5 -281.5l-4 -109c-3.33301 -2 -7.33301 -4 -12 -6
c-4 -1.33301 -8.66699 -2.5 -14 -3.5s-11.333 -0.833008 -18 0.5c-2 0 -6 0.5 -12 1.5s-12.333 2.33301 -19 4s-13 3.16699 -19 4.5s-10 2 -12 2zM58.001 775.005c-11.333 6 -18.6641 14.333 -21.9971 25s-4 21.5 -2 32.5s6.66699 20.667 14 29s16.333 13.5 27 15.5
c15.333 2 27.666 -1.16699 36.999 -9.5s15.166 -18.5 17.499 -30.5s0.666016 -24.5 -5.00098 -37.5s-15.834 -22.833 -30.501 -29.5c-8 -4 -14.667 -5 -20 -3s-10.666 4.66699 -15.999 8zM209.003 775.005c-11.333 6 -18.6621 14.333 -21.9951 25s-4 21.5 -2 32.5
s6.66699 20.667 14 29s16.333 13.5 27 15.5c15.333 2 27.666 -1.16699 36.999 -9.5s15.166 -18.5 17.499 -30.5s0.666016 -24.5 -5.00098 -37.5s-15.834 -22.833 -30.501 -29.5c-8 -4 -14.833 -5 -20.5 -3s-10.834 4.66699 -15.501 8z" />
    <glyph glyph-name="Eth" unicode="&#xd0;" horiz-adv-x="672" 
d="M51 333c-7.33301 7.33301 -11.5 17.001 -12.5 29.001s-0.833008 26.667 0.5 44c2 3.33301 7 5.83301 15 7.5s17.667 3.16699 29 4.5v44.5c0 17 0.5 34.5 1.5 52.5l3 53.5c1 17.667 2.33301 33.667 4 48s3.66699 26.333 6 36s4.83301 15.5 7.5 17.5
c18.667 7.33301 36.334 13.5 53.001 18.5s33.167 9 49.5 12s33.166 5 50.499 6s36 1.5 56 1.5c30 0 60 -2.5 90 -7.5s58.667 -13.833 86 -26.5c26 -12 48.667 -28.5 68 -49.5s35.166 -44.333 47.499 -70s21 -52.834 26 -81.501s6.16699 -56.667 3.5 -84
c-4 -44 -14.167 -84.833 -30.5 -122.5s-38.5 -73.5 -66.5 -107.5c-25.333 -30 -53.833 -56.5 -85.5 -79.5s-66.167 -40.833 -103.5 -53.5c-28.667 -10 -56.834 -16.5 -84.501 -19.5s-56.5 -0.833008 -86.5 6.5c-1.33301 2.66699 -5.66602 4.33398 -12.999 5.00098
s-12 2 -14 4c-8 0 -14 0.5 -18 1.5s-7.5 2.5 -10.5 4.5s-6.16699 4.33301 -9.5 7s-8.66602 5.66699 -15.999 9c-6 16 -10.667 35.5 -14 58.5s-5.5 47.667 -6.5 74s-1.16699 53.166 -0.5 80.499s1.66699 53 3 77zM344 345.001c-4 -1.33301 -11.332 -2.50098 -21.999 -3.50098
s-23.334 -1.83301 -38.001 -2.5s-30.667 -1.33398 -48 -2.00098s-34.666 -1 -51.999 -1c0.666992 -23.333 1.33398 -44 2.00098 -62s1.33398 -31.667 2.00098 -41c1.33301 -17.333 2.83301 -34.666 4.5 -51.999s3.16699 -34.666 4.5 -51.999
c21.333 -12 44.666 -16.333 69.999 -13s50.166 11 74.499 23s47 26.667 68 44s38.167 34 51.5 50c22 28 39.833 59.833 53.5 95.5s21.167 71.5 22.5 107.5h1c0 42 -6.5 75.167 -19.5 99.5s-30.833 42.333 -53.5 54s-49.167 18.167 -79.5 19.5
s-62.833 -0.333984 -97.5 -5.00098c-2 0 -7 -0.5 -15 -1.5s-16.667 -2 -26 -3s-17.833 -2.16699 -25.5 -3.5s-12.167 -2.33301 -13.5 -3c-2.66699 -2 -5 -4.33301 -7 -7c-3.33301 -4.66699 -6 -12.334 -8 -23.001s-3.66699 -23.5 -5 -38.5s-2.33301 -31.5 -3 -49.5
s-1 -36.333 -1 -55c11.333 0.666992 23.833 1.33398 37.5 2.00098s27.5 1.16699 41.5 1.5s27.5 0.333008 40.5 0s24.833 -1.16602 35.5 -2.49902c2.66699 -2.66699 4.66699 -8 6 -16s2 -16.333 2 -25s-0.333008 -16.5 -1 -23.5s-1.33398 -10.833 -2.00098 -11.5z" />
    <glyph glyph-name="Ntilde" unicode="&#xd1;" horiz-adv-x="650" 
d="M446 26c-10.667 12 -22.002 28.333 -34.002 49s-23.833 42.5 -35.5 65.5l-33.5 66.5c-10.667 21.333 -20 39 -28 53l-31 54l-28.5 48l-25.5 44c-6.66699 10.667 -13 23.667 -19 39s-11.667 28.666 -17 39.999c-0.666992 -21.333 -1.16699 -44 -1.5 -68l-1 -69
c-0.333008 -22 -0.5 -41.667 -0.5 -59v-39c0.666992 -23.333 0.333984 -46.166 -0.999023 -68.499s-2 -45.166 -2 -68.499c0 -9.33301 0.333008 -18.333 1 -27s1 -17.667 1 -27v-30.5c0 -9 -0.666992 -17.5 -2 -25.5c-3.33301 0 -8.16602 0.333008 -14.499 1l-19 2
c-6.33301 0.666992 -12 1.33398 -17 2.00098l-7.5 1c-9.33301 0 -17.5 -0.166992 -24.5 -0.5s-15.5 1.5 -25.5 5.5c-2.66699 40.667 -3.5 81 -2.5 121s1.83301 80 2.5 120c0 18 0.5 39.333 1.5 64s2 50.667 3 78s2.33301 54.833 4 82.5s3.5 53.5 5.5 77.5s4.33301 45 7 63
s5.66699 31 9 39v3l2 2c2.66699 2.66699 6 2.5 10 -0.5s7 -3.16699 9 -0.5c8.66699 1.33301 20 1.5 34 0.5s25.333 -1.5 34 -1.5l118 -207.5l120 -205.5c0.666992 8.66699 1.16699 18.667 1.5 30l1 32.5c0.333008 10.333 0.5 19.666 0.5 27.999s-0.333008 14.166 -1 17.499
c0.666992 0.666992 1.33398 3.16699 2.00098 7.5s1 9.16602 1 14.499v15v9c1.33301 5.33301 2 11.166 2 17.499v17.5c1.33301 46 3.16602 92.167 5.49902 138.5s6.5 92.166 12.5 137.499c0.666992 2.66699 1.83398 4.33398 3.50098 5.00098s3.5 1 5.5 1
s4.16699 0.333008 6.5 1s4.16602 2.33398 5.49902 5.00098c2.66699 0 8 0.5 16 1.5s16.5 2.33301 25.5 4s17.667 2.83398 26 3.50098s14.166 0.666992 17.499 0c4.66699 -3.33301 5.83398 -8 3.50098 -14s-2.83301 -11.667 -1.5 -17
c-4.66699 -28 -8.33398 -55.833 -11.001 -83.5s-4.66699 -55.5 -6 -83.5c-0.666992 -8.66699 -1.83398 -17 -3.50098 -25s-2.83398 -16.333 -3.50098 -25c-3.33301 -45.333 -5 -91 -5 -137s-0.333008 -92 -1 -138c-0.666992 -15.333 -1 -31 -1 -47v-48
c0 -12 0.333008 -24.167 1 -36.5s0.333984 -24.5 -0.999023 -36.5c-10.667 -5.33301 -21 -9.33301 -31 -12c-15.333 -4 -26.666 -6.33301 -33.999 -7s-15.666 -0.666992 -24.999 0v2c-2 0 -3 -0.333008 -3 -1zM463.998 854c2.66699 -4 4.66992 -8.33203 6.00293 -12.999
s2.66602 -9 3.99902 -13c-13.333 -18 -26 -31.167 -38 -39.5s-24 -13.166 -36 -14.499s-24.167 0 -36.5 4s-25.833 9.33301 -40.5 16l-12.5 5l-15.5 6l-15 5.5c-4.66699 1.66699 -8.33398 2.5 -11.001 2.5c-5.33301 0 -10.5 -1.5 -15.5 -4.5s-9.5 -6.83301 -13.5 -11.5
l-11.5 -14c-3.66699 -4.66699 -6.5 -8.66699 -8.5 -12c-13.333 4.66699 -24.166 11 -32.499 19s-10.5 17 -6.5 27c12.667 16 24.667 28.5 36 37.5s23 14.667 35 17s25 1.66602 39 -2.00098s30 -10.167 48 -19.5c4.66699 -2.66699 12.334 -6.33398 23.001 -11.001
s18.667 -7 24 -7c9.33301 0 17.666 3.83301 24.999 11.5s14.666 16.167 21.999 25.5c9.33301 -1.33301 16.166 -3.33301 20.499 -6s7.83301 -5.66699 10.5 -9z" />
    <glyph glyph-name="Ograve" unicode="&#xd2;" horiz-adv-x="682" 
d="M406 709c4.66699 0.666992 11.502 0.50293 20.502 -0.49707s18.333 -2.66699 28 -5s18.667 -4.83301 27 -7.5s14.5 -5.33398 18.5 -8.00098c25.333 -17.333 47 -37.5 65 -60.5s33.333 -48.5 46 -76.5c5.33301 -12 10 -25.5 14 -40.5s7.33301 -30.5 10 -46.5
s4.66699 -31.833 6 -47.5s2 -29.834 2 -42.501c0 -44 -6.66699 -88.833 -20 -134.5s-32.833 -87.334 -58.5 -125.001s-57.667 -68.334 -96 -92.001s-82.5 -35.5 -132.5 -35.5c-28 0 -55.333 3.33301 -82 10s-52 17.334 -76 32.001c-11.333 6.66699 -21.333 13.667 -30 21
s-16.5 15 -23.5 23s-13.667 16.5 -20 25.5s-12.833 19.167 -19.5 30.5l-1 2c-8 12 -14.333 26.333 -19 43s-8.5 34.167 -11.5 52.5s-5.16699 36.333 -6.5 54s-2.33301 33.5 -3 47.5c-0.666992 29.333 2.16602 60.166 8.49902 92.499s16.166 63.833 29.499 94.5
s30 58.834 50 84.501s43.333 46.5 70 62.5c10 6 23.333 12.5 40 19.5s34.5 13.167 53.5 18.5s38.167 9 57.5 11s37 1.33301 53 -2zM353.002 620.003c-33.333 -1.33301 -62.167 -10.001 -86.5 -26.001s-44.666 -36.833 -60.999 -62.5s-29.166 -54.5 -38.499 -86.5
s-15 -64 -17 -96c-2.66699 -32 -1.83398 -63.5 2.49902 -94.5s14.5 -60.5 30.5 -88.5c15.333 -27.333 37.5 -46.666 66.5 -57.999s58.833 -15 89.5 -11c34.667 4 62.834 13.833 84.501 29.5s41.167 38.5 58.5 68.5c12.667 22.667 23 49 31 79s12.667 61 14 93
s-0.833984 63.333 -6.50098 94s-15.5 58 -29.5 82s-32.333 43 -55 57s-50.334 20.667 -83.001 20zM487.001 772.002c2 -6 0.999023 -9.83301 -3.00098 -11.5s-8 -4.16699 -12 -7.5c-6 -5.33301 -11.167 -8 -15.5 -8s-9.83301 -1.33301 -16.5 -4
c-6 16 -14.667 29.833 -26 41.5s-23.333 22.834 -36 33.501s-24.667 21.5 -36 32.5s-20.333 23.5 -27 37.5c0.666992 2 3.16699 4.83301 7.5 8.5s9.83301 7.16699 16.5 10.5s13.834 5.83301 21.501 7.5s15.167 1.5 22.5 -0.5c6 -4.66699 14 -11.834 24 -21.501
s20.167 -20.667 30.5 -33s20 -26 29 -41s15.833 -29.833 20.5 -44.5z" />
    <glyph glyph-name="Oacute" unicode="&#xd3;" horiz-adv-x="682" 
d="M406 709c-16 3.33301 -33.6689 3.99707 -53.002 1.99707s-38.5 -5.66699 -57.5 -11s-36.833 -11.5 -53.5 -18.5s-30 -13.5 -40 -19.5c-26.667 -16 -50 -36.833 -70 -62.5s-36.667 -53.834 -50 -84.501s-23.166 -62.167 -29.499 -94.5s-9.16602 -63.166 -8.49902 -92.499
c0.666992 -14 1.66699 -29.833 3 -47.5s3.5 -35.667 6.5 -54s6.83301 -35.833 11.5 -52.5s11 -31 19 -43l1 -2c6.66699 -11.333 13.167 -21.5 19.5 -30.5s13 -17.5 20 -25.5s14.833 -15.667 23.5 -23s18.667 -14.333 30 -21c24 -14.667 49.333 -25.334 76 -32.001
s54 -10 82 -10c50 0 94.167 11.833 132.5 35.5s70.333 54.334 96 92.001s45.167 79.334 58.5 125.001s20 90.5 20 134.5c0 12.667 -0.666992 26.834 -2 42.501s-3.33301 31.5 -6 47.5s-6 31.5 -10 46.5s-8.66699 28.5 -14 40.5c-12.667 28 -28 53.5 -46 76.5
s-39.667 43.167 -65 60.5c-4 2.66699 -10.167 5.33398 -18.5 8.00098s-17.333 5.16699 -27 7.5s-19 4 -28 5s-15.833 1.16699 -20.5 0.5zM352.998 619.997c32.667 0.666992 60.335 -5.99902 83.002 -19.999s41 -33 55 -57s23.833 -51.333 29.5 -82s7.83398 -62 6.50098 -94
s-6 -63 -14 -93s-18.333 -56.333 -31 -79c-17.333 -30 -36.833 -52.833 -58.5 -68.5s-49.834 -25.5 -84.501 -29.5c-30.667 -4 -60.5 -0.333008 -89.5 11s-51.167 30.666 -66.5 57.999c-16 28 -26.167 57.5 -30.5 88.5s-5.16602 62.5 -2.49902 94.5c2 32 7.66699 64 17 96
s22.166 60.833 38.499 86.5s36.666 46.5 60.999 62.5s53.166 24.667 86.499 26zM304.999 771.998c4.66699 14.667 11.499 29.5 20.499 44.5s18.667 28.667 29 41s20.5 23.333 30.5 33s18 16.834 24 21.501c7.33301 2 14.833 2.16699 22.5 0.5s14.667 -4.16699 21 -7.5
s11.833 -6.83301 16.5 -10.5s7.33398 -6.5 8.00098 -8.5c-6.66699 -14 -15.834 -26.5 -27.501 -37.5l-36 -32.5c-12.333 -10.667 -24.166 -21.834 -35.499 -33.501s-20 -25.5 -26 -41.5c-6.66699 2.66699 -12.167 4 -16.5 4s-9.5 2.66699 -15.5 8
c-4 3.33301 -8 5.83301 -12 7.5s-5 5.5 -3 11.5z" />
    </font>
</defs>
</svg>
